<?xml version="1.0" encoding="UTF-8" standalone="no"?>
<!DOCTYPE svg PUBLIC "-//W3C//DTD SVG 1.1//EN"
 "http://www.w3.org/Graphics/SVG/1.1/DTD/svg11.dtd">
<!-- Generated by graphviz version 15.0.0 (20260523.1842)
 -->
<!-- Title: AIAtlasSection_agentic_and_multi_agent_systems Pages: 1 -->
<svg width="444pt" height="577pt"
 viewBox="0.00 0.00 444.00 577.00" xmlns="http://www.w3.org/2000/svg" xmlns:xlink="http://www.w3.org/1999/xlink">
<g id="graph0" class="graph" transform="scale(1 1) rotate(0) translate(18 559)">
<title>AIAtlasSection_agentic_and_multi_agent_systems</title>
<polygon fill="#ffffff" stroke="none" points="-18,18 -18,-559 425.51,-559 425.51,18 -18,18"/>
<!-- ai:agentic&#45;and&#45;multi&#45;agent&#45;systems -->
<g id="node1" class="node">
<title>ai:agentic&#45;and&#45;multi&#45;agent&#45;systems</title>
<path fill="#ccfbf1" stroke="#0f766e" stroke-width="1.8" d="M153.54,-291.42C153.54,-291.42 12,-291.42 12,-291.42 6,-291.42 0,-285.42 0,-279.42 0,-279.42 0,-260.58 0,-260.58 0,-254.58 6,-248.58 12,-248.58 12,-248.58 153.54,-248.58 153.54,-248.58 159.54,-248.58 165.54,-254.58 165.54,-260.58 165.54,-260.58 165.54,-279.42 165.54,-279.42 165.54,-285.42 159.54,-291.42 153.54,-291.42"/>
<text xml:space="preserve" text-anchor="middle" x="82.77" y="-271.15" font-family="Helvetica,sans-Serif" font-size="13.00" fill="#134e4a">Agentic and Multi&#45;Agent</text>
<text xml:space="preserve" text-anchor="middle" x="82.77" y="-257.65" font-family="Helvetica,sans-Serif" font-size="13.00" fill="#134e4a">Systems</text>
</g>
<!-- ai:autonomous&#45;agents -->
<g id="node2" class="node">
<title>ai:autonomous&#45;agents</title>
<path fill="#f0fdfa" stroke="#5eead4" stroke-width="1.1" d="M373.76,-541C373.76,-541 282.29,-541 282.29,-541 276.29,-541 270.29,-535 270.29,-529 270.29,-529 270.29,-517 270.29,-517 270.29,-511 276.29,-505 282.29,-505 282.29,-505 373.76,-505 373.76,-505 379.76,-505 385.76,-511 385.76,-517 385.76,-517 385.76,-529 385.76,-529 385.76,-535 379.76,-541 373.76,-541"/>
<text xml:space="preserve" text-anchor="middle" x="328.02" y="-518.55" font-family="Helvetica,sans-Serif" font-size="11.00" fill="#134e4a">Autonomous Agents</text>
</g>
<!-- ai:agentic&#45;and&#45;multi&#45;agent&#45;systems&#45;&gt;ai:autonomous&#45;agents -->
<g id="edge1" class="edge">
<title>ai:agentic&#45;and&#45;multi&#45;agent&#45;systems&#45;&gt;ai:autonomous&#45;agents</title>
<path fill="none" stroke="#94a3b8" d="M94.73,-292.11C117.54,-336.05 174.27,-435.04 248.54,-492 252.91,-495.35 257.7,-498.39 262.68,-501.13"/>
<polygon fill="#94a3b8" stroke="#94a3b8" points="261.39,-503.23 268.74,-504.25 263.63,-498.87 261.39,-503.23"/>
</g>
<!-- ai:cooperative&#45;multi&#45;agent&#45;systems -->
<g id="node3" class="node">
<title>ai:cooperative&#45;multi&#45;agent&#45;systems</title>
<path fill="#f0fdfa" stroke="#5eead4" stroke-width="1.1" d="M383.51,-478.48C383.51,-478.48 272.54,-478.48 272.54,-478.48 266.54,-478.48 260.54,-472.48 260.54,-466.48 260.54,-466.48 260.54,-453.52 260.54,-453.52 260.54,-447.52 266.54,-441.52 272.54,-441.52 272.54,-441.52 383.51,-441.52 383.51,-441.52 389.51,-441.52 395.51,-447.52 395.51,-453.52 395.51,-453.52 395.51,-466.48 395.51,-466.48 395.51,-472.48 389.51,-478.48 383.51,-478.48"/>
<text xml:space="preserve" text-anchor="middle" x="328.02" y="-461.55" font-family="Helvetica,sans-Serif" font-size="11.00" fill="#134e4a">Cooperative Multi&#45;Agent</text>
<text xml:space="preserve" text-anchor="middle" x="328.02" y="-449.55" font-family="Helvetica,sans-Serif" font-size="11.00" fill="#134e4a">Systems</text>
</g>
<!-- ai:agentic&#45;and&#45;multi&#45;agent&#45;systems&#45;&gt;ai:cooperative&#45;multi&#45;agent&#45;systems -->
<g id="edge2" class="edge">
<title>ai:agentic&#45;and&#45;multi&#45;agent&#45;systems&#45;&gt;ai:cooperative&#45;multi&#45;agent&#45;systems</title>
<path fill="none" stroke="#94a3b8" d="M101.95,-292.13C130.28,-325.44 188.04,-388.73 248.54,-428 253.83,-431.44 259.56,-434.62 265.42,-437.54"/>
<polygon fill="#94a3b8" stroke="#94a3b8" points="264.15,-439.65 271.52,-440.44 266.25,-435.22 264.15,-439.65"/>
</g>
<!-- ai:competitive&#45;multi&#45;agent&#45;systems -->
<g id="node4" class="node">
<title>ai:competitive&#45;multi&#45;agent&#45;systems</title>
<path fill="#f0fdfa" stroke="#5eead4" stroke-width="1.1" d="M382.76,-414.48C382.76,-414.48 273.29,-414.48 273.29,-414.48 267.29,-414.48 261.29,-408.48 261.29,-402.48 261.29,-402.48 261.29,-389.52 261.29,-389.52 261.29,-383.52 267.29,-377.52 273.29,-377.52 273.29,-377.52 382.76,-377.52 382.76,-377.52 388.76,-377.52 394.76,-383.52 394.76,-389.52 394.76,-389.52 394.76,-402.48 394.76,-402.48 394.76,-408.48 388.76,-414.48 382.76,-414.48"/>
<text xml:space="preserve" text-anchor="middle" x="328.02" y="-397.55" font-family="Helvetica,sans-Serif" font-size="11.00" fill="#134e4a">Competitive Multi&#45;Agent</text>
<text xml:space="preserve" text-anchor="middle" x="328.02" y="-385.55" font-family="Helvetica,sans-Serif" font-size="11.00" fill="#134e4a">Systems</text>
</g>
<!-- ai:agentic&#45;and&#45;multi&#45;agent&#45;systems&#45;&gt;ai:competitive&#45;multi&#45;agent&#45;systems -->
<g id="edge3" class="edge">
<title>ai:agentic&#45;and&#45;multi&#45;agent&#45;systems&#45;&gt;ai:competitive&#45;multi&#45;agent&#45;systems</title>
<path fill="none" stroke="#94a3b8" d="M118.95,-292.31C151.76,-312.62 202.45,-342.76 248.54,-365 254.8,-368.02 261.43,-370.99 268.09,-373.81"/>
<polygon fill="#94a3b8" stroke="#94a3b8" points="267.09,-376.05 274.49,-376.48 268.97,-371.53 267.09,-376.05"/>
</g>
<!-- ai:agent&#45;communication -->
<g id="node5" class="node">
<title>ai:agent&#45;communication</title>
<path fill="#f0fdfa" stroke="#5eead4" stroke-width="1.1" d="M378.63,-351C378.63,-351 277.41,-351 277.41,-351 271.41,-351 265.41,-345 265.41,-339 265.41,-339 265.41,-327 265.41,-327 265.41,-321 271.41,-315 277.41,-315 277.41,-315 378.63,-315 378.63,-315 384.63,-315 390.63,-321 390.63,-327 390.63,-327 390.63,-339 390.63,-339 390.63,-345 384.63,-351 378.63,-351"/>
<text xml:space="preserve" text-anchor="middle" x="328.02" y="-328.55" font-family="Helvetica,sans-Serif" font-size="11.00" fill="#134e4a">Agent Communication</text>
</g>
<!-- ai:agentic&#45;and&#45;multi&#45;agent&#45;systems&#45;&gt;ai:agent&#45;communication -->
<g id="edge4" class="edge">
<title>ai:agentic&#45;and&#45;multi&#45;agent&#45;systems&#45;&gt;ai:agent&#45;communication</title>
<path fill="none" stroke="#94a3b8" d="M166.13,-291.33C195.73,-299 228.82,-307.57 257.25,-314.93"/>
<polygon fill="#94a3b8" stroke="#94a3b8" points="256.28,-317.21 263.67,-316.59 257.51,-312.47 256.28,-317.21"/>
</g>
<!-- ai:coordination&#45;and&#45;negotiation -->
<g id="node6" class="node">
<title>ai:coordination&#45;and&#45;negotiation</title>
<path fill="#f0fdfa" stroke="#5eead4" stroke-width="1.1" d="M395.51,-288C395.51,-288 260.54,-288 260.54,-288 254.54,-288 248.54,-282 248.54,-276 248.54,-276 248.54,-264 248.54,-264 248.54,-258 254.54,-252 260.54,-252 260.54,-252 395.51,-252 395.51,-252 401.51,-252 407.51,-258 407.51,-264 407.51,-264 407.51,-276 407.51,-276 407.51,-282 401.51,-288 395.51,-288"/>
<text xml:space="preserve" text-anchor="middle" x="328.02" y="-265.55" font-family="Helvetica,sans-Serif" font-size="11.00" fill="#134e4a">Coordination and Negotiation</text>
</g>
<!-- ai:agentic&#45;and&#45;multi&#45;agent&#45;systems&#45;&gt;ai:coordination&#45;and&#45;negotiation -->
<g id="edge5" class="edge">
<title>ai:agentic&#45;and&#45;multi&#45;agent&#45;systems&#45;&gt;ai:coordination&#45;and&#45;negotiation</title>
<path fill="none" stroke="#94a3b8" d="M166.13,-270C189.8,-270 215.69,-270 239.66,-270"/>
<polygon fill="#94a3b8" stroke="#94a3b8" points="239.53,-272.45 246.53,-270 239.53,-267.55 239.53,-272.45"/>
</g>
<!-- ai:multi&#45;agent&#45;reinforcement&#45;learning -->
<g id="node7" class="node">
<title>ai:multi&#45;agent&#45;reinforcement&#45;learning</title>
<path fill="#f0fdfa" stroke="#5eead4" stroke-width="1.1" d="M389.51,-225.48C389.51,-225.48 266.54,-225.48 266.54,-225.48 260.54,-225.48 254.54,-219.48 254.54,-213.48 254.54,-213.48 254.54,-200.52 254.54,-200.52 254.54,-194.52 260.54,-188.52 266.54,-188.52 266.54,-188.52 389.51,-188.52 389.51,-188.52 395.51,-188.52 401.51,-194.52 401.51,-200.52 401.51,-200.52 401.51,-213.48 401.51,-213.48 401.51,-219.48 395.51,-225.48 389.51,-225.48"/>
<text xml:space="preserve" text-anchor="middle" x="328.02" y="-208.55" font-family="Helvetica,sans-Serif" font-size="11.00" fill="#134e4a">Multi&#45;Agent Reinforcement</text>
<text xml:space="preserve" text-anchor="middle" x="328.02" y="-196.55" font-family="Helvetica,sans-Serif" font-size="11.00" fill="#134e4a">Learning</text>
</g>
<!-- ai:agentic&#45;and&#45;multi&#45;agent&#45;systems&#45;&gt;ai:multi&#45;agent&#45;reinforcement&#45;learning -->
<g id="edge6" class="edge">
<title>ai:agentic&#45;and&#45;multi&#45;agent&#45;systems&#45;&gt;ai:multi&#45;agent&#45;reinforcement&#45;learning</title>
<path fill="none" stroke="#94a3b8" d="M166.13,-248.67C191.87,-242 220.24,-234.65 245.9,-228.01"/>
<polygon fill="#94a3b8" stroke="#94a3b8" points="246.51,-230.38 252.67,-226.26 245.28,-225.64 246.51,-230.38"/>
</g>
<!-- ai:swarm&#45;intelligence -->
<g id="node8" class="node">
<title>ai:swarm&#45;intelligence</title>
<path fill="#f0fdfa" stroke="#5eead4" stroke-width="1.1" d="M371.13,-162C371.13,-162 284.91,-162 284.91,-162 278.91,-162 272.91,-156 272.91,-150 272.91,-150 272.91,-138 272.91,-138 272.91,-132 278.91,-126 284.91,-126 284.91,-126 371.13,-126 371.13,-126 377.13,-126 383.13,-132 383.13,-138 383.13,-138 383.13,-150 383.13,-150 383.13,-156 377.13,-162 371.13,-162"/>
<text xml:space="preserve" text-anchor="middle" x="328.02" y="-139.55" font-family="Helvetica,sans-Serif" font-size="11.00" fill="#134e4a">Swarm Intelligence</text>
</g>
<!-- ai:agentic&#45;and&#45;multi&#45;agent&#45;systems&#45;&gt;ai:swarm&#45;intelligence -->
<g id="edge7" class="edge">
<title>ai:agentic&#45;and&#45;multi&#45;agent&#45;systems&#45;&gt;ai:swarm&#45;intelligence</title>
<path fill="none" stroke="#94a3b8" d="M118.95,-247.69C151.76,-227.38 202.45,-197.24 248.54,-175 255.23,-171.77 262.34,-168.61 269.45,-165.61"/>
<polygon fill="#94a3b8" stroke="#94a3b8" points="270.22,-167.95 275.75,-163 268.34,-163.42 270.22,-167.95"/>
</g>
<!-- ai:agent&#45;societies -->
<g id="node9" class="node">
<title>ai:agent&#45;societies</title>
<path fill="#f0fdfa" stroke="#5eead4" stroke-width="1.1" d="M362.88,-99C362.88,-99 293.16,-99 293.16,-99 287.16,-99 281.16,-93 281.16,-87 281.16,-87 281.16,-75 281.16,-75 281.16,-69 287.16,-63 293.16,-63 293.16,-63 362.88,-63 362.88,-63 368.88,-63 374.88,-69 374.88,-75 374.88,-75 374.88,-87 374.88,-87 374.88,-93 368.88,-99 362.88,-99"/>
<text xml:space="preserve" text-anchor="middle" x="328.02" y="-76.55" font-family="Helvetica,sans-Serif" font-size="11.00" fill="#134e4a">Agent Societies</text>
</g>
<!-- ai:agentic&#45;and&#45;multi&#45;agent&#45;systems&#45;&gt;ai:agent&#45;societies -->
<g id="edge8" class="edge">
<title>ai:agentic&#45;and&#45;multi&#45;agent&#45;systems&#45;&gt;ai:agent&#45;societies</title>
<path fill="none" stroke="#94a3b8" d="M102.21,-247.75C130.67,-214.59 188.33,-151.95 248.54,-113 256.11,-108.1 264.55,-103.72 273.01,-99.88"/>
<polygon fill="#94a3b8" stroke="#94a3b8" points="273.93,-102.15 279.37,-97.12 271.97,-97.66 273.93,-102.15"/>
</g>
<!-- ai:market&#45;based&#45;systems -->
<g id="node10" class="node">
<title>ai:market&#45;based&#45;systems</title>
<path fill="#f0fdfa" stroke="#5eead4" stroke-width="1.1" d="M381.26,-36C381.26,-36 274.79,-36 274.79,-36 268.79,-36 262.79,-30 262.79,-24 262.79,-24 262.79,-12 262.79,-12 262.79,-6 268.79,0 274.79,0 274.79,0 381.26,0 381.26,0 387.26,0 393.26,-6 393.26,-12 393.26,-12 393.26,-24 393.26,-24 393.26,-30 387.26,-36 381.26,-36"/>
<text xml:space="preserve" text-anchor="middle" x="328.02" y="-13.55" font-family="Helvetica,sans-Serif" font-size="11.00" fill="#134e4a">Market&#45;Based Systems</text>
</g>
<!-- ai:agentic&#45;and&#45;multi&#45;agent&#45;systems&#45;&gt;ai:market&#45;based&#45;systems -->
<g id="edge9" class="edge">
<title>ai:agentic&#45;and&#45;multi&#45;agent&#45;systems&#45;&gt;ai:market&#45;based&#45;systems</title>
<path fill="none" stroke="#94a3b8" d="M95.01,-247.83C118.13,-204.25 175.08,-106.73 248.54,-50 253.18,-46.41 258.29,-43.17 263.59,-40.24"/>
<polygon fill="#94a3b8" stroke="#94a3b8" points="264.48,-42.54 269.58,-37.15 262.24,-38.19 264.48,-42.54"/>
</g>
</g>
</svg>
