<?xml version="1.0" encoding="UTF-8" standalone="no"?>
<!DOCTYPE svg PUBLIC "-//W3C//DTD SVG 1.1//EN"
 "http://www.w3.org/Graphics/SVG/1.1/DTD/svg11.dtd">
<!-- Generated by graphviz version 15.0.0 (20260523.1842)
 -->
<!-- Title: AIAtlasSection_agi_and_future_ai Pages: 1 -->
<svg width="381pt" height="387pt"
 viewBox="0.00 0.00 381.00 387.00" xmlns="http://www.w3.org/2000/svg" xmlns:xlink="http://www.w3.org/1999/xlink">
<g id="graph0" class="graph" transform="scale(1 1) rotate(0) translate(18 369.48)">
<title>AIAtlasSection_agi_and_future_ai</title>
<polygon fill="#ffffff" stroke="none" points="-18,18 -18,-369.48 363.26,-369.48 363.26,18 -18,18"/>
<!-- ai:agi&#45;and&#45;future&#45;ai -->
<g id="node1" class="node">
<title>ai:agi&#45;and&#45;future&#45;ai</title>
<path fill="#ccfbf1" stroke="#0f766e" stroke-width="1.8" d="M117.54,-193C117.54,-193 12,-193 12,-193 6,-193 0,-187 0,-181 0,-181 0,-169 0,-169 0,-163 6,-157 12,-157 12,-157 117.54,-157 117.54,-157 123.54,-157 129.54,-163 129.54,-169 129.54,-169 129.54,-181 129.54,-181 129.54,-187 123.54,-193 117.54,-193"/>
<text xml:space="preserve" text-anchor="middle" x="64.77" y="-169.4" font-family="Helvetica,sans-Serif" font-size="13.00" fill="#134e4a">AGI and Future AI</text>
</g>
<!-- ai:artificial&#45;general&#45;intelligence -->
<g id="node2" class="node">
<title>ai:artificial&#45;general&#45;intelligence</title>
<path fill="#f0fdfa" stroke="#5eead4" stroke-width="1.1" d="M315.63,-351.48C315.63,-351.48 242.16,-351.48 242.16,-351.48 236.16,-351.48 230.16,-345.48 230.16,-339.48 230.16,-339.48 230.16,-326.52 230.16,-326.52 230.16,-320.52 236.16,-314.52 242.16,-314.52 242.16,-314.52 315.63,-314.52 315.63,-314.52 321.63,-314.52 327.63,-320.52 327.63,-326.52 327.63,-326.52 327.63,-339.48 327.63,-339.48 327.63,-345.48 321.63,-351.48 315.63,-351.48"/>
<text xml:space="preserve" text-anchor="middle" x="278.9" y="-334.55" font-family="Helvetica,sans-Serif" font-size="11.00" fill="#134e4a">Artificial General</text>
<text xml:space="preserve" text-anchor="middle" x="278.9" y="-322.55" font-family="Helvetica,sans-Serif" font-size="11.00" fill="#134e4a">Intelligence</text>
</g>
<!-- ai:agi&#45;and&#45;future&#45;ai&#45;&gt;ai:artificial&#45;general&#45;intelligence -->
<g id="edge1" class="edge">
<title>ai:agi&#45;and&#45;future&#45;ai&#45;&gt;ai:artificial&#45;general&#45;intelligence</title>
<path fill="none" stroke="#94a3b8" d="M83.91,-193.61C110.4,-220.08 162.03,-269.04 212.54,-302 216.89,-304.84 221.54,-307.57 226.28,-310.15"/>
<polygon fill="#94a3b8" stroke="#94a3b8" points="225.09,-312.29 232.43,-313.38 227.37,-307.95 225.09,-312.29"/>
</g>
<!-- ai:self&#45;improving&#45;systems -->
<g id="node3" class="node">
<title>ai:self&#45;improving&#45;systems</title>
<path fill="#f0fdfa" stroke="#5eead4" stroke-width="1.1" d="M333.26,-288C333.26,-288 224.54,-288 224.54,-288 218.54,-288 212.54,-282 212.54,-276 212.54,-276 212.54,-264 212.54,-264 212.54,-258 218.54,-252 224.54,-252 224.54,-252 333.26,-252 333.26,-252 339.26,-252 345.26,-258 345.26,-264 345.26,-264 345.26,-276 345.26,-276 345.26,-282 339.26,-288 333.26,-288"/>
<text xml:space="preserve" text-anchor="middle" x="278.9" y="-265.55" font-family="Helvetica,sans-Serif" font-size="11.00" fill="#134e4a">Self&#45;Improving Systems</text>
</g>
<!-- ai:agi&#45;and&#45;future&#45;ai&#45;&gt;ai:self&#45;improving&#45;systems -->
<g id="edge2" class="edge">
<title>ai:agi&#45;and&#45;future&#45;ai&#45;&gt;ai:self&#45;improving&#45;systems</title>
<path fill="none" stroke="#94a3b8" d="M107.93,-193.88C142.79,-209.49 192.33,-231.68 228.93,-248.07"/>
<polygon fill="#94a3b8" stroke="#94a3b8" points="227.77,-250.23 235.16,-250.86 229.77,-245.76 227.77,-250.23"/>
</g>
<!-- ai:ai&#45;scientists -->
<g id="node4" class="node">
<title>ai:ai&#45;scientists</title>
<path fill="#f0fdfa" stroke="#5eead4" stroke-width="1.1" d="M305.88,-225C305.88,-225 251.91,-225 251.91,-225 245.91,-225 239.91,-219 239.91,-213 239.91,-213 239.91,-201 239.91,-201 239.91,-195 245.91,-189 251.91,-189 251.91,-189 305.88,-189 305.88,-189 311.88,-189 317.88,-195 317.88,-201 317.88,-201 317.88,-213 317.88,-213 317.88,-219 311.88,-225 305.88,-225"/>
<text xml:space="preserve" text-anchor="middle" x="278.9" y="-202.55" font-family="Helvetica,sans-Serif" font-size="11.00" fill="#134e4a">AI Scientists</text>
</g>
<!-- ai:agi&#45;and&#45;future&#45;ai&#45;&gt;ai:ai&#45;scientists -->
<g id="edge3" class="edge">
<title>ai:agi&#45;and&#45;future&#45;ai&#45;&gt;ai:ai&#45;scientists</title>
<path fill="none" stroke="#94a3b8" d="M130.28,-184.73C162.93,-189.66 201.81,-195.52 231.47,-200"/>
<polygon fill="#94a3b8" stroke="#94a3b8" points="230.8,-202.37 238.09,-200.99 231.53,-197.53 230.8,-202.37"/>
</g>
<!-- ai:human&#45;ai&#45;symbiosis -->
<g id="node5" class="node">
<title>ai:human&#45;ai&#45;symbiosis</title>
<path fill="#f0fdfa" stroke="#5eead4" stroke-width="1.1" d="M326.88,-162C326.88,-162 230.91,-162 230.91,-162 224.91,-162 218.91,-156 218.91,-150 218.91,-150 218.91,-138 218.91,-138 218.91,-132 224.91,-126 230.91,-126 230.91,-126 326.88,-126 326.88,-126 332.88,-126 338.88,-132 338.88,-138 338.88,-138 338.88,-150 338.88,-150 338.88,-156 332.88,-162 326.88,-162"/>
<text xml:space="preserve" text-anchor="middle" x="278.9" y="-139.55" font-family="Helvetica,sans-Serif" font-size="11.00" fill="#134e4a">Human&#45;AI Symbiosis</text>
</g>
<!-- ai:agi&#45;and&#45;future&#45;ai&#45;&gt;ai:human&#45;ai&#45;symbiosis -->
<g id="edge4" class="edge">
<title>ai:agi&#45;and&#45;future&#45;ai&#45;&gt;ai:human&#45;ai&#45;symbiosis</title>
<path fill="none" stroke="#94a3b8" d="M130.28,-165.57C155.58,-161.88 184.62,-157.63 210.22,-153.89"/>
<polygon fill="#94a3b8" stroke="#94a3b8" points="210.33,-156.35 216.9,-152.91 209.62,-151.5 210.33,-156.35"/>
</g>
<!-- ai:superintelligence -->
<g id="node6" class="node">
<title>ai:superintelligence</title>
<path fill="#f0fdfa" stroke="#5eead4" stroke-width="1.1" d="M317.51,-99C317.51,-99 240.29,-99 240.29,-99 234.29,-99 228.29,-93 228.29,-87 228.29,-87 228.29,-75 228.29,-75 228.29,-69 234.29,-63 240.29,-63 240.29,-63 317.51,-63 317.51,-63 323.51,-63 329.51,-69 329.51,-75 329.51,-75 329.51,-87 329.51,-87 329.51,-93 323.51,-99 317.51,-99"/>
<text xml:space="preserve" text-anchor="middle" x="278.9" y="-76.55" font-family="Helvetica,sans-Serif" font-size="11.00" fill="#134e4a">Superintelligence</text>
</g>
<!-- ai:agi&#45;and&#45;future&#45;ai&#45;&gt;ai:superintelligence -->
<g id="edge5" class="edge">
<title>ai:agi&#45;and&#45;future&#45;ai&#45;&gt;ai:superintelligence</title>
<path fill="none" stroke="#94a3b8" d="M108.19,-156.2C142.95,-140.8 192.2,-118.98 228.69,-102.8"/>
<polygon fill="#94a3b8" stroke="#94a3b8" points="229.49,-105.13 234.89,-100.06 227.5,-100.65 229.49,-105.13"/>
</g>
<!-- ai:long&#45;term&#45;ai&#45;futures -->
<g id="node7" class="node">
<title>ai:long&#45;term&#45;ai&#45;futures</title>
<path fill="#f0fdfa" stroke="#5eead4" stroke-width="1.1" d="M328.38,-36C328.38,-36 229.41,-36 229.41,-36 223.41,-36 217.41,-30 217.41,-24 217.41,-24 217.41,-12 217.41,-12 217.41,-6 223.41,0 229.41,0 229.41,0 328.38,0 328.38,0 334.38,0 340.38,-6 340.38,-12 340.38,-12 340.38,-24 340.38,-24 340.38,-30 334.38,-36 328.38,-36"/>
<text xml:space="preserve" text-anchor="middle" x="278.9" y="-13.55" font-family="Helvetica,sans-Serif" font-size="11.00" fill="#134e4a">Long&#45;Term AI Futures</text>
</g>
<!-- ai:agi&#45;and&#45;future&#45;ai&#45;&gt;ai:long&#45;term&#45;ai&#45;futures -->
<g id="edge6" class="edge">
<title>ai:agi&#45;and&#45;future&#45;ai&#45;&gt;ai:long&#45;term&#45;ai&#45;futures</title>
<path fill="none" stroke="#94a3b8" d="M84.47,-156.36C111.22,-130.34 162.72,-82.67 212.54,-50 217.74,-46.59 223.36,-43.31 229.04,-40.23"/>
<polygon fill="#94a3b8" stroke="#94a3b8" points="229.84,-42.58 234.9,-37.15 227.56,-38.24 229.84,-42.58"/>
</g>
</g>
</svg>
