<?xml version="1.0" encoding="UTF-8" standalone="no"?>
<!DOCTYPE svg PUBLIC "-//W3C//DTD SVG 1.1//EN"
 "http://www.w3.org/Graphics/SVG/1.1/DTD/svg11.dtd">
<!-- Generated by graphviz version 15.0.0 (20260523.1842)
 -->
<!-- Title: AIAtlasSection_ai_safety_alignment_and_governance Pages: 1 -->
<svg width="449pt" height="513pt"
 viewBox="0.00 0.00 449.00 513.00" xmlns="http://www.w3.org/2000/svg" xmlns:xlink="http://www.w3.org/1999/xlink">
<g id="graph0" class="graph" transform="scale(1 1) rotate(0) translate(18 495)">
<title>AIAtlasSection_ai_safety_alignment_and_governance</title>
<polygon fill="#ffffff" stroke="none" points="-18,18 -18,-495 430.76,-495 430.76,18 -18,18"/>
<!-- ai:ai&#45;safety&#45;alignment&#45;and&#45;governance -->
<g id="node1" class="node">
<title>ai:ai&#45;safety&#45;alignment&#45;and&#45;governance</title>
<path fill="#ccfbf1" stroke="#0f766e" stroke-width="1.8" d="M155.79,-259.42C155.79,-259.42 12,-259.42 12,-259.42 6,-259.42 0,-253.42 0,-247.42 0,-247.42 0,-228.58 0,-228.58 0,-222.58 6,-216.58 12,-216.58 12,-216.58 155.79,-216.58 155.79,-216.58 161.79,-216.58 167.79,-222.58 167.79,-228.58 167.79,-228.58 167.79,-247.42 167.79,-247.42 167.79,-253.42 161.79,-259.42 155.79,-259.42"/>
<text xml:space="preserve" text-anchor="middle" x="83.89" y="-239.15" font-family="Helvetica,sans-Serif" font-size="13.00" fill="#134e4a">AI Safety, Alignment and</text>
<text xml:space="preserve" text-anchor="middle" x="83.89" y="-225.65" font-family="Helvetica,sans-Serif" font-size="13.00" fill="#134e4a">Governance</text>
</g>
<!-- ai:ai&#45;alignment -->
<g id="node2" class="node">
<title>ai:ai&#45;alignment</title>
<path fill="#f0fdfa" stroke="#5eead4" stroke-width="1.1" d="M359.51,-477C359.51,-477 304.04,-477 304.04,-477 298.04,-477 292.04,-471 292.04,-465 292.04,-465 292.04,-453 292.04,-453 292.04,-447 298.04,-441 304.04,-441 304.04,-441 359.51,-441 359.51,-441 365.51,-441 371.51,-447 371.51,-453 371.51,-453 371.51,-465 371.51,-465 371.51,-471 365.51,-477 359.51,-477"/>
<text xml:space="preserve" text-anchor="middle" x="331.77" y="-454.55" font-family="Helvetica,sans-Serif" font-size="11.00" fill="#134e4a">AI Alignment</text>
</g>
<!-- ai:ai&#45;safety&#45;alignment&#45;and&#45;governance&#45;&gt;ai:ai&#45;alignment -->
<g id="edge1" class="edge">
<title>ai:ai&#45;safety&#45;alignment&#45;and&#45;governance&#45;&gt;ai:ai&#45;alignment</title>
<path fill="none" stroke="#94a3b8" d="M98.91,-260.16C124.59,-299.14 182.84,-380.37 250.79,-428 260.8,-435.02 272.61,-440.72 284.04,-445.23"/>
<polygon fill="#94a3b8" stroke="#94a3b8" points="283.03,-447.47 290.45,-447.63 284.75,-442.88 283.03,-447.47"/>
</g>
<!-- ai:robustness -->
<g id="node3" class="node">
<title>ai:robustness</title>
<path fill="#f0fdfa" stroke="#5eead4" stroke-width="1.1" d="M357.63,-414C357.63,-414 305.91,-414 305.91,-414 299.91,-414 293.91,-408 293.91,-402 293.91,-402 293.91,-390 293.91,-390 293.91,-384 299.91,-378 305.91,-378 305.91,-378 357.63,-378 357.63,-378 363.63,-378 369.63,-384 369.63,-390 369.63,-390 369.63,-402 369.63,-402 369.63,-408 363.63,-414 357.63,-414"/>
<text xml:space="preserve" text-anchor="middle" x="331.77" y="-391.55" font-family="Helvetica,sans-Serif" font-size="11.00" fill="#134e4a">Robustness</text>
</g>
<!-- ai:ai&#45;safety&#45;alignment&#45;and&#45;governance&#45;&gt;ai:robustness -->
<g id="edge2" class="edge">
<title>ai:ai&#45;safety&#45;alignment&#45;and&#45;governance&#45;&gt;ai:robustness</title>
<path fill="none" stroke="#94a3b8" d="M109.19,-260.18C140.2,-287.63 196.39,-334.46 250.79,-365 261.66,-371.1 273.97,-376.53 285.62,-381.07"/>
<polygon fill="#94a3b8" stroke="#94a3b8" points="284.72,-383.35 292.13,-383.53 286.45,-378.76 284.72,-383.35"/>
</g>
<!-- ai:interpretability -->
<g id="node4" class="node">
<title>ai:interpretability</title>
<path fill="#f0fdfa" stroke="#5eead4" stroke-width="1.1" d="M362.88,-351C362.88,-351 300.66,-351 300.66,-351 294.66,-351 288.66,-345 288.66,-339 288.66,-339 288.66,-327 288.66,-327 288.66,-321 294.66,-315 300.66,-315 300.66,-315 362.88,-315 362.88,-315 368.88,-315 374.88,-321 374.88,-327 374.88,-327 374.88,-339 374.88,-339 374.88,-345 368.88,-351 362.88,-351"/>
<text xml:space="preserve" text-anchor="middle" x="331.77" y="-328.55" font-family="Helvetica,sans-Serif" font-size="11.00" fill="#134e4a">Interpretability</text>
</g>
<!-- ai:ai&#45;safety&#45;alignment&#45;and&#45;governance&#45;&gt;ai:interpretability -->
<g id="edge3" class="edge">
<title>ai:ai&#45;safety&#45;alignment&#45;and&#45;governance&#45;&gt;ai:interpretability</title>
<path fill="none" stroke="#94a3b8" d="M142.54,-260.27C184.46,-276.47 240.64,-298.18 280.69,-313.65"/>
<polygon fill="#94a3b8" stroke="#94a3b8" points="279.65,-315.87 287.07,-316.11 281.42,-311.3 279.65,-315.87"/>
</g>
<!-- ai:evaluation&#45;measurement&#45;and&#45;benchmarking -->
<g id="node5" class="node">
<title>ai:evaluation&#45;measurement&#45;and&#45;benchmarking</title>
<path fill="#f0fdfa" stroke="#5eead4" stroke-width="1.1" d="M400.76,-288.48C400.76,-288.48 262.79,-288.48 262.79,-288.48 256.79,-288.48 250.79,-282.48 250.79,-276.48 250.79,-276.48 250.79,-263.52 250.79,-263.52 250.79,-257.52 256.79,-251.52 262.79,-251.52 262.79,-251.52 400.76,-251.52 400.76,-251.52 406.76,-251.52 412.76,-257.52 412.76,-263.52 412.76,-263.52 412.76,-276.48 412.76,-276.48 412.76,-282.48 406.76,-288.48 400.76,-288.48"/>
<text xml:space="preserve" text-anchor="middle" x="331.77" y="-271.55" font-family="Helvetica,sans-Serif" font-size="11.00" fill="#134e4a">Evaluation, Measurement and</text>
<text xml:space="preserve" text-anchor="middle" x="331.77" y="-259.55" font-family="Helvetica,sans-Serif" font-size="11.00" fill="#134e4a">Benchmarking</text>
</g>
<!-- ai:ai&#45;safety&#45;alignment&#45;and&#45;governance&#45;&gt;ai:evaluation&#45;measurement&#45;and&#45;benchmarking -->
<g id="edge4" class="edge">
<title>ai:ai&#45;safety&#45;alignment&#45;and&#45;governance&#45;&gt;ai:evaluation&#45;measurement&#45;and&#45;benchmarking</title>
<path fill="none" stroke="#94a3b8" d="M168.48,-248.88C192.14,-251.96 217.98,-255.32 241.94,-258.44"/>
<polygon fill="#94a3b8" stroke="#94a3b8" points="241.57,-260.86 248.83,-259.34 242.2,-256 241.57,-260.86"/>
</g>
<!-- ai:bias&#45;and&#45;fairness -->
<g id="node6" class="node">
<title>ai:bias&#45;and&#45;fairness</title>
<path fill="#f0fdfa" stroke="#5eead4" stroke-width="1.1" d="M372.26,-225C372.26,-225 291.29,-225 291.29,-225 285.29,-225 279.29,-219 279.29,-213 279.29,-213 279.29,-201 279.29,-201 279.29,-195 285.29,-189 291.29,-189 291.29,-189 372.26,-189 372.26,-189 378.26,-189 384.26,-195 384.26,-201 384.26,-201 384.26,-213 384.26,-213 384.26,-219 378.26,-225 372.26,-225"/>
<text xml:space="preserve" text-anchor="middle" x="331.77" y="-202.55" font-family="Helvetica,sans-Serif" font-size="11.00" fill="#134e4a">Bias and Fairness</text>
</g>
<!-- ai:ai&#45;safety&#45;alignment&#45;and&#45;governance&#45;&gt;ai:bias&#45;and&#45;fairness -->
<g id="edge5" class="edge">
<title>ai:ai&#45;safety&#45;alignment&#45;and&#45;governance&#45;&gt;ai:bias&#45;and&#45;fairness</title>
<path fill="none" stroke="#94a3b8" d="M168.48,-227.46C202.09,-223.22 240.09,-218.43 270.87,-214.55"/>
<polygon fill="#94a3b8" stroke="#94a3b8" points="270.8,-217.03 277.43,-213.73 270.18,-212.17 270.8,-217.03"/>
</g>
<!-- ai:privacy&#45;and&#45;security -->
<g id="node7" class="node">
<title>ai:privacy&#45;and&#45;security</title>
<path fill="#f0fdfa" stroke="#5eead4" stroke-width="1.1" d="M378.26,-162C378.26,-162 285.29,-162 285.29,-162 279.29,-162 273.29,-156 273.29,-150 273.29,-150 273.29,-138 273.29,-138 273.29,-132 279.29,-126 285.29,-126 285.29,-126 378.26,-126 378.26,-126 384.26,-126 390.26,-132 390.26,-138 390.26,-138 390.26,-150 390.26,-150 390.26,-156 384.26,-162 378.26,-162"/>
<text xml:space="preserve" text-anchor="middle" x="331.77" y="-139.55" font-family="Helvetica,sans-Serif" font-size="11.00" fill="#134e4a">Privacy and Security</text>
</g>
<!-- ai:ai&#45;safety&#45;alignment&#45;and&#45;governance&#45;&gt;ai:privacy&#45;and&#45;security -->
<g id="edge6" class="edge">
<title>ai:ai&#45;safety&#45;alignment&#45;and&#45;governance&#45;&gt;ai:privacy&#45;and&#45;security</title>
<path fill="none" stroke="#94a3b8" d="M143.17,-215.72C182.97,-200.5 235.43,-180.45 274.75,-165.42"/>
<polygon fill="#94a3b8" stroke="#94a3b8" points="275.35,-167.81 281.01,-163.02 273.6,-163.23 275.35,-167.81"/>
</g>
<!-- ai:misuse&#45;prevention -->
<g id="node8" class="node">
<title>ai:misuse&#45;prevention</title>
<path fill="#f0fdfa" stroke="#5eead4" stroke-width="1.1" d="M373.38,-99C373.38,-99 290.16,-99 290.16,-99 284.16,-99 278.16,-93 278.16,-87 278.16,-87 278.16,-75 278.16,-75 278.16,-69 284.16,-63 290.16,-63 290.16,-63 373.38,-63 373.38,-63 379.38,-63 385.38,-69 385.38,-75 385.38,-75 385.38,-87 385.38,-87 385.38,-93 379.38,-99 373.38,-99"/>
<text xml:space="preserve" text-anchor="middle" x="331.77" y="-76.55" font-family="Helvetica,sans-Serif" font-size="11.00" fill="#134e4a">Misuse Prevention</text>
</g>
<!-- ai:ai&#45;safety&#45;alignment&#45;and&#45;governance&#45;&gt;ai:misuse&#45;prevention -->
<g id="edge7" class="edge">
<title>ai:ai&#45;safety&#45;alignment&#45;and&#45;governance&#45;&gt;ai:misuse&#45;prevention</title>
<path fill="none" stroke="#94a3b8" d="M109.85,-215.82C141.09,-188.88 197.07,-143.27 250.79,-113 257.2,-109.39 264.1,-105.98 271.07,-102.84"/>
<polygon fill="#94a3b8" stroke="#94a3b8" points="271.82,-105.18 277.25,-100.13 269.85,-100.69 271.82,-105.18"/>
</g>
<!-- ai:governance&#45;and&#45;policy -->
<g id="node9" class="node">
<title>ai:governance&#45;and&#45;policy</title>
<path fill="#f0fdfa" stroke="#5eead4" stroke-width="1.1" d="M384.63,-36C384.63,-36 278.91,-36 278.91,-36 272.91,-36 266.91,-30 266.91,-24 266.91,-24 266.91,-12 266.91,-12 266.91,-6 272.91,0 278.91,0 278.91,0 384.63,0 384.63,0 390.63,0 396.63,-6 396.63,-12 396.63,-12 396.63,-24 396.63,-24 396.63,-30 390.63,-36 384.63,-36"/>
<text xml:space="preserve" text-anchor="middle" x="331.77" y="-13.55" font-family="Helvetica,sans-Serif" font-size="11.00" fill="#134e4a">Governance and Policy</text>
</g>
<!-- ai:ai&#45;safety&#45;alignment&#45;and&#45;governance&#45;&gt;ai:governance&#45;and&#45;policy -->
<g id="edge8" class="edge">
<title>ai:ai&#45;safety&#45;alignment&#45;and&#45;governance&#45;&gt;ai:governance&#45;and&#45;policy</title>
<path fill="none" stroke="#94a3b8" d="M99.22,-215.85C125.17,-177.29 183.55,-97.41 250.79,-50 255.95,-46.36 261.58,-43.06 267.38,-40.07"/>
<polygon fill="#94a3b8" stroke="#94a3b8" points="268.23,-42.38 273.45,-37.12 266.08,-37.98 268.23,-42.38"/>
</g>
</g>
</svg>
