<?xml version="1.0" encoding="UTF-8" standalone="no"?>
<!DOCTYPE svg PUBLIC "-//W3C//DTD SVG 1.1//EN"
 "http://www.w3.org/Graphics/SVG/1.1/DTD/svg11.dtd">
<!-- Generated by graphviz version 15.0.0 (20260523.1842)
 -->
<!-- Title: AIAtlasSection_computer_vision_and_perception Pages: 1 -->
<svg width="392pt" height="513pt"
 viewBox="0.00 0.00 392.00 513.00" xmlns="http://www.w3.org/2000/svg" xmlns:xlink="http://www.w3.org/1999/xlink">
<g id="graph0" class="graph" transform="scale(1 1) rotate(0) translate(18 495.48)">
<title>AIAtlasSection_computer_vision_and_perception</title>
<polygon fill="#ffffff" stroke="none" points="-18,18 -18,-495.48 373.76,-495.48 373.76,18 -18,18"/>
<!-- ai:computer&#45;vision&#45;and&#45;perception -->
<g id="node1" class="node">
<title>ai:computer&#45;vision&#45;and&#45;perception</title>
<path fill="#ccfbf1" stroke="#0f766e" stroke-width="1.8" d="M135.54,-259.9C135.54,-259.9 12,-259.9 12,-259.9 6,-259.9 0,-253.9 0,-247.9 0,-247.9 0,-229.06 0,-229.06 0,-223.06 6,-217.06 12,-217.06 12,-217.06 135.54,-217.06 135.54,-217.06 141.54,-217.06 147.54,-223.06 147.54,-229.06 147.54,-229.06 147.54,-247.9 147.54,-247.9 147.54,-253.9 141.54,-259.9 135.54,-259.9"/>
<text xml:space="preserve" text-anchor="middle" x="73.77" y="-239.63" font-family="Helvetica,sans-Serif" font-size="13.00" fill="#134e4a">Computer Vision and</text>
<text xml:space="preserve" text-anchor="middle" x="73.77" y="-226.13" font-family="Helvetica,sans-Serif" font-size="13.00" fill="#134e4a">Perception</text>
</g>
<!-- ai:image&#45;classification -->
<g id="node2" class="node">
<title>ai:image&#45;classification</title>
<path fill="#f0fdfa" stroke="#5eead4" stroke-width="1.1" d="M338.51,-477.48C338.51,-477.48 247.79,-477.48 247.79,-477.48 241.79,-477.48 235.79,-471.48 235.79,-465.48 235.79,-465.48 235.79,-453.48 235.79,-453.48 235.79,-447.48 241.79,-441.48 247.79,-441.48 247.79,-441.48 338.51,-441.48 338.51,-441.48 344.51,-441.48 350.51,-447.48 350.51,-453.48 350.51,-453.48 350.51,-465.48 350.51,-465.48 350.51,-471.48 344.51,-477.48 338.51,-477.48"/>
<text xml:space="preserve" text-anchor="middle" x="293.15" y="-455.03" font-family="Helvetica,sans-Serif" font-size="11.00" fill="#134e4a">Image Classification</text>
</g>
<!-- ai:computer&#45;vision&#45;and&#45;perception&#45;&gt;ai:image&#45;classification -->
<g id="edge1" class="edge">
<title>ai:computer&#45;vision&#45;and&#45;perception&#45;&gt;ai:image&#45;classification</title>
<path fill="none" stroke="#94a3b8" d="M88.46,-260.66C112.99,-298.97 167.77,-378.23 230.54,-428.48 234.25,-431.45 238.3,-434.25 242.48,-436.85"/>
<polygon fill="#94a3b8" stroke="#94a3b8" points="241.03,-438.84 248.31,-440.28 243.52,-434.62 241.03,-438.84"/>
</g>
<!-- ai:object&#45;detection -->
<g id="node3" class="node">
<title>ai:object&#45;detection</title>
<path fill="#f0fdfa" stroke="#5eead4" stroke-width="1.1" d="M330.26,-414.48C330.26,-414.48 256.04,-414.48 256.04,-414.48 250.04,-414.48 244.04,-408.48 244.04,-402.48 244.04,-402.48 244.04,-390.48 244.04,-390.48 244.04,-384.48 250.04,-378.48 256.04,-378.48 256.04,-378.48 330.26,-378.48 330.26,-378.48 336.26,-378.48 342.26,-384.48 342.26,-390.48 342.26,-390.48 342.26,-402.48 342.26,-402.48 342.26,-408.48 336.26,-414.48 330.26,-414.48"/>
<text xml:space="preserve" text-anchor="middle" x="293.15" y="-392.03" font-family="Helvetica,sans-Serif" font-size="11.00" fill="#134e4a">Object Detection</text>
</g>
<!-- ai:computer&#45;vision&#45;and&#45;perception&#45;&gt;ai:object&#45;detection -->
<g id="edge2" class="edge">
<title>ai:computer&#45;vision&#45;and&#45;perception&#45;&gt;ai:object&#45;detection</title>
<path fill="none" stroke="#94a3b8" d="M98.58,-260.69C128.1,-287.53 180.62,-333.12 230.54,-365.48 235.13,-368.46 240.04,-371.36 245.02,-374.11"/>
<polygon fill="#94a3b8" stroke="#94a3b8" points="243.67,-376.17 250.99,-377.33 245.99,-371.85 243.67,-376.17"/>
</g>
<!-- ai:image&#45;segmentation -->
<g id="node4" class="node">
<title>ai:image&#45;segmentation</title>
<path fill="#f0fdfa" stroke="#5eead4" stroke-width="1.1" d="M340.38,-351.48C340.38,-351.48 245.91,-351.48 245.91,-351.48 239.91,-351.48 233.91,-345.48 233.91,-339.48 233.91,-339.48 233.91,-327.48 233.91,-327.48 233.91,-321.48 239.91,-315.48 245.91,-315.48 245.91,-315.48 340.38,-315.48 340.38,-315.48 346.38,-315.48 352.38,-321.48 352.38,-327.48 352.38,-327.48 352.38,-339.48 352.38,-339.48 352.38,-345.48 346.38,-351.48 340.38,-351.48"/>
<text xml:space="preserve" text-anchor="middle" x="293.15" y="-329.03" font-family="Helvetica,sans-Serif" font-size="11.00" fill="#134e4a">Image Segmentation</text>
</g>
<!-- ai:computer&#45;vision&#45;and&#45;perception&#45;&gt;ai:image&#45;segmentation -->
<g id="edge3" class="edge">
<title>ai:computer&#45;vision&#45;and&#45;perception&#45;&gt;ai:image&#45;segmentation</title>
<path fill="none" stroke="#94a3b8" d="M125.74,-260.75C160.85,-276.1 207.29,-296.4 242.19,-311.65"/>
<polygon fill="#94a3b8" stroke="#94a3b8" points="241.12,-313.85 248.51,-314.41 243.08,-309.36 241.12,-313.85"/>
</g>
<!-- ai:video&#45;understanding -->
<g id="node5" class="node">
<title>ai:video&#45;understanding</title>
<path fill="#f0fdfa" stroke="#5eead4" stroke-width="1.1" d="M341.13,-288.48C341.13,-288.48 245.16,-288.48 245.16,-288.48 239.16,-288.48 233.16,-282.48 233.16,-276.48 233.16,-276.48 233.16,-264.48 233.16,-264.48 233.16,-258.48 239.16,-252.48 245.16,-252.48 245.16,-252.48 341.13,-252.48 341.13,-252.48 347.13,-252.48 353.13,-258.48 353.13,-264.48 353.13,-264.48 353.13,-276.48 353.13,-276.48 353.13,-282.48 347.13,-288.48 341.13,-288.48"/>
<text xml:space="preserve" text-anchor="middle" x="293.15" y="-266.03" font-family="Helvetica,sans-Serif" font-size="11.00" fill="#134e4a">Video Understanding</text>
</g>
<!-- ai:computer&#45;vision&#45;and&#45;perception&#45;&gt;ai:video&#45;understanding -->
<g id="edge4" class="edge">
<title>ai:computer&#45;vision&#45;and&#45;perception&#45;&gt;ai:video&#45;understanding</title>
<path fill="none" stroke="#94a3b8" d="M148.36,-249.31C172.94,-252.93 200.19,-256.94 224.3,-260.49"/>
<polygon fill="#94a3b8" stroke="#94a3b8" points="223.91,-262.91 231.19,-261.51 224.62,-258.06 223.91,-262.91"/>
</g>
<!-- ai:3d&#45;vision -->
<g id="node6" class="node">
<title>ai:3d&#45;vision</title>
<path fill="#f0fdfa" stroke="#5eead4" stroke-width="1.1" d="M313.76,-225.48C313.76,-225.48 272.54,-225.48 272.54,-225.48 266.54,-225.48 260.54,-219.48 260.54,-213.48 260.54,-213.48 260.54,-201.48 260.54,-201.48 260.54,-195.48 266.54,-189.48 272.54,-189.48 272.54,-189.48 313.76,-189.48 313.76,-189.48 319.76,-189.48 325.76,-195.48 325.76,-201.48 325.76,-201.48 325.76,-213.48 325.76,-213.48 325.76,-219.48 319.76,-225.48 313.76,-225.48"/>
<text xml:space="preserve" text-anchor="middle" x="293.15" y="-203.03" font-family="Helvetica,sans-Serif" font-size="11.00" fill="#134e4a">3D Vision</text>
</g>
<!-- ai:computer&#45;vision&#45;and&#45;perception&#45;&gt;ai:3d&#45;vision -->
<g id="edge5" class="edge">
<title>ai:computer&#45;vision&#45;and&#45;perception&#45;&gt;ai:3d&#45;vision</title>
<path fill="none" stroke="#94a3b8" d="M148.36,-227.98C183.01,-223.04 222.97,-217.35 251.96,-213.21"/>
<polygon fill="#94a3b8" stroke="#94a3b8" points="252.13,-215.66 258.72,-212.25 251.44,-210.81 252.13,-215.66"/>
</g>
<!-- ai:multimodal&#45;perception -->
<g id="node7" class="node">
<title>ai:multimodal&#45;perception</title>
<path fill="#f0fdfa" stroke="#5eead4" stroke-width="1.1" d="M343.76,-162.48C343.76,-162.48 242.54,-162.48 242.54,-162.48 236.54,-162.48 230.54,-156.48 230.54,-150.48 230.54,-150.48 230.54,-138.48 230.54,-138.48 230.54,-132.48 236.54,-126.48 242.54,-126.48 242.54,-126.48 343.76,-126.48 343.76,-126.48 349.76,-126.48 355.76,-132.48 355.76,-138.48 355.76,-138.48 355.76,-150.48 355.76,-150.48 355.76,-156.48 349.76,-162.48 343.76,-162.48"/>
<text xml:space="preserve" text-anchor="middle" x="293.15" y="-140.03" font-family="Helvetica,sans-Serif" font-size="11.00" fill="#134e4a">Multimodal Perception</text>
</g>
<!-- ai:computer&#45;vision&#45;and&#45;perception&#45;&gt;ai:multimodal&#45;perception -->
<g id="edge6" class="edge">
<title>ai:computer&#45;vision&#45;and&#45;perception&#45;&gt;ai:multimodal&#45;perception</title>
<path fill="none" stroke="#94a3b8" d="M126.29,-216.2C161.19,-201.11 207.08,-181.27 241.74,-166.28"/>
<polygon fill="#94a3b8" stroke="#94a3b8" points="242.57,-168.59 248.02,-163.56 240.62,-164.09 242.57,-168.59"/>
</g>
<!-- ai:scene&#45;understanding -->
<g id="node8" class="node">
<title>ai:scene&#45;understanding</title>
<path fill="#f0fdfa" stroke="#5eead4" stroke-width="1.1" d="M342.63,-99.48C342.63,-99.48 243.66,-99.48 243.66,-99.48 237.66,-99.48 231.66,-93.48 231.66,-87.48 231.66,-87.48 231.66,-75.48 231.66,-75.48 231.66,-69.48 237.66,-63.48 243.66,-63.48 243.66,-63.48 342.63,-63.48 342.63,-63.48 348.63,-63.48 354.63,-69.48 354.63,-75.48 354.63,-75.48 354.63,-87.48 354.63,-87.48 354.63,-93.48 348.63,-99.48 342.63,-99.48"/>
<text xml:space="preserve" text-anchor="middle" x="293.15" y="-77.03" font-family="Helvetica,sans-Serif" font-size="11.00" fill="#134e4a">Scene Understanding</text>
</g>
<!-- ai:computer&#45;vision&#45;and&#45;perception&#45;&gt;ai:scene&#45;understanding -->
<g id="edge7" class="edge">
<title>ai:computer&#45;vision&#45;and&#45;perception&#45;&gt;ai:scene&#45;understanding</title>
<path fill="none" stroke="#94a3b8" d="M99.24,-216.3C128.98,-189.97 181.3,-145.57 230.54,-113.48 235.54,-110.22 240.91,-107.03 246.32,-103.99"/>
<polygon fill="#94a3b8" stroke="#94a3b8" points="247.39,-106.2 252.36,-100.69 245.04,-101.9 247.39,-106.2"/>
</g>
<!-- ai:optical&#45;character&#45;recognition -->
<g id="node9" class="node">
<title>ai:optical&#45;character&#45;recognition</title>
<path fill="#f0fdfa" stroke="#5eead4" stroke-width="1.1" d="M332.51,-36.96C332.51,-36.96 253.79,-36.96 253.79,-36.96 247.79,-36.96 241.79,-30.96 241.79,-24.96 241.79,-24.96 241.79,-12 241.79,-12 241.79,-6 247.79,0 253.79,0 253.79,0 332.51,0 332.51,0 338.51,0 344.51,-6 344.51,-12 344.51,-12 344.51,-24.96 344.51,-24.96 344.51,-30.96 338.51,-36.96 332.51,-36.96"/>
<text xml:space="preserve" text-anchor="middle" x="293.15" y="-20.03" font-family="Helvetica,sans-Serif" font-size="11.00" fill="#134e4a">Optical Character</text>
<text xml:space="preserve" text-anchor="middle" x="293.15" y="-8.03" font-family="Helvetica,sans-Serif" font-size="11.00" fill="#134e4a">Recognition</text>
</g>
<!-- ai:computer&#45;vision&#45;and&#45;perception&#45;&gt;ai:optical&#45;character&#45;recognition -->
<g id="edge8" class="edge">
<title>ai:computer&#45;vision&#45;and&#45;perception&#45;&gt;ai:optical&#45;character&#45;recognition</title>
<path fill="none" stroke="#94a3b8" d="M88.78,-216.33C113.59,-178.45 168.53,-100.52 230.54,-50.48 234.33,-47.43 238.45,-44.54 242.71,-41.84"/>
<polygon fill="#94a3b8" stroke="#94a3b8" points="243.93,-43.97 248.68,-38.27 241.41,-39.76 243.93,-43.97"/>
</g>
</g>
</svg>
