<?xml version="1.0" encoding="UTF-8" standalone="no"?>
<!DOCTYPE svg PUBLIC "-//W3C//DTD SVG 1.1//EN"
 "http://www.w3.org/Graphics/SVG/1.1/DTD/svg11.dtd">
<!-- Generated by graphviz version 15.0.0 (20260523.1842)
 -->
<!-- Title: AIAtlasSection_foundation_models_and_general_purpose_ai Pages: 1 -->
<svg width="447pt" height="513pt"
 viewBox="0.00 0.00 447.00 513.00" xmlns="http://www.w3.org/2000/svg" xmlns:xlink="http://www.w3.org/1999/xlink">
<g id="graph0" class="graph" transform="scale(1 1) rotate(0) translate(18 495)">
<title>AIAtlasSection_foundation_models_and_general_purpose_ai</title>
<polygon fill="#ffffff" stroke="none" points="-18,18 -18,-495 429.26,-495 429.26,18 -18,18"/>
<!-- ai:foundation&#45;models&#45;and&#45;general&#45;purpose&#45;ai -->
<g id="node1" class="node">
<title>ai:foundation&#45;models&#45;and&#45;general&#45;purpose&#45;ai</title>
<path fill="#ccfbf1" stroke="#0f766e" stroke-width="1.8" d="M151.29,-259.42C151.29,-259.42 12,-259.42 12,-259.42 6,-259.42 0,-253.42 0,-247.42 0,-247.42 0,-228.58 0,-228.58 0,-222.58 6,-216.58 12,-216.58 12,-216.58 151.29,-216.58 151.29,-216.58 157.29,-216.58 163.29,-222.58 163.29,-228.58 163.29,-228.58 163.29,-247.42 163.29,-247.42 163.29,-253.42 157.29,-259.42 151.29,-259.42"/>
<text xml:space="preserve" text-anchor="middle" x="81.64" y="-239.15" font-family="Helvetica,sans-Serif" font-size="13.00" fill="#134e4a">Foundation Models and</text>
<text xml:space="preserve" text-anchor="middle" x="81.64" y="-225.65" font-family="Helvetica,sans-Serif" font-size="13.00" fill="#134e4a">General&#45;Purpose AI</text>
</g>
<!-- ai:large&#45;language&#45;models -->
<g id="node2" class="node">
<title>ai:large&#45;language&#45;models</title>
<path fill="#f0fdfa" stroke="#5eead4" stroke-width="1.1" d="M384.26,-477C384.26,-477 273.29,-477 273.29,-477 267.29,-477 261.29,-471 261.29,-465 261.29,-465 261.29,-453 261.29,-453 261.29,-447 267.29,-441 273.29,-441 273.29,-441 384.26,-441 384.26,-441 390.26,-441 396.26,-447 396.26,-453 396.26,-453 396.26,-465 396.26,-465 396.26,-471 390.26,-477 384.26,-477"/>
<text xml:space="preserve" text-anchor="middle" x="328.77" y="-454.55" font-family="Helvetica,sans-Serif" font-size="11.00" fill="#134e4a">Large Language Models</text>
</g>
<!-- ai:foundation&#45;models&#45;and&#45;general&#45;purpose&#45;ai&#45;&gt;ai:large&#45;language&#45;models -->
<g id="edge1" class="edge">
<title>ai:foundation&#45;models&#45;and&#45;general&#45;purpose&#45;ai&#45;&gt;ai:large&#45;language&#45;models</title>
<path fill="none" stroke="#94a3b8" d="M96.36,-260.21C121.53,-299.28 178.75,-380.63 246.29,-428 250.87,-431.21 255.82,-434.14 260.95,-436.81"/>
<polygon fill="#94a3b8" stroke="#94a3b8" points="259.84,-438.99 267.2,-439.85 261.98,-434.58 259.84,-438.99"/>
</g>
<!-- ai:vision&#45;foundation&#45;models -->
<g id="node3" class="node">
<title>ai:vision&#45;foundation&#45;models</title>
<path fill="#f0fdfa" stroke="#5eead4" stroke-width="1.1" d="M388.01,-414C388.01,-414 269.54,-414 269.54,-414 263.54,-414 257.54,-408 257.54,-402 257.54,-402 257.54,-390 257.54,-390 257.54,-384 263.54,-378 269.54,-378 269.54,-378 388.01,-378 388.01,-378 394.01,-378 400.01,-384 400.01,-390 400.01,-390 400.01,-402 400.01,-402 400.01,-408 394.01,-414 388.01,-414"/>
<text xml:space="preserve" text-anchor="middle" x="328.77" y="-391.55" font-family="Helvetica,sans-Serif" font-size="11.00" fill="#134e4a">Vision Foundation Models</text>
</g>
<!-- ai:foundation&#45;models&#45;and&#45;general&#45;purpose&#45;ai&#45;&gt;ai:vision&#45;foundation&#45;models -->
<g id="edge2" class="edge">
<title>ai:foundation&#45;models&#45;and&#45;general&#45;purpose&#45;ai&#45;&gt;ai:vision&#45;foundation&#45;models</title>
<path fill="none" stroke="#94a3b8" d="M106.52,-260.26C137.03,-287.79 192.36,-334.71 246.29,-365 252.17,-368.3 258.47,-371.4 264.87,-374.25"/>
<polygon fill="#94a3b8" stroke="#94a3b8" points="263.62,-376.38 271.02,-376.89 265.56,-371.88 263.62,-376.38"/>
</g>
<!-- ai:multimodal&#45;foundation&#45;models -->
<g id="node4" class="node">
<title>ai:multimodal&#45;foundation&#45;models</title>
<path fill="#f0fdfa" stroke="#5eead4" stroke-width="1.1" d="M399.26,-351C399.26,-351 258.29,-351 258.29,-351 252.29,-351 246.29,-345 246.29,-339 246.29,-339 246.29,-327 246.29,-327 246.29,-321 252.29,-315 258.29,-315 258.29,-315 399.26,-315 399.26,-315 405.26,-315 411.26,-321 411.26,-327 411.26,-327 411.26,-339 411.26,-339 411.26,-345 405.26,-351 399.26,-351"/>
<text xml:space="preserve" text-anchor="middle" x="328.77" y="-328.55" font-family="Helvetica,sans-Serif" font-size="11.00" fill="#134e4a">Multimodal Foundation Models</text>
</g>
<!-- ai:foundation&#45;models&#45;and&#45;general&#45;purpose&#45;ai&#45;&gt;ai:multimodal&#45;foundation&#45;models -->
<g id="edge3" class="edge">
<title>ai:foundation&#45;models&#45;and&#45;general&#45;purpose&#45;ai&#45;&gt;ai:multimodal&#45;foundation&#45;models</title>
<path fill="none" stroke="#94a3b8" d="M139.02,-260.2C170.54,-272.57 210.57,-288.22 246.29,-302 254.32,-305.1 262.79,-308.35 271.13,-311.53"/>
<polygon fill="#94a3b8" stroke="#94a3b8" points="270.23,-313.81 277.64,-314.01 271.98,-309.23 270.23,-313.81"/>
</g>
<!-- ai:audio&#45;foundation&#45;models -->
<g id="node5" class="node">
<title>ai:audio&#45;foundation&#45;models</title>
<path fill="#f0fdfa" stroke="#5eead4" stroke-width="1.1" d="M387.26,-288C387.26,-288 270.29,-288 270.29,-288 264.29,-288 258.29,-282 258.29,-276 258.29,-276 258.29,-264 258.29,-264 258.29,-258 264.29,-252 270.29,-252 270.29,-252 387.26,-252 387.26,-252 393.26,-252 399.26,-258 399.26,-264 399.26,-264 399.26,-276 399.26,-276 399.26,-282 393.26,-288 387.26,-288"/>
<text xml:space="preserve" text-anchor="middle" x="328.77" y="-265.55" font-family="Helvetica,sans-Serif" font-size="11.00" fill="#134e4a">Audio Foundation Models</text>
</g>
<!-- ai:foundation&#45;models&#45;and&#45;general&#45;purpose&#45;ai&#45;&gt;ai:audio&#45;foundation&#45;models -->
<g id="edge4" class="edge">
<title>ai:foundation&#45;models&#45;and&#45;general&#45;purpose&#45;ai&#45;&gt;ai:audio&#45;foundation&#45;models</title>
<path fill="none" stroke="#94a3b8" d="M163.93,-248.61C191.46,-252.21 222.14,-256.21 249.44,-259.77"/>
<polygon fill="#94a3b8" stroke="#94a3b8" points="249.04,-262.19 256.3,-260.67 249.67,-257.33 249.04,-262.19"/>
</g>
<!-- ai:video&#45;foundation&#45;models -->
<g id="node6" class="node">
<title>ai:video&#45;foundation&#45;models</title>
<path fill="#f0fdfa" stroke="#5eead4" stroke-width="1.1" d="M387.26,-225C387.26,-225 270.29,-225 270.29,-225 264.29,-225 258.29,-219 258.29,-213 258.29,-213 258.29,-201 258.29,-201 258.29,-195 264.29,-189 270.29,-189 270.29,-189 387.26,-189 387.26,-189 393.26,-189 399.26,-195 399.26,-201 399.26,-201 399.26,-213 399.26,-213 399.26,-219 393.26,-225 387.26,-225"/>
<text xml:space="preserve" text-anchor="middle" x="328.77" y="-202.55" font-family="Helvetica,sans-Serif" font-size="11.00" fill="#134e4a">Video Foundation Models</text>
</g>
<!-- ai:foundation&#45;models&#45;and&#45;general&#45;purpose&#45;ai&#45;&gt;ai:video&#45;foundation&#45;models -->
<g id="edge5" class="edge">
<title>ai:foundation&#45;models&#45;and&#45;general&#45;purpose&#45;ai&#45;&gt;ai:video&#45;foundation&#45;models</title>
<path fill="none" stroke="#94a3b8" d="M163.93,-227.72C191.46,-224.24 222.14,-220.36 249.44,-216.91"/>
<polygon fill="#94a3b8" stroke="#94a3b8" points="249.66,-219.35 256.3,-216.04 249.04,-214.49 249.66,-219.35"/>
</g>
<!-- ai:code&#45;foundation&#45;models -->
<g id="node7" class="node">
<title>ai:code&#45;foundation&#45;models</title>
<path fill="#f0fdfa" stroke="#5eead4" stroke-width="1.1" d="M386.51,-162C386.51,-162 271.04,-162 271.04,-162 265.04,-162 259.04,-156 259.04,-150 259.04,-150 259.04,-138 259.04,-138 259.04,-132 265.04,-126 271.04,-126 271.04,-126 386.51,-126 386.51,-126 392.51,-126 398.51,-132 398.51,-138 398.51,-138 398.51,-150 398.51,-150 398.51,-156 392.51,-162 386.51,-162"/>
<text xml:space="preserve" text-anchor="middle" x="328.77" y="-139.55" font-family="Helvetica,sans-Serif" font-size="11.00" fill="#134e4a">Code Foundation Models</text>
</g>
<!-- ai:foundation&#45;models&#45;and&#45;general&#45;purpose&#45;ai&#45;&gt;ai:code&#45;foundation&#45;models -->
<g id="edge6" class="edge">
<title>ai:foundation&#45;models&#45;and&#45;general&#45;purpose&#45;ai&#45;&gt;ai:code&#45;foundation&#45;models</title>
<path fill="none" stroke="#94a3b8" d="M140.74,-215.72C180.42,-200.5 232.72,-180.45 271.92,-165.42"/>
<polygon fill="#94a3b8" stroke="#94a3b8" points="272.5,-167.82 278.16,-163.02 270.75,-163.24 272.5,-167.82"/>
</g>
<!-- ai:scientific&#45;foundation&#45;models -->
<g id="node8" class="node">
<title>ai:scientific&#45;foundation&#45;models</title>
<path fill="#f0fdfa" stroke="#5eead4" stroke-width="1.1" d="M394.76,-99C394.76,-99 262.79,-99 262.79,-99 256.79,-99 250.79,-93 250.79,-87 250.79,-87 250.79,-75 250.79,-75 250.79,-69 256.79,-63 262.79,-63 262.79,-63 394.76,-63 394.76,-63 400.76,-63 406.76,-69 406.76,-75 406.76,-75 406.76,-87 406.76,-87 406.76,-93 400.76,-99 394.76,-99"/>
<text xml:space="preserve" text-anchor="middle" x="328.77" y="-76.55" font-family="Helvetica,sans-Serif" font-size="11.00" fill="#134e4a">Scientific Foundation Models</text>
</g>
<!-- ai:foundation&#45;models&#45;and&#45;general&#45;purpose&#45;ai&#45;&gt;ai:scientific&#45;foundation&#45;models -->
<g id="edge7" class="edge">
<title>ai:foundation&#45;models&#45;and&#45;general&#45;purpose&#45;ai&#45;&gt;ai:scientific&#45;foundation&#45;models</title>
<path fill="none" stroke="#94a3b8" d="M107.17,-215.74C137.91,-188.71 193.03,-143.02 246.29,-113 252.8,-109.33 259.83,-105.89 266.92,-102.72"/>
<polygon fill="#94a3b8" stroke="#94a3b8" points="267.77,-105.02 273.23,-100 265.83,-100.52 267.77,-105.02"/>
</g>
<!-- ai:world&#45;models -->
<g id="node9" class="node">
<title>ai:world&#45;models</title>
<path fill="#f0fdfa" stroke="#5eead4" stroke-width="1.1" d="M359.13,-36C359.13,-36 298.41,-36 298.41,-36 292.41,-36 286.41,-30 286.41,-24 286.41,-24 286.41,-12 286.41,-12 286.41,-6 292.41,0 298.41,0 298.41,0 359.13,0 359.13,0 365.13,0 371.13,-6 371.13,-12 371.13,-12 371.13,-24 371.13,-24 371.13,-30 365.13,-36 359.13,-36"/>
<text xml:space="preserve" text-anchor="middle" x="328.77" y="-13.55" font-family="Helvetica,sans-Serif" font-size="11.00" fill="#134e4a">World Models</text>
</g>
<!-- ai:foundation&#45;models&#45;and&#45;general&#45;purpose&#45;ai&#45;&gt;ai:world&#45;models -->
<g id="edge8" class="edge">
<title>ai:foundation&#45;models&#45;and&#45;general&#45;purpose&#45;ai&#45;&gt;ai:world&#45;models</title>
<path fill="none" stroke="#94a3b8" d="M96.67,-215.8C122.11,-177.15 179.46,-97.14 246.29,-50 255.98,-43.17 267.33,-37.53 278.42,-32.99"/>
<polygon fill="#94a3b8" stroke="#94a3b8" points="279,-35.39 284.63,-30.57 277.22,-30.83 279,-35.39"/>
</g>
</g>
</svg>
