<?xml version="1.0" encoding="UTF-8" standalone="no"?>
<!DOCTYPE svg PUBLIC "-//W3C//DTD SVG 1.1//EN"
 "http://www.w3.org/Graphics/SVG/1.1/DTD/svg11.dtd">
<!-- Generated by graphviz version 15.0.0 (20260523.1842)
 -->
<!-- Title: AIAtlasSection_generative_ai Pages: 1 -->
<svg width="368pt" height="513pt"
 viewBox="0.00 0.00 368.00 513.00" xmlns="http://www.w3.org/2000/svg" xmlns:xlink="http://www.w3.org/1999/xlink">
<g id="graph0" class="graph" transform="scale(1 1) rotate(0) translate(18 495)">
<title>AIAtlasSection_generative_ai</title>
<polygon fill="#ffffff" stroke="none" points="-18,18 -18,-495 349.76,-495 349.76,18 -18,18"/>
<!-- ai:generative&#45;ai -->
<g id="node1" class="node">
<title>ai:generative&#45;ai</title>
<path fill="#ccfbf1" stroke="#0f766e" stroke-width="1.8" d="M91.29,-256C91.29,-256 12,-256 12,-256 6,-256 0,-250 0,-244 0,-244 0,-232 0,-232 0,-226 6,-220 12,-220 12,-220 91.29,-220 91.29,-220 97.29,-220 103.29,-226 103.29,-232 103.29,-232 103.29,-244 103.29,-244 103.29,-250 97.29,-256 91.29,-256"/>
<text xml:space="preserve" text-anchor="middle" x="51.64" y="-232.4" font-family="Helvetica,sans-Serif" font-size="13.00" fill="#134e4a">Generative AI</text>
</g>
<!-- ai:text&#45;generation -->
<g id="node2" class="node">
<title>ai:text&#45;generation</title>
<path fill="#f0fdfa" stroke="#5eead4" stroke-width="1.1" d="M294.26,-477C294.26,-477 223.79,-477 223.79,-477 217.79,-477 211.79,-471 211.79,-465 211.79,-465 211.79,-453 211.79,-453 211.79,-447 217.79,-441 223.79,-441 223.79,-441 294.26,-441 294.26,-441 300.26,-441 306.26,-447 306.26,-453 306.26,-453 306.26,-465 306.26,-465 306.26,-471 300.26,-477 294.26,-477"/>
<text xml:space="preserve" text-anchor="middle" x="259.02" y="-454.55" font-family="Helvetica,sans-Serif" font-size="11.00" fill="#134e4a">Text Generation</text>
</g>
<!-- ai:generative&#45;ai&#45;&gt;ai:text&#45;generation -->
<g id="edge1" class="edge">
<title>ai:generative&#45;ai&#45;&gt;ai:text&#45;generation</title>
<path fill="none" stroke="#94a3b8" d="M61.4,-256.77C79.67,-294.11 125.28,-378.38 186.29,-428 191.66,-432.37 197.74,-436.23 204.03,-439.61"/>
<polygon fill="#94a3b8" stroke="#94a3b8" points="202.78,-441.72 210.14,-442.67 204.98,-437.34 202.78,-441.72"/>
</g>
<!-- ai:image&#45;generation -->
<g id="node3" class="node">
<title>ai:image&#45;generation</title>
<path fill="#f0fdfa" stroke="#5eead4" stroke-width="1.1" d="M299.51,-414C299.51,-414 218.54,-414 218.54,-414 212.54,-414 206.54,-408 206.54,-402 206.54,-402 206.54,-390 206.54,-390 206.54,-384 212.54,-378 218.54,-378 218.54,-378 299.51,-378 299.51,-378 305.51,-378 311.51,-384 311.51,-390 311.51,-390 311.51,-402 311.51,-402 311.51,-408 305.51,-414 299.51,-414"/>
<text xml:space="preserve" text-anchor="middle" x="259.02" y="-391.55" font-family="Helvetica,sans-Serif" font-size="11.00" fill="#134e4a">Image Generation</text>
</g>
<!-- ai:generative&#45;ai&#45;&gt;ai:image&#45;generation -->
<g id="edge2" class="edge">
<title>ai:generative&#45;ai&#45;&gt;ai:image&#45;generation</title>
<path fill="none" stroke="#94a3b8" d="M68.28,-256.54C91.68,-283.35 138.22,-333.24 186.29,-365 191.11,-368.19 196.32,-371.17 201.65,-373.94"/>
<polygon fill="#94a3b8" stroke="#94a3b8" points="200.25,-375.98 207.61,-376.89 202.43,-371.59 200.25,-375.98"/>
</g>
<!-- ai:audio&#45;generation -->
<g id="node4" class="node">
<title>ai:audio&#45;generation</title>
<path fill="#f0fdfa" stroke="#5eead4" stroke-width="1.1" d="M298.38,-351C298.38,-351 219.66,-351 219.66,-351 213.66,-351 207.66,-345 207.66,-339 207.66,-339 207.66,-327 207.66,-327 207.66,-321 213.66,-315 219.66,-315 219.66,-315 298.38,-315 298.38,-315 304.38,-315 310.38,-321 310.38,-327 310.38,-327 310.38,-339 310.38,-339 310.38,-345 304.38,-351 298.38,-351"/>
<text xml:space="preserve" text-anchor="middle" x="259.02" y="-328.55" font-family="Helvetica,sans-Serif" font-size="11.00" fill="#134e4a">Audio Generation</text>
</g>
<!-- ai:generative&#45;ai&#45;&gt;ai:audio&#45;generation -->
<g id="edge3" class="edge">
<title>ai:generative&#45;ai&#45;&gt;ai:audio&#45;generation</title>
<path fill="none" stroke="#94a3b8" d="M91.06,-256.88C117.67,-269.84 153.98,-287.29 186.29,-302 193,-305.06 200.09,-308.21 207.11,-311.28"/>
<polygon fill="#94a3b8" stroke="#94a3b8" points="205.88,-313.42 213.27,-313.98 207.84,-308.93 205.88,-313.42"/>
</g>
<!-- ai:video&#45;generation -->
<g id="node5" class="node">
<title>ai:video&#45;generation</title>
<path fill="#f0fdfa" stroke="#5eead4" stroke-width="1.1" d="M298.38,-288C298.38,-288 219.66,-288 219.66,-288 213.66,-288 207.66,-282 207.66,-276 207.66,-276 207.66,-264 207.66,-264 207.66,-258 213.66,-252 219.66,-252 219.66,-252 298.38,-252 298.38,-252 304.38,-252 310.38,-258 310.38,-264 310.38,-264 310.38,-276 310.38,-276 310.38,-282 304.38,-288 298.38,-288"/>
<text xml:space="preserve" text-anchor="middle" x="259.02" y="-265.55" font-family="Helvetica,sans-Serif" font-size="11.00" fill="#134e4a">Video Generation</text>
</g>
<!-- ai:generative&#45;ai&#45;&gt;ai:video&#45;generation -->
<g id="edge4" class="edge">
<title>ai:generative&#45;ai&#45;&gt;ai:video&#45;generation</title>
<path fill="none" stroke="#94a3b8" d="M103.94,-245.99C132.83,-250.49 169.03,-256.13 199.08,-260.82"/>
<polygon fill="#94a3b8" stroke="#94a3b8" points="198.59,-263.22 205.89,-261.88 199.35,-258.38 198.59,-263.22"/>
</g>
<!-- ai:code&#45;generation -->
<g id="node6" class="node">
<title>ai:code&#45;generation</title>
<path fill="#f0fdfa" stroke="#5eead4" stroke-width="1.1" d="M297.63,-225C297.63,-225 220.41,-225 220.41,-225 214.41,-225 208.41,-219 208.41,-213 208.41,-213 208.41,-201 208.41,-201 208.41,-195 214.41,-189 220.41,-189 220.41,-189 297.63,-189 297.63,-189 303.63,-189 309.63,-195 309.63,-201 309.63,-201 309.63,-213 309.63,-213 309.63,-219 303.63,-225 297.63,-225"/>
<text xml:space="preserve" text-anchor="middle" x="259.02" y="-202.55" font-family="Helvetica,sans-Serif" font-size="11.00" fill="#134e4a">Code Generation</text>
</g>
<!-- ai:generative&#45;ai&#45;&gt;ai:code&#45;generation -->
<g id="edge5" class="edge">
<title>ai:generative&#45;ai&#45;&gt;ai:code&#45;generation</title>
<path fill="none" stroke="#94a3b8" d="M103.94,-230.26C133.05,-225.86 169.57,-220.35 199.76,-215.79"/>
<polygon fill="#94a3b8" stroke="#94a3b8" points="200.04,-218.23 206.59,-214.76 199.31,-213.39 200.04,-218.23"/>
</g>
<!-- ai:3d&#45;generation -->
<g id="node7" class="node">
<title>ai:3d&#45;generation</title>
<path fill="#f0fdfa" stroke="#5eead4" stroke-width="1.1" d="M291.63,-162C291.63,-162 226.41,-162 226.41,-162 220.41,-162 214.41,-156 214.41,-150 214.41,-150 214.41,-138 214.41,-138 214.41,-132 220.41,-126 226.41,-126 226.41,-126 291.63,-126 291.63,-126 297.63,-126 303.63,-132 303.63,-138 303.63,-138 303.63,-150 303.63,-150 303.63,-156 297.63,-162 291.63,-162"/>
<text xml:space="preserve" text-anchor="middle" x="259.02" y="-139.55" font-family="Helvetica,sans-Serif" font-size="11.00" fill="#134e4a">3D Generation</text>
</g>
<!-- ai:generative&#45;ai&#45;&gt;ai:3d&#45;generation -->
<g id="edge6" class="edge">
<title>ai:generative&#45;ai&#45;&gt;ai:3d&#45;generation</title>
<path fill="none" stroke="#94a3b8" d="M92.93,-219.12C119.41,-206.76 154.86,-190.3 186.29,-176 193.55,-172.7 201.24,-169.23 208.78,-165.85"/>
<polygon fill="#94a3b8" stroke="#94a3b8" points="209.48,-168.22 214.87,-163.13 207.48,-163.75 209.48,-168.22"/>
</g>
<!-- ai:synthetic&#45;data&#45;generation -->
<g id="node8" class="node">
<title>ai:synthetic&#45;data&#45;generation</title>
<path fill="#f0fdfa" stroke="#5eead4" stroke-width="1.1" d="M319.76,-99C319.76,-99 198.29,-99 198.29,-99 192.29,-99 186.29,-93 186.29,-87 186.29,-87 186.29,-75 186.29,-75 186.29,-69 192.29,-63 198.29,-63 198.29,-63 319.76,-63 319.76,-63 325.76,-63 331.76,-69 331.76,-75 331.76,-75 331.76,-87 331.76,-87 331.76,-93 325.76,-99 319.76,-99"/>
<text xml:space="preserve" text-anchor="middle" x="259.02" y="-76.55" font-family="Helvetica,sans-Serif" font-size="11.00" fill="#134e4a">Synthetic Data Generation</text>
</g>
<!-- ai:generative&#45;ai&#45;&gt;ai:synthetic&#45;data&#45;generation -->
<g id="edge7" class="edge">
<title>ai:generative&#45;ai&#45;&gt;ai:synthetic&#45;data&#45;generation</title>
<path fill="none" stroke="#94a3b8" d="M68.78,-219.41C92.44,-193.03 138.9,-144.44 186.29,-113 191.56,-109.5 197.28,-106.22 203.11,-103.19"/>
<polygon fill="#94a3b8" stroke="#94a3b8" points="204,-105.48 209.17,-100.17 201.82,-101.1 204,-105.48"/>
</g>
<!-- ai:generative&#45;modeling -->
<g id="node9" class="node">
<title>ai:generative&#45;modeling</title>
<path fill="#f0fdfa" stroke="#5eead4" stroke-width="1.1" d="M305.88,-36C305.88,-36 212.16,-36 212.16,-36 206.16,-36 200.16,-30 200.16,-24 200.16,-24 200.16,-12 200.16,-12 200.16,-6 206.16,0 212.16,0 212.16,0 305.88,0 305.88,0 311.88,0 317.88,-6 317.88,-12 317.88,-12 317.88,-24 317.88,-24 317.88,-30 311.88,-36 305.88,-36"/>
<text xml:space="preserve" text-anchor="middle" x="259.02" y="-13.55" font-family="Helvetica,sans-Serif" font-size="11.00" fill="#134e4a">Generative Modeling</text>
</g>
<!-- ai:generative&#45;ai&#45;&gt;ai:generative&#45;modeling -->
<g id="edge8" class="edge">
<title>ai:generative&#45;ai&#45;&gt;ai:generative&#45;modeling</title>
<path fill="none" stroke="#94a3b8" d="M61.65,-219.21C80.19,-182.23 126.03,-99.35 186.29,-50 190.54,-46.52 195.24,-43.34 200.12,-40.45"/>
<polygon fill="#94a3b8" stroke="#94a3b8" points="201.13,-42.7 206.07,-37.17 198.76,-38.41 201.13,-42.7"/>
</g>
</g>
</svg>
