<?xml version="1.0" encoding="UTF-8" standalone="no"?>
<!DOCTYPE svg PUBLIC "-//W3C//DTD SVG 1.1//EN"
 "http://www.w3.org/Graphics/SVG/1.1/DTD/svg11.dtd">
<!-- Generated by graphviz version 15.0.0 (20260523.1842)
 -->
<!-- Title: AIAtlasSection_human_ai_interaction Pages: 1 -->
<svg width="430pt" height="513pt"
 viewBox="0.00 0.00 430.00 513.00" xmlns="http://www.w3.org/2000/svg" xmlns:xlink="http://www.w3.org/1999/xlink">
<g id="graph0" class="graph" transform="scale(1 1) rotate(0) translate(18 495)">
<title>AIAtlasSection_human_ai_interaction</title>
<polygon fill="#ffffff" stroke="none" points="-18,18 -18,-495 412.01,-495 412.01,18 -18,18"/>
<!-- ai:human&#45;ai&#45;interaction -->
<g id="node1" class="node">
<title>ai:human&#45;ai&#45;interaction</title>
<path fill="#ccfbf1" stroke="#0f766e" stroke-width="1.8" d="M137.79,-256C137.79,-256 12,-256 12,-256 6,-256 0,-250 0,-244 0,-244 0,-232 0,-232 0,-226 6,-220 12,-220 12,-220 137.79,-220 137.79,-220 143.79,-220 149.79,-226 149.79,-232 149.79,-232 149.79,-244 149.79,-244 149.79,-250 143.79,-256 137.79,-256"/>
<text xml:space="preserve" text-anchor="middle" x="74.89" y="-232.4" font-family="Helvetica,sans-Serif" font-size="13.00" fill="#134e4a">Human&#45;AI Interaction</text>
</g>
<!-- ai:ai&#45;assistants -->
<g id="node2" class="node">
<title>ai:ai&#45;assistants</title>
<path fill="#f0fdfa" stroke="#5eead4" stroke-width="1.1" d="M341.51,-477C341.51,-477 285.29,-477 285.29,-477 279.29,-477 273.29,-471 273.29,-465 273.29,-465 273.29,-453 273.29,-453 273.29,-447 279.29,-441 285.29,-441 285.29,-441 341.51,-441 341.51,-441 347.51,-441 353.51,-447 353.51,-453 353.51,-453 353.51,-465 353.51,-465 353.51,-471 347.51,-477 341.51,-477"/>
<text xml:space="preserve" text-anchor="middle" x="313.4" y="-454.55" font-family="Helvetica,sans-Serif" font-size="11.00" fill="#134e4a">AI Assistants</text>
</g>
<!-- ai:human&#45;ai&#45;interaction&#45;&gt;ai:ai&#45;assistants -->
<g id="edge1" class="edge">
<title>ai:human&#45;ai&#45;interaction&#45;&gt;ai:ai&#45;assistants</title>
<path fill="none" stroke="#94a3b8" d="M86.86,-256.9C109.54,-294.47 165.19,-379.13 232.79,-428 242.56,-435.06 254.14,-440.76 265.41,-445.26"/>
<polygon fill="#94a3b8" stroke="#94a3b8" points="264.3,-447.46 271.72,-447.64 266.04,-442.87 264.3,-447.46"/>
</g>
<!-- ai:recommender&#45;systems -->
<g id="node3" class="node">
<title>ai:recommender&#45;systems</title>
<path fill="#f0fdfa" stroke="#5eead4" stroke-width="1.1" d="M368.51,-414C368.51,-414 258.29,-414 258.29,-414 252.29,-414 246.29,-408 246.29,-402 246.29,-402 246.29,-390 246.29,-390 246.29,-384 252.29,-378 258.29,-378 258.29,-378 368.51,-378 368.51,-378 374.51,-378 380.51,-384 380.51,-390 380.51,-390 380.51,-402 380.51,-402 380.51,-408 374.51,-414 368.51,-414"/>
<text xml:space="preserve" text-anchor="middle" x="313.4" y="-391.55" font-family="Helvetica,sans-Serif" font-size="11.00" fill="#134e4a">Recommender Systems</text>
</g>
<!-- ai:human&#45;ai&#45;interaction&#45;&gt;ai:recommender&#45;systems -->
<g id="edge2" class="edge">
<title>ai:human&#45;ai&#45;interaction&#45;&gt;ai:recommender&#45;systems</title>
<path fill="none" stroke="#94a3b8" d="M94.74,-256.56C122.83,-283.41 178.23,-333.33 232.79,-365 238.38,-368.25 244.38,-371.29 250.48,-374.09"/>
<polygon fill="#94a3b8" stroke="#94a3b8" points="249.46,-376.32 256.85,-376.91 251.44,-371.84 249.46,-376.32"/>
</g>
<!-- ai:human&#45;in&#45;the&#45;loop&#45;ai -->
<g id="node4" class="node">
<title>ai:human&#45;in&#45;the&#45;loop&#45;ai</title>
<path fill="#f0fdfa" stroke="#5eead4" stroke-width="1.1" d="M364.01,-351C364.01,-351 262.79,-351 262.79,-351 256.79,-351 250.79,-345 250.79,-339 250.79,-339 250.79,-327 250.79,-327 250.79,-321 256.79,-315 262.79,-315 262.79,-315 364.01,-315 364.01,-315 370.01,-315 376.01,-321 376.01,-327 376.01,-327 376.01,-339 376.01,-339 376.01,-345 370.01,-351 364.01,-351"/>
<text xml:space="preserve" text-anchor="middle" x="313.4" y="-328.55" font-family="Helvetica,sans-Serif" font-size="11.00" fill="#134e4a">Human&#45;in&#45;the&#45;Loop AI</text>
</g>
<!-- ai:human&#45;ai&#45;interaction&#45;&gt;ai:human&#45;in&#45;the&#45;loop&#45;ai -->
<g id="edge3" class="edge">
<title>ai:human&#45;ai&#45;interaction&#45;&gt;ai:human&#45;in&#45;the&#45;loop&#45;ai</title>
<path fill="none" stroke="#94a3b8" d="M121.47,-256.82C152.74,-269.67 195.22,-287.02 232.79,-302 240.62,-305.12 248.9,-308.39 257.04,-311.57"/>
<polygon fill="#94a3b8" stroke="#94a3b8" points="255.96,-313.78 263.37,-314.05 257.74,-309.22 255.96,-313.78"/>
</g>
<!-- ai:interactive&#45;machine&#45;learning -->
<g id="node5" class="node">
<title>ai:interactive&#45;machine&#45;learning</title>
<path fill="#f0fdfa" stroke="#5eead4" stroke-width="1.1" d="M379.76,-288C379.76,-288 247.04,-288 247.04,-288 241.04,-288 235.04,-282 235.04,-276 235.04,-276 235.04,-264 235.04,-264 235.04,-258 241.04,-252 247.04,-252 247.04,-252 379.76,-252 379.76,-252 385.76,-252 391.76,-258 391.76,-264 391.76,-264 391.76,-276 391.76,-276 391.76,-282 385.76,-288 379.76,-288"/>
<text xml:space="preserve" text-anchor="middle" x="313.4" y="-265.55" font-family="Helvetica,sans-Serif" font-size="11.00" fill="#134e4a">Interactive Machine Learning</text>
</g>
<!-- ai:human&#45;ai&#45;interaction&#45;&gt;ai:interactive&#45;machine&#45;learning -->
<g id="edge4" class="edge">
<title>ai:human&#45;ai&#45;interaction&#45;&gt;ai:interactive&#45;machine&#45;learning</title>
<path fill="none" stroke="#94a3b8" d="M150.4,-248.08C174.49,-251.34 201.39,-254.98 226.25,-258.34"/>
<polygon fill="#94a3b8" stroke="#94a3b8" points="225.83,-260.76 233.09,-259.27 226.49,-255.9 225.83,-260.76"/>
</g>
<!-- ai:personalization -->
<g id="node6" class="node">
<title>ai:personalization</title>
<path fill="#f0fdfa" stroke="#5eead4" stroke-width="1.1" d="M347.51,-225C347.51,-225 279.29,-225 279.29,-225 273.29,-225 267.29,-219 267.29,-213 267.29,-213 267.29,-201 267.29,-201 267.29,-195 273.29,-189 279.29,-189 279.29,-189 347.51,-189 347.51,-189 353.51,-189 359.51,-195 359.51,-201 359.51,-201 359.51,-213 359.51,-213 359.51,-219 353.51,-225 347.51,-225"/>
<text xml:space="preserve" text-anchor="middle" x="313.4" y="-202.55" font-family="Helvetica,sans-Serif" font-size="11.00" fill="#134e4a">Personalization</text>
</g>
<!-- ai:human&#45;ai&#45;interaction&#45;&gt;ai:personalization -->
<g id="edge5" class="edge">
<title>ai:human&#45;ai&#45;interaction&#45;&gt;ai:personalization</title>
<path fill="none" stroke="#94a3b8" d="M150.4,-228.23C185.45,-223.64 226.47,-218.26 258.46,-214.07"/>
<polygon fill="#94a3b8" stroke="#94a3b8" points="258.69,-216.51 265.31,-213.17 258.05,-211.65 258.69,-216.51"/>
</g>
<!-- ai:decision&#45;support&#45;systems -->
<g id="node7" class="node">
<title>ai:decision&#45;support&#45;systems</title>
<path fill="#f0fdfa" stroke="#5eead4" stroke-width="1.1" d="M374.13,-162C374.13,-162 252.66,-162 252.66,-162 246.66,-162 240.66,-156 240.66,-150 240.66,-150 240.66,-138 240.66,-138 240.66,-132 246.66,-126 252.66,-126 252.66,-126 374.13,-126 374.13,-126 380.13,-126 386.13,-132 386.13,-138 386.13,-138 386.13,-150 386.13,-150 386.13,-156 380.13,-162 374.13,-162"/>
<text xml:space="preserve" text-anchor="middle" x="313.4" y="-139.55" font-family="Helvetica,sans-Serif" font-size="11.00" fill="#134e4a">Decision Support Systems</text>
</g>
<!-- ai:human&#45;ai&#45;interaction&#45;&gt;ai:decision&#45;support&#45;systems -->
<g id="edge6" class="edge">
<title>ai:human&#45;ai&#45;interaction&#45;&gt;ai:decision&#45;support&#45;systems</title>
<path fill="none" stroke="#94a3b8" d="M123.19,-219.2C162.19,-203.7 217.54,-181.7 258.3,-165.5"/>
<polygon fill="#94a3b8" stroke="#94a3b8" points="258.99,-167.86 264.59,-163 257.18,-163.31 258.99,-167.86"/>
</g>
<!-- ai:human&#45;feedback&#45;and&#45;preference&#45;learning -->
<g id="node8" class="node">
<title>ai:human&#45;feedback&#45;and&#45;preference&#45;learning</title>
<path fill="#f0fdfa" stroke="#5eead4" stroke-width="1.1" d="M364.01,-99.48C364.01,-99.48 262.79,-99.48 262.79,-99.48 256.79,-99.48 250.79,-93.48 250.79,-87.48 250.79,-87.48 250.79,-74.52 250.79,-74.52 250.79,-68.52 256.79,-62.52 262.79,-62.52 262.79,-62.52 364.01,-62.52 364.01,-62.52 370.01,-62.52 376.01,-68.52 376.01,-74.52 376.01,-74.52 376.01,-87.48 376.01,-87.48 376.01,-93.48 370.01,-99.48 364.01,-99.48"/>
<text xml:space="preserve" text-anchor="middle" x="313.4" y="-82.55" font-family="Helvetica,sans-Serif" font-size="11.00" fill="#134e4a">Human Feedback and</text>
<text xml:space="preserve" text-anchor="middle" x="313.4" y="-70.55" font-family="Helvetica,sans-Serif" font-size="11.00" fill="#134e4a">Preference Learning</text>
</g>
<!-- ai:human&#45;ai&#45;interaction&#45;&gt;ai:human&#45;feedback&#45;and&#45;preference&#45;learning -->
<g id="edge7" class="edge">
<title>ai:human&#45;ai&#45;interaction&#45;&gt;ai:human&#45;feedback&#45;and&#45;preference&#45;learning</title>
<path fill="none" stroke="#94a3b8" d="M95.32,-219.39C123.68,-192.99 178.92,-144.38 232.79,-113 238.71,-109.55 245.07,-106.31 251.53,-103.31"/>
<polygon fill="#94a3b8" stroke="#94a3b8" points="252.36,-105.62 257.75,-100.52 250.36,-101.15 252.36,-105.62"/>
</g>
<!-- ai:ai&#45;user&#45;experience&#45;and&#45;trust -->
<g id="node9" class="node">
<title>ai:ai&#45;user&#45;experience&#45;and&#45;trust</title>
<path fill="#f0fdfa" stroke="#5eead4" stroke-width="1.1" d="M382.01,-36C382.01,-36 244.79,-36 244.79,-36 238.79,-36 232.79,-30 232.79,-24 232.79,-24 232.79,-12 232.79,-12 232.79,-6 238.79,0 244.79,0 244.79,0 382.01,0 382.01,0 388.01,0 394.01,-6 394.01,-12 394.01,-12 394.01,-24 394.01,-24 394.01,-30 388.01,-36 382.01,-36"/>
<text xml:space="preserve" text-anchor="middle" x="313.4" y="-13.55" font-family="Helvetica,sans-Serif" font-size="11.00" fill="#134e4a">AI User Experience and Trust</text>
</g>
<!-- ai:human&#45;ai&#45;interaction&#45;&gt;ai:ai&#45;user&#45;experience&#45;and&#45;trust -->
<g id="edge8" class="edge">
<title>ai:human&#45;ai&#45;interaction&#45;&gt;ai:ai&#45;user&#45;experience&#45;and&#45;trust</title>
<path fill="none" stroke="#94a3b8" d="M86.88,-219.2C109.61,-181.84 165.33,-97.63 232.79,-49 237.24,-45.79 242.06,-42.87 247.05,-40.21"/>
<polygon fill="#94a3b8" stroke="#94a3b8" points="247.95,-42.5 253.12,-37.18 245.76,-38.11 247.95,-42.5"/>
</g>
</g>
</svg>
