<?xml version="1.0" encoding="UTF-8" standalone="no"?>
<!DOCTYPE svg PUBLIC "-//W3C//DTD SVG 1.1//EN"
 "http://www.w3.org/Graphics/SVG/1.1/DTD/svg11.dtd">
<!-- Generated by graphviz version 15.0.0 (20260523.1842)
 -->
<!-- Title: AIAtlasSection_knowledge_and_reasoning Pages: 1 -->
<svg width="453pt" height="513pt"
 viewBox="0.00 0.00 453.00 513.00" xmlns="http://www.w3.org/2000/svg" xmlns:xlink="http://www.w3.org/1999/xlink">
<g id="graph0" class="graph" transform="scale(1 1) rotate(0) translate(18 495)">
<title>AIAtlasSection_knowledge_and_reasoning</title>
<polygon fill="#ffffff" stroke="none" points="-18,18 -18,-495 434.51,-495 434.51,18 -18,18"/>
<!-- ai:knowledge&#45;and&#45;reasoning -->
<g id="node1" class="node">
<title>ai:knowledge&#45;and&#45;reasoning</title>
<path fill="#ccfbf1" stroke="#0f766e" stroke-width="1.8" d="M172.29,-256C172.29,-256 12,-256 12,-256 6,-256 0,-250 0,-244 0,-244 0,-232 0,-232 0,-226 6,-220 12,-220 12,-220 172.29,-220 172.29,-220 178.29,-220 184.29,-226 184.29,-232 184.29,-232 184.29,-244 184.29,-244 184.29,-250 178.29,-256 172.29,-256"/>
<text xml:space="preserve" text-anchor="middle" x="92.14" y="-232.4" font-family="Helvetica,sans-Serif" font-size="13.00" fill="#134e4a">Knowledge and Reasoning</text>
</g>
<!-- ai:commonsense&#45;reasoning -->
<g id="node2" class="node">
<title>ai:commonsense&#45;reasoning</title>
<path fill="#f0fdfa" stroke="#5eead4" stroke-width="1.1" d="M403.01,-477C403.01,-477 280.79,-477 280.79,-477 274.79,-477 268.79,-471 268.79,-465 268.79,-465 268.79,-453 268.79,-453 268.79,-447 274.79,-441 280.79,-441 280.79,-441 403.01,-441 403.01,-441 409.01,-441 415.01,-447 415.01,-453 415.01,-453 415.01,-465 415.01,-465 415.01,-471 409.01,-477 403.01,-477"/>
<text xml:space="preserve" text-anchor="middle" x="341.9" y="-454.55" font-family="Helvetica,sans-Serif" font-size="11.00" fill="#134e4a">Commonsense Reasoning</text>
</g>
<!-- ai:knowledge&#45;and&#45;reasoning&#45;&gt;ai:commonsense&#45;reasoning -->
<g id="edge1" class="edge">
<title>ai:knowledge&#45;and&#45;reasoning&#45;&gt;ai:commonsense&#45;reasoning</title>
<path fill="none" stroke="#94a3b8" d="M105.95,-256.66C132.26,-293.81 195.96,-377.75 267.29,-428 271.78,-431.17 276.65,-434.09 281.67,-436.78"/>
<polygon fill="#94a3b8" stroke="#94a3b8" points="280.4,-438.89 287.75,-439.87 282.61,-434.52 280.4,-438.89"/>
</g>
<!-- ai:probabilistic&#45;reasoning -->
<g id="node3" class="node">
<title>ai:probabilistic&#45;reasoning</title>
<path fill="#f0fdfa" stroke="#5eead4" stroke-width="1.1" d="M395.51,-414C395.51,-414 288.29,-414 288.29,-414 282.29,-414 276.29,-408 276.29,-402 276.29,-402 276.29,-390 276.29,-390 276.29,-384 282.29,-378 288.29,-378 288.29,-378 395.51,-378 395.51,-378 401.51,-378 407.51,-384 407.51,-390 407.51,-390 407.51,-402 407.51,-402 407.51,-408 401.51,-414 395.51,-414"/>
<text xml:space="preserve" text-anchor="middle" x="341.9" y="-391.55" font-family="Helvetica,sans-Serif" font-size="11.00" fill="#134e4a">Probabilistic Reasoning</text>
</g>
<!-- ai:knowledge&#45;and&#45;reasoning&#45;&gt;ai:probabilistic&#45;reasoning -->
<g id="edge2" class="edge">
<title>ai:knowledge&#45;and&#45;reasoning&#45;&gt;ai:probabilistic&#45;reasoning</title>
<path fill="none" stroke="#94a3b8" d="M115.37,-256.84C147.42,-283.36 209.14,-332.14 267.29,-365 272.89,-368.17 278.88,-371.2 284.94,-374.05"/>
<polygon fill="#94a3b8" stroke="#94a3b8" points="283.85,-376.25 291.24,-376.93 285.89,-371.79 283.85,-376.25"/>
</g>
<!-- ai:causal&#45;reasoning -->
<g id="node4" class="node">
<title>ai:causal&#45;reasoning</title>
<path fill="#f0fdfa" stroke="#5eead4" stroke-width="1.1" d="M383.51,-351C383.51,-351 300.29,-351 300.29,-351 294.29,-351 288.29,-345 288.29,-339 288.29,-339 288.29,-327 288.29,-327 288.29,-321 294.29,-315 300.29,-315 300.29,-315 383.51,-315 383.51,-315 389.51,-315 395.51,-321 395.51,-327 395.51,-327 395.51,-339 395.51,-339 395.51,-345 389.51,-351 383.51,-351"/>
<text xml:space="preserve" text-anchor="middle" x="341.9" y="-328.55" font-family="Helvetica,sans-Serif" font-size="11.00" fill="#134e4a">Causal Reasoning</text>
</g>
<!-- ai:knowledge&#45;and&#45;reasoning&#45;&gt;ai:causal&#45;reasoning -->
<g id="edge3" class="edge">
<title>ai:knowledge&#45;and&#45;reasoning&#45;&gt;ai:causal&#45;reasoning</title>
<path fill="none" stroke="#94a3b8" d="M142.39,-256.88C183.44,-272.62 241.92,-295.05 284.78,-311.48"/>
<polygon fill="#94a3b8" stroke="#94a3b8" points="283.77,-313.72 291.18,-313.93 285.52,-309.14 283.77,-313.72"/>
</g>
<!-- ai:temporal&#45;reasoning -->
<g id="node5" class="node">
<title>ai:temporal&#45;reasoning</title>
<path fill="#f0fdfa" stroke="#5eead4" stroke-width="1.1" d="M388.76,-288C388.76,-288 295.04,-288 295.04,-288 289.04,-288 283.04,-282 283.04,-276 283.04,-276 283.04,-264 283.04,-264 283.04,-258 289.04,-252 295.04,-252 295.04,-252 388.76,-252 388.76,-252 394.76,-252 400.76,-258 400.76,-264 400.76,-264 400.76,-276 400.76,-276 400.76,-282 394.76,-288 388.76,-288"/>
<text xml:space="preserve" text-anchor="middle" x="341.9" y="-265.55" font-family="Helvetica,sans-Serif" font-size="11.00" fill="#134e4a">Temporal Reasoning</text>
</g>
<!-- ai:knowledge&#45;and&#45;reasoning&#45;&gt;ai:temporal&#45;reasoning -->
<g id="edge4" class="edge">
<title>ai:knowledge&#45;and&#45;reasoning&#45;&gt;ai:temporal&#45;reasoning</title>
<path fill="none" stroke="#94a3b8" d="M185.05,-249.87C214.63,-253.69 246.81,-257.85 274.22,-261.39"/>
<polygon fill="#94a3b8" stroke="#94a3b8" points="273.8,-263.8 281.06,-262.27 274.43,-258.94 273.8,-263.8"/>
</g>
<!-- ai:spatial&#45;reasoning -->
<g id="node6" class="node">
<title>ai:spatial&#45;reasoning</title>
<path fill="#f0fdfa" stroke="#5eead4" stroke-width="1.1" d="M383.13,-225C383.13,-225 300.66,-225 300.66,-225 294.66,-225 288.66,-219 288.66,-213 288.66,-213 288.66,-201 288.66,-201 288.66,-195 294.66,-189 300.66,-189 300.66,-189 383.13,-189 383.13,-189 389.13,-189 395.13,-195 395.13,-201 395.13,-201 395.13,-213 395.13,-213 395.13,-219 389.13,-225 383.13,-225"/>
<text xml:space="preserve" text-anchor="middle" x="341.9" y="-202.55" font-family="Helvetica,sans-Serif" font-size="11.00" fill="#134e4a">Spatial Reasoning</text>
</g>
<!-- ai:knowledge&#45;and&#45;reasoning&#45;&gt;ai:spatial&#45;reasoning -->
<g id="edge5" class="edge">
<title>ai:knowledge&#45;and&#45;reasoning&#45;&gt;ai:spatial&#45;reasoning</title>
<path fill="none" stroke="#94a3b8" d="M185.05,-226.5C216.76,-222.53 251.47,-218.19 280.07,-214.61"/>
<polygon fill="#94a3b8" stroke="#94a3b8" points="280.21,-217.06 286.85,-213.76 279.6,-212.2 280.21,-217.06"/>
</g>
<!-- ai:explainable&#45;ai -->
<g id="node7" class="node">
<title>ai:explainable&#45;ai</title>
<path fill="#f0fdfa" stroke="#5eead4" stroke-width="1.1" d="M373.38,-162C373.38,-162 310.41,-162 310.41,-162 304.41,-162 298.41,-156 298.41,-150 298.41,-150 298.41,-138 298.41,-138 298.41,-132 304.41,-126 310.41,-126 310.41,-126 373.38,-126 373.38,-126 379.38,-126 385.38,-132 385.38,-138 385.38,-138 385.38,-150 385.38,-150 385.38,-156 379.38,-162 373.38,-162"/>
<text xml:space="preserve" text-anchor="middle" x="341.9" y="-139.55" font-family="Helvetica,sans-Serif" font-size="11.00" fill="#134e4a">Explainable AI</text>
</g>
<!-- ai:knowledge&#45;and&#45;reasoning&#45;&gt;ai:explainable&#45;ai -->
<g id="edge6" class="edge">
<title>ai:knowledge&#45;and&#45;reasoning&#45;&gt;ai:explainable&#45;ai</title>
<path fill="none" stroke="#94a3b8" d="M142.69,-219.2C185.49,-202.96 247.09,-179.59 290.23,-163.23"/>
<polygon fill="#94a3b8" stroke="#94a3b8" points="290.97,-165.57 296.64,-160.79 289.23,-160.98 290.97,-165.57"/>
</g>
<!-- ai:knowledge&#45;representation -->
<g id="node8" class="node">
<title>ai:knowledge&#45;representation</title>
<path fill="#f0fdfa" stroke="#5eead4" stroke-width="1.1" d="M404.51,-99C404.51,-99 279.29,-99 279.29,-99 273.29,-99 267.29,-93 267.29,-87 267.29,-87 267.29,-75 267.29,-75 267.29,-69 273.29,-63 279.29,-63 279.29,-63 404.51,-63 404.51,-63 410.51,-63 416.51,-69 416.51,-75 416.51,-75 416.51,-87 416.51,-87 416.51,-93 410.51,-99 404.51,-99"/>
<text xml:space="preserve" text-anchor="middle" x="341.9" y="-76.55" font-family="Helvetica,sans-Serif" font-size="11.00" fill="#134e4a">Knowledge Representation</text>
</g>
<!-- ai:knowledge&#45;and&#45;reasoning&#45;&gt;ai:knowledge&#45;representation -->
<g id="edge7" class="edge">
<title>ai:knowledge&#45;and&#45;reasoning&#45;&gt;ai:knowledge&#45;representation</title>
<path fill="none" stroke="#94a3b8" d="M116.02,-219.15C148.34,-193.09 209.84,-145.61 267.29,-113 273.39,-109.54 279.93,-106.2 286.51,-103.07"/>
<polygon fill="#94a3b8" stroke="#94a3b8" points="287.53,-105.3 292.85,-100.14 285.47,-100.86 287.53,-105.3"/>
</g>
<!-- ai:ontologies -->
<g id="node9" class="node">
<title>ai:ontologies</title>
<path fill="#f0fdfa" stroke="#5eead4" stroke-width="1.1" d="M364.76,-36C364.76,-36 319.04,-36 319.04,-36 313.04,-36 307.04,-30 307.04,-24 307.04,-24 307.04,-12 307.04,-12 307.04,-6 313.04,0 319.04,0 319.04,0 364.76,0 364.76,0 370.76,0 376.76,-6 376.76,-12 376.76,-12 376.76,-24 376.76,-24 376.76,-30 370.76,-36 364.76,-36"/>
<text xml:space="preserve" text-anchor="middle" x="341.9" y="-13.55" font-family="Helvetica,sans-Serif" font-size="11.00" fill="#134e4a">Ontologies</text>
</g>
<!-- ai:knowledge&#45;and&#45;reasoning&#45;&gt;ai:ontologies -->
<g id="edge8" class="edge">
<title>ai:knowledge&#45;and&#45;reasoning&#45;&gt;ai:ontologies</title>
<path fill="none" stroke="#94a3b8" d="M106.25,-219.33C132.85,-182.57 196.7,-100.06 267.29,-50 276.89,-43.19 288.18,-37.39 298.98,-32.67"/>
<polygon fill="#94a3b8" stroke="#94a3b8" points="299.83,-34.98 305.34,-30.02 297.94,-30.45 299.83,-34.98"/>
</g>
</g>
</svg>
