<?xml version="1.0" encoding="UTF-8" standalone="no"?>
<!DOCTYPE svg PUBLIC "-//W3C//DTD SVG 1.1//EN"
 "http://www.w3.org/Graphics/SVG/1.1/DTD/svg11.dtd">
<!-- Generated by graphviz version 15.0.0 (20260523.1842)
 -->
<!-- Title: AIAtlasSection_machine_learning Pages: 1 -->
<svg width="395pt" height="954pt"
 viewBox="0.00 0.00 395.00 954.00" xmlns="http://www.w3.org/2000/svg" xmlns:xlink="http://www.w3.org/1999/xlink">
<g id="graph0" class="graph" transform="scale(1 1) rotate(0) translate(18 936)">
<title>AIAtlasSection_machine_learning</title>
<polygon fill="#ffffff" stroke="none" points="-18,18 -18,-936 376.76,-936 376.76,18 -18,18"/>
<!-- ai:machine&#45;learning -->
<g id="node1" class="node">
<title>ai:machine&#45;learning</title>
<path fill="#ccfbf1" stroke="#0f766e" stroke-width="1.8" d="M117.54,-477C117.54,-477 12,-477 12,-477 6,-477 0,-471 0,-465 0,-465 0,-453 0,-453 0,-447 6,-441 12,-441 12,-441 117.54,-441 117.54,-441 123.54,-441 129.54,-447 129.54,-453 129.54,-453 129.54,-465 129.54,-465 129.54,-471 123.54,-477 117.54,-477"/>
<text xml:space="preserve" text-anchor="middle" x="64.77" y="-453.4" font-family="Helvetica,sans-Serif" font-size="13.00" fill="#134e4a">Machine Learning</text>
</g>
<!-- ai:supervised&#45;learning -->
<g id="node2" class="node">
<title>ai:supervised&#45;learning</title>
<path fill="#f0fdfa" stroke="#5eead4" stroke-width="1.1" d="M332.51,-918C332.51,-918 238.79,-918 238.79,-918 232.79,-918 226.79,-912 226.79,-906 226.79,-906 226.79,-894 226.79,-894 226.79,-888 232.79,-882 238.79,-882 238.79,-882 332.51,-882 332.51,-882 338.51,-882 344.51,-888 344.51,-894 344.51,-894 344.51,-906 344.51,-906 344.51,-912 338.51,-918 332.51,-918"/>
<text xml:space="preserve" text-anchor="middle" x="285.65" y="-895.55" font-family="Helvetica,sans-Serif" font-size="11.00" fill="#134e4a">Supervised Learning</text>
</g>
<!-- ai:machine&#45;learning&#45;&gt;ai:supervised&#45;learning -->
<g id="edge1" class="edge">
<title>ai:machine&#45;learning&#45;&gt;ai:supervised&#45;learning</title>
<path fill="none" stroke="#94a3b8" d="M67.25,-477.62C73.24,-540.9 100.97,-750.26 212.54,-869 215.25,-871.89 218.28,-874.52 221.52,-876.92"/>
<polygon fill="#94a3b8" stroke="#94a3b8" points="219.98,-878.84 227.16,-880.68 222.7,-874.76 219.98,-878.84"/>
</g>
<!-- ai:unsupervised&#45;learning -->
<g id="node3" class="node">
<title>ai:unsupervised&#45;learning</title>
<path fill="#f0fdfa" stroke="#5eead4" stroke-width="1.1" d="M338.51,-855C338.51,-855 232.79,-855 232.79,-855 226.79,-855 220.79,-849 220.79,-843 220.79,-843 220.79,-831 220.79,-831 220.79,-825 226.79,-819 232.79,-819 232.79,-819 338.51,-819 338.51,-819 344.51,-819 350.51,-825 350.51,-831 350.51,-831 350.51,-843 350.51,-843 350.51,-849 344.51,-855 338.51,-855"/>
<text xml:space="preserve" text-anchor="middle" x="285.65" y="-832.55" font-family="Helvetica,sans-Serif" font-size="11.00" fill="#134e4a">Unsupervised Learning</text>
</g>
<!-- ai:machine&#45;learning&#45;&gt;ai:unsupervised&#45;learning -->
<g id="edge2" class="edge">
<title>ai:machine&#45;learning&#45;&gt;ai:unsupervised&#45;learning</title>
<path fill="none" stroke="#94a3b8" d="M68.62,-477.51C78.28,-534.23 114.77,-707.66 212.54,-806 215.39,-808.87 218.55,-811.49 221.91,-813.88"/>
<polygon fill="#94a3b8" stroke="#94a3b8" points="220.56,-815.93 227.78,-817.65 223.21,-811.81 220.56,-815.93"/>
</g>
<!-- ai:semi&#45;supervised&#45;learning -->
<g id="node4" class="node">
<title>ai:semi&#45;supervised&#45;learning</title>
<path fill="#f0fdfa" stroke="#5eead4" stroke-width="1.1" d="M346.76,-792C346.76,-792 224.54,-792 224.54,-792 218.54,-792 212.54,-786 212.54,-780 212.54,-780 212.54,-768 212.54,-768 212.54,-762 218.54,-756 224.54,-756 224.54,-756 346.76,-756 346.76,-756 352.76,-756 358.76,-762 358.76,-768 358.76,-768 358.76,-780 358.76,-780 358.76,-786 352.76,-792 346.76,-792"/>
<text xml:space="preserve" text-anchor="middle" x="285.65" y="-769.55" font-family="Helvetica,sans-Serif" font-size="11.00" fill="#134e4a">Semi&#45;Supervised Learning</text>
</g>
<!-- ai:machine&#45;learning&#45;&gt;ai:semi&#45;supervised&#45;learning -->
<g id="edge3" class="edge">
<title>ai:machine&#45;learning&#45;&gt;ai:semi&#45;supervised&#45;learning</title>
<path fill="none" stroke="#94a3b8" d="M70.6,-477.62C84.4,-527.34 128.47,-664.7 212.54,-743 215.78,-746.02 219.36,-748.77 223.14,-751.27"/>
<polygon fill="#94a3b8" stroke="#94a3b8" points="221.59,-753.2 228.84,-754.73 224.13,-749.01 221.59,-753.2"/>
</g>
<!-- ai:self&#45;supervised&#45;learning -->
<g id="node5" class="node">
<title>ai:self&#45;supervised&#45;learning</title>
<path fill="#f0fdfa" stroke="#5eead4" stroke-width="1.1" d="M343.76,-729C343.76,-729 227.54,-729 227.54,-729 221.54,-729 215.54,-723 215.54,-717 215.54,-717 215.54,-705 215.54,-705 215.54,-699 221.54,-693 227.54,-693 227.54,-693 343.76,-693 343.76,-693 349.76,-693 355.76,-699 355.76,-705 355.76,-705 355.76,-717 355.76,-717 355.76,-723 349.76,-729 343.76,-729"/>
<text xml:space="preserve" text-anchor="middle" x="285.65" y="-706.55" font-family="Helvetica,sans-Serif" font-size="11.00" fill="#134e4a">Self&#45;Supervised Learning</text>
</g>
<!-- ai:machine&#45;learning&#45;&gt;ai:self&#45;supervised&#45;learning -->
<g id="edge4" class="edge">
<title>ai:machine&#45;learning&#45;&gt;ai:self&#45;supervised&#45;learning</title>
<path fill="none" stroke="#94a3b8" d="M73.61,-477.63C92.01,-519.3 141.81,-620.99 212.54,-680 216.23,-683.08 220.26,-685.89 224.49,-688.46"/>
<polygon fill="#94a3b8" stroke="#94a3b8" points="223.12,-690.5 230.42,-691.81 225.53,-686.24 223.12,-690.5"/>
</g>
<!-- ai:reinforcement&#45;learning -->
<g id="node6" class="node">
<title>ai:reinforcement&#45;learning</title>
<path fill="#f0fdfa" stroke="#5eead4" stroke-width="1.1" d="M340.76,-666C340.76,-666 230.54,-666 230.54,-666 224.54,-666 218.54,-660 218.54,-654 218.54,-654 218.54,-642 218.54,-642 218.54,-636 224.54,-630 230.54,-630 230.54,-630 340.76,-630 340.76,-630 346.76,-630 352.76,-636 352.76,-642 352.76,-642 352.76,-654 352.76,-654 352.76,-660 346.76,-666 340.76,-666"/>
<text xml:space="preserve" text-anchor="middle" x="285.65" y="-643.55" font-family="Helvetica,sans-Serif" font-size="11.00" fill="#134e4a">Reinforcement Learning</text>
</g>
<!-- ai:machine&#45;learning&#45;&gt;ai:reinforcement&#45;learning -->
<g id="edge5" class="edge">
<title>ai:machine&#45;learning&#45;&gt;ai:reinforcement&#45;learning</title>
<path fill="none" stroke="#94a3b8" d="M78.97,-477.68C102.55,-509.89 154.86,-576.33 212.54,-617 217.03,-620.17 221.89,-623.1 226.9,-625.81"/>
<polygon fill="#94a3b8" stroke="#94a3b8" points="225.62,-627.9 232.97,-628.91 227.85,-623.54 225.62,-627.9"/>
</g>
<!-- ai:deep&#45;learning -->
<g id="node7" class="node">
<title>ai:deep&#45;learning</title>
<path fill="#f0fdfa" stroke="#5eead4" stroke-width="1.1" d="M318.63,-603C318.63,-603 252.66,-603 252.66,-603 246.66,-603 240.66,-597 240.66,-591 240.66,-591 240.66,-579 240.66,-579 240.66,-573 246.66,-567 252.66,-567 252.66,-567 318.63,-567 318.63,-567 324.63,-567 330.63,-573 330.63,-579 330.63,-579 330.63,-591 330.63,-591 330.63,-597 324.63,-603 318.63,-603"/>
<text xml:space="preserve" text-anchor="middle" x="285.65" y="-580.55" font-family="Helvetica,sans-Serif" font-size="11.00" fill="#134e4a">Deep Learning</text>
</g>
<!-- ai:machine&#45;learning&#45;&gt;ai:deep&#45;learning -->
<g id="edge6" class="edge">
<title>ai:machine&#45;learning&#45;&gt;ai:deep&#45;learning</title>
<path fill="none" stroke="#94a3b8" d="M91.73,-477.72C120.45,-497.97 168.49,-530.49 212.54,-554 218.98,-557.44 225.89,-560.8 232.79,-563.96"/>
<polygon fill="#94a3b8" stroke="#94a3b8" points="231.47,-566.05 238.86,-566.68 233.48,-561.58 231.47,-566.05"/>
</g>
<!-- ai:representation&#45;learning -->
<g id="node8" class="node">
<title>ai:representation&#45;learning</title>
<path fill="#f0fdfa" stroke="#5eead4" stroke-width="1.1" d="M342.26,-540C342.26,-540 229.04,-540 229.04,-540 223.04,-540 217.04,-534 217.04,-528 217.04,-528 217.04,-516 217.04,-516 217.04,-510 223.04,-504 229.04,-504 229.04,-504 342.26,-504 342.26,-504 348.26,-504 354.26,-510 354.26,-516 354.26,-516 354.26,-528 354.26,-528 354.26,-534 348.26,-540 342.26,-540"/>
<text xml:space="preserve" text-anchor="middle" x="285.65" y="-517.55" font-family="Helvetica,sans-Serif" font-size="11.00" fill="#134e4a">Representation Learning</text>
</g>
<!-- ai:machine&#45;learning&#45;&gt;ai:representation&#45;learning -->
<g id="edge7" class="edge">
<title>ai:machine&#45;learning&#45;&gt;ai:representation&#45;learning</title>
<path fill="none" stroke="#94a3b8" d="M130.26,-477.56C155.97,-484.96 185.69,-493.52 212.15,-501.13"/>
<polygon fill="#94a3b8" stroke="#94a3b8" points="211.39,-503.46 218.79,-503.04 212.74,-498.75 211.39,-503.46"/>
</g>
<!-- ai:transfer&#45;learning -->
<g id="node9" class="node">
<title>ai:transfer&#45;learning</title>
<path fill="#f0fdfa" stroke="#5eead4" stroke-width="1.1" d="M325.76,-477C325.76,-477 245.54,-477 245.54,-477 239.54,-477 233.54,-471 233.54,-465 233.54,-465 233.54,-453 233.54,-453 233.54,-447 239.54,-441 245.54,-441 245.54,-441 325.76,-441 325.76,-441 331.76,-441 337.76,-447 337.76,-453 337.76,-453 337.76,-465 337.76,-465 337.76,-471 331.76,-477 325.76,-477"/>
<text xml:space="preserve" text-anchor="middle" x="285.65" y="-454.55" font-family="Helvetica,sans-Serif" font-size="11.00" fill="#134e4a">Transfer Learning</text>
</g>
<!-- ai:machine&#45;learning&#45;&gt;ai:transfer&#45;learning -->
<g id="edge8" class="edge">
<title>ai:machine&#45;learning&#45;&gt;ai:transfer&#45;learning</title>
<path fill="none" stroke="#94a3b8" d="M130.26,-459C160.1,-459 195.34,-459 224.61,-459"/>
<polygon fill="#94a3b8" stroke="#94a3b8" points="224.58,-461.45 231.58,-459 224.58,-456.55 224.58,-461.45"/>
</g>
<!-- ai:federated&#45;learning -->
<g id="node10" class="node">
<title>ai:federated&#45;learning</title>
<path fill="#f0fdfa" stroke="#5eead4" stroke-width="1.1" d="M330.26,-414C330.26,-414 241.04,-414 241.04,-414 235.04,-414 229.04,-408 229.04,-402 229.04,-402 229.04,-390 229.04,-390 229.04,-384 235.04,-378 241.04,-378 241.04,-378 330.26,-378 330.26,-378 336.26,-378 342.26,-384 342.26,-390 342.26,-390 342.26,-402 342.26,-402 342.26,-408 336.26,-414 330.26,-414"/>
<text xml:space="preserve" text-anchor="middle" x="285.65" y="-391.55" font-family="Helvetica,sans-Serif" font-size="11.00" fill="#134e4a">Federated Learning</text>
</g>
<!-- ai:machine&#45;learning&#45;&gt;ai:federated&#45;learning -->
<g id="edge9" class="edge">
<title>ai:machine&#45;learning&#45;&gt;ai:federated&#45;learning</title>
<path fill="none" stroke="#94a3b8" d="M130.26,-440.44C158.84,-432.21 192.38,-422.56 220.88,-414.35"/>
<polygon fill="#94a3b8" stroke="#94a3b8" points="221.28,-416.79 227.33,-412.5 219.92,-412.08 221.28,-416.79"/>
</g>
<!-- ai:online&#45;learning -->
<g id="node11" class="node">
<title>ai:online&#45;learning</title>
<path fill="#f0fdfa" stroke="#5eead4" stroke-width="1.1" d="M320.88,-351C320.88,-351 250.41,-351 250.41,-351 244.41,-351 238.41,-345 238.41,-339 238.41,-339 238.41,-327 238.41,-327 238.41,-321 244.41,-315 250.41,-315 250.41,-315 320.88,-315 320.88,-315 326.88,-315 332.88,-321 332.88,-327 332.88,-327 332.88,-339 332.88,-339 332.88,-345 326.88,-351 320.88,-351"/>
<text xml:space="preserve" text-anchor="middle" x="285.65" y="-328.55" font-family="Helvetica,sans-Serif" font-size="11.00" fill="#134e4a">Online Learning</text>
</g>
<!-- ai:machine&#45;learning&#45;&gt;ai:online&#45;learning -->
<g id="edge10" class="edge">
<title>ai:machine&#45;learning&#45;&gt;ai:online&#45;learning</title>
<path fill="none" stroke="#94a3b8" d="M92.34,-440.23C121.19,-420.28 168.97,-388.44 212.54,-365 219.01,-361.52 225.93,-358.1 232.83,-354.85"/>
<polygon fill="#94a3b8" stroke="#94a3b8" points="233.58,-357.2 238.91,-352.05 231.53,-352.76 233.58,-357.2"/>
</g>
<!-- ai:active&#45;learning -->
<g id="node12" class="node">
<title>ai:active&#45;learning</title>
<path fill="#f0fdfa" stroke="#5eead4" stroke-width="1.1" d="M320.13,-288C320.13,-288 251.16,-288 251.16,-288 245.16,-288 239.16,-282 239.16,-276 239.16,-276 239.16,-264 239.16,-264 239.16,-258 245.16,-252 251.16,-252 251.16,-252 320.13,-252 320.13,-252 326.13,-252 332.13,-258 332.13,-264 332.13,-264 332.13,-276 332.13,-276 332.13,-282 326.13,-288 320.13,-288"/>
<text xml:space="preserve" text-anchor="middle" x="285.65" y="-265.55" font-family="Helvetica,sans-Serif" font-size="11.00" fill="#134e4a">Active Learning</text>
</g>
<!-- ai:machine&#45;learning&#45;&gt;ai:active&#45;learning -->
<g id="edge11" class="edge">
<title>ai:machine&#45;learning&#45;&gt;ai:active&#45;learning</title>
<path fill="none" stroke="#94a3b8" d="M79.24,-440.26C103.02,-408.27 155.38,-342.66 212.54,-302 218.44,-297.8 224.98,-293.97 231.64,-290.54"/>
<polygon fill="#94a3b8" stroke="#94a3b8" points="232.34,-292.93 237.54,-287.64 230.18,-288.53 232.34,-292.93"/>
</g>
<!-- ai:meta&#45;learning -->
<g id="node13" class="node">
<title>ai:meta&#45;learning</title>
<path fill="#f0fdfa" stroke="#5eead4" stroke-width="1.1" d="M317.88,-225C317.88,-225 253.41,-225 253.41,-225 247.41,-225 241.41,-219 241.41,-213 241.41,-213 241.41,-201 241.41,-201 241.41,-195 247.41,-189 253.41,-189 253.41,-189 317.88,-189 317.88,-189 323.88,-189 329.88,-195 329.88,-201 329.88,-201 329.88,-213 329.88,-213 329.88,-219 323.88,-225 317.88,-225"/>
<text xml:space="preserve" text-anchor="middle" x="285.65" y="-202.55" font-family="Helvetica,sans-Serif" font-size="11.00" fill="#134e4a">Meta&#45;Learning</text>
</g>
<!-- ai:machine&#45;learning&#45;&gt;ai:meta&#45;learning -->
<g id="edge12" class="edge">
<title>ai:machine&#45;learning&#45;&gt;ai:meta&#45;learning</title>
<path fill="none" stroke="#94a3b8" d="M73.82,-440.21C92.48,-398.66 142.49,-298.01 212.54,-239 218.83,-233.71 226.13,-229.14 233.62,-225.24"/>
<polygon fill="#94a3b8" stroke="#94a3b8" points="234.57,-227.5 239.79,-222.23 232.42,-223.1 234.57,-227.5"/>
</g>
<!-- ai:ensemble&#45;learning -->
<g id="node14" class="node">
<title>ai:ensemble&#45;learning</title>
<path fill="#f0fdfa" stroke="#5eead4" stroke-width="1.1" d="M329.51,-162C329.51,-162 241.79,-162 241.79,-162 235.79,-162 229.79,-156 229.79,-150 229.79,-150 229.79,-138 229.79,-138 229.79,-132 235.79,-126 241.79,-126 241.79,-126 329.51,-126 329.51,-126 335.51,-126 341.51,-132 341.51,-138 341.51,-138 341.51,-150 341.51,-150 341.51,-156 335.51,-162 329.51,-162"/>
<text xml:space="preserve" text-anchor="middle" x="285.65" y="-139.55" font-family="Helvetica,sans-Serif" font-size="11.00" fill="#134e4a">Ensemble Learning</text>
</g>
<!-- ai:machine&#45;learning&#45;&gt;ai:ensemble&#45;learning -->
<g id="edge13" class="edge">
<title>ai:machine&#45;learning&#45;&gt;ai:ensemble&#45;learning</title>
<path fill="none" stroke="#94a3b8" d="M70.77,-440.13C84.85,-390.43 129.31,-254.32 212.54,-176 216.12,-172.63 220.11,-169.58 224.33,-166.82"/>
<polygon fill="#94a3b8" stroke="#94a3b8" points="225.57,-168.93 230.31,-163.23 223.05,-164.73 225.57,-168.93"/>
</g>
<!-- ai:continual&#45;learning -->
<g id="node15" class="node">
<title>ai:continual&#45;learning</title>
<path fill="#f0fdfa" stroke="#5eead4" stroke-width="1.1" d="M328.38,-99C328.38,-99 242.91,-99 242.91,-99 236.91,-99 230.91,-93 230.91,-87 230.91,-87 230.91,-75 230.91,-75 230.91,-69 236.91,-63 242.91,-63 242.91,-63 328.38,-63 328.38,-63 334.38,-63 340.38,-69 340.38,-75 340.38,-75 340.38,-87 340.38,-87 340.38,-93 334.38,-99 328.38,-99"/>
<text xml:space="preserve" text-anchor="middle" x="285.65" y="-76.55" font-family="Helvetica,sans-Serif" font-size="11.00" fill="#134e4a">Continual Learning</text>
</g>
<!-- ai:machine&#45;learning&#45;&gt;ai:continual&#45;learning -->
<g id="edge14" class="edge">
<title>ai:machine&#45;learning&#45;&gt;ai:continual&#45;learning</title>
<path fill="none" stroke="#94a3b8" d="M68.76,-440.19C78.72,-383.37 115.76,-211.38 212.54,-113 215.86,-109.62 219.6,-106.57 223.59,-103.83"/>
<polygon fill="#94a3b8" stroke="#94a3b8" points="224.6,-106.09 229.22,-100.29 221.99,-101.94 224.6,-106.09"/>
</g>
<!-- ai:data&#45;centric&#45;ai -->
<g id="node16" class="node">
<title>ai:data&#45;centric&#45;ai</title>
<path fill="#f0fdfa" stroke="#5eead4" stroke-width="1.1" d="M320.13,-36C320.13,-36 251.16,-36 251.16,-36 245.16,-36 239.16,-30 239.16,-24 239.16,-24 239.16,-12 239.16,-12 239.16,-6 245.16,0 251.16,0 251.16,0 320.13,0 320.13,0 326.13,0 332.13,-6 332.13,-12 332.13,-12 332.13,-24 332.13,-24 332.13,-30 326.13,-36 320.13,-36"/>
<text xml:space="preserve" text-anchor="middle" x="285.65" y="-13.55" font-family="Helvetica,sans-Serif" font-size="11.00" fill="#134e4a">Data&#45;Centric AI</text>
</g>
<!-- ai:machine&#45;learning&#45;&gt;ai:data&#45;centric&#45;ai -->
<g id="edge15" class="edge">
<title>ai:machine&#45;learning&#45;&gt;ai:data&#45;centric&#45;ai</title>
<path fill="none" stroke="#94a3b8" d="M67.32,-440.47C73.52,-377.5 101.86,-169.08 212.54,-50 217.92,-44.21 224.55,-39.4 231.58,-35.43"/>
<polygon fill="#94a3b8" stroke="#94a3b8" points="232.29,-37.82 237.37,-32.42 230.03,-33.47 232.29,-37.82"/>
</g>
</g>
</svg>
