<?xml version="1.0" encoding="UTF-8" standalone="no"?>
<!DOCTYPE svg PUBLIC "-//W3C//DTD SVG 1.1//EN"
 "http://www.w3.org/Graphics/SVG/1.1/DTD/svg11.dtd">
<!-- Generated by graphviz version 15.0.0 (20260523.1842)
 -->
<!-- Title: AIAtlasSection_natural_language_and_speech Pages: 1 -->
<svg width="486pt" height="513pt"
 viewBox="0.00 0.00 486.00 513.00" xmlns="http://www.w3.org/2000/svg" xmlns:xlink="http://www.w3.org/1999/xlink">
<g id="graph0" class="graph" transform="scale(1 1) rotate(0) translate(18 495)">
<title>AIAtlasSection_natural_language_and_speech</title>
<polygon fill="#ffffff" stroke="none" points="-18,18 -18,-495 468.26,-495 468.26,18 -18,18"/>
<!-- ai:natural&#45;language&#45;and&#45;speech -->
<g id="node1" class="node">
<title>ai:natural&#45;language&#45;and&#45;speech</title>
<path fill="#ccfbf1" stroke="#0f766e" stroke-width="1.8" d="M194.04,-256C194.04,-256 12,-256 12,-256 6,-256 0,-250 0,-244 0,-244 0,-232 0,-232 0,-226 6,-220 12,-220 12,-220 194.04,-220 194.04,-220 200.04,-220 206.04,-226 206.04,-232 206.04,-232 206.04,-244 206.04,-244 206.04,-250 200.04,-256 194.04,-256"/>
<text xml:space="preserve" text-anchor="middle" x="103.02" y="-232.4" font-family="Helvetica,sans-Serif" font-size="13.00" fill="#134e4a">Natural Language and Speech</text>
</g>
<!-- ai:natural&#45;language&#45;processing -->
<g id="node2" class="node">
<title>ai:natural&#45;language&#45;processing</title>
<path fill="#f0fdfa" stroke="#5eead4" stroke-width="1.1" d="M438.26,-477C438.26,-477 301.04,-477 301.04,-477 295.04,-477 289.04,-471 289.04,-465 289.04,-465 289.04,-453 289.04,-453 289.04,-447 295.04,-441 301.04,-441 301.04,-441 438.26,-441 438.26,-441 444.26,-441 450.26,-447 450.26,-453 450.26,-453 450.26,-465 450.26,-465 450.26,-471 444.26,-477 438.26,-477"/>
<text xml:space="preserve" text-anchor="middle" x="369.65" y="-454.55" font-family="Helvetica,sans-Serif" font-size="11.00" fill="#134e4a">Natural Language Processing</text>
</g>
<!-- ai:natural&#45;language&#45;and&#45;speech&#45;&gt;ai:natural&#45;language&#45;processing -->
<g id="edge1" class="edge">
<title>ai:natural&#45;language&#45;and&#45;speech&#45;&gt;ai:natural&#45;language&#45;processing</title>
<path fill="none" stroke="#94a3b8" d="M117.78,-256.78C146.02,-294.13 214.19,-378.42 289.04,-428 293.97,-431.27 299.3,-434.27 304.78,-437.01"/>
<polygon fill="#94a3b8" stroke="#94a3b8" points="303.58,-439.15 310.95,-439.93 305.67,-434.72 303.58,-439.15"/>
</g>
<!-- ai:speech&#45;recognition -->
<g id="node3" class="node">
<title>ai:speech&#45;recognition</title>
<path fill="#f0fdfa" stroke="#5eead4" stroke-width="1.1" d="M415.38,-414C415.38,-414 323.91,-414 323.91,-414 317.91,-414 311.91,-408 311.91,-402 311.91,-402 311.91,-390 311.91,-390 311.91,-384 317.91,-378 323.91,-378 323.91,-378 415.38,-378 415.38,-378 421.38,-378 427.38,-384 427.38,-390 427.38,-390 427.38,-402 427.38,-402 427.38,-408 421.38,-414 415.38,-414"/>
<text xml:space="preserve" text-anchor="middle" x="369.65" y="-391.55" font-family="Helvetica,sans-Serif" font-size="11.00" fill="#134e4a">Speech Recognition</text>
</g>
<!-- ai:natural&#45;language&#45;and&#45;speech&#45;&gt;ai:speech&#45;recognition -->
<g id="edge2" class="edge">
<title>ai:natural&#45;language&#45;and&#45;speech&#45;&gt;ai:speech&#45;recognition</title>
<path fill="none" stroke="#94a3b8" d="M127.43,-256.71C161.5,-283.3 227.39,-332.4 289.04,-365 295.17,-368.24 301.71,-371.33 308.31,-374.22"/>
<polygon fill="#94a3b8" stroke="#94a3b8" points="307.27,-376.44 314.67,-376.92 309.18,-371.93 307.27,-376.44"/>
</g>
<!-- ai:speech&#45;synthesis -->
<g id="node4" class="node">
<title>ai:speech&#45;synthesis</title>
<path fill="#f0fdfa" stroke="#5eead4" stroke-width="1.1" d="M410.13,-351C410.13,-351 329.16,-351 329.16,-351 323.16,-351 317.16,-345 317.16,-339 317.16,-339 317.16,-327 317.16,-327 317.16,-321 323.16,-315 329.16,-315 329.16,-315 410.13,-315 410.13,-315 416.13,-315 422.13,-321 422.13,-327 422.13,-327 422.13,-339 422.13,-339 422.13,-345 416.13,-351 410.13,-351"/>
<text xml:space="preserve" text-anchor="middle" x="369.65" y="-328.55" font-family="Helvetica,sans-Serif" font-size="11.00" fill="#134e4a">Speech Synthesis</text>
</g>
<!-- ai:natural&#45;language&#45;and&#45;speech&#45;&gt;ai:speech&#45;synthesis -->
<g id="edge3" class="edge">
<title>ai:natural&#45;language&#45;and&#45;speech&#45;&gt;ai:speech&#45;synthesis</title>
<path fill="none" stroke="#94a3b8" d="M156.62,-256.88C200.65,-272.69 263.45,-295.23 309.28,-311.69"/>
<polygon fill="#94a3b8" stroke="#94a3b8" points="308.21,-313.91 315.63,-313.97 309.87,-309.29 308.21,-313.91"/>
</g>
<!-- ai:dialogue&#45;systems -->
<g id="node5" class="node">
<title>ai:dialogue&#45;systems</title>
<path fill="#f0fdfa" stroke="#5eead4" stroke-width="1.1" d="M410.51,-288C410.51,-288 328.79,-288 328.79,-288 322.79,-288 316.79,-282 316.79,-276 316.79,-276 316.79,-264 316.79,-264 316.79,-258 322.79,-252 328.79,-252 328.79,-252 410.51,-252 410.51,-252 416.51,-252 422.51,-258 422.51,-264 422.51,-264 422.51,-276 422.51,-276 422.51,-282 416.51,-288 410.51,-288"/>
<text xml:space="preserve" text-anchor="middle" x="369.65" y="-265.55" font-family="Helvetica,sans-Serif" font-size="11.00" fill="#134e4a">Dialogue Systems</text>
</g>
<!-- ai:natural&#45;language&#45;and&#45;speech&#45;&gt;ai:dialogue&#45;systems -->
<g id="edge4" class="edge">
<title>ai:natural&#45;language&#45;and&#45;speech&#45;&gt;ai:dialogue&#45;systems</title>
<path fill="none" stroke="#94a3b8" d="M206.71,-250.42C240.97,-254.56 278.03,-259.04 308.04,-262.67"/>
<polygon fill="#94a3b8" stroke="#94a3b8" points="307.56,-265.08 314.8,-263.49 308.15,-260.22 307.56,-265.08"/>
</g>
<!-- ai:information&#45;retrieval -->
<g id="node6" class="node">
<title>ai:information&#45;retrieval</title>
<path fill="#f0fdfa" stroke="#5eead4" stroke-width="1.1" d="M416.88,-225C416.88,-225 322.41,-225 322.41,-225 316.41,-225 310.41,-219 310.41,-213 310.41,-213 310.41,-201 310.41,-201 310.41,-195 316.41,-189 322.41,-189 322.41,-189 416.88,-189 416.88,-189 422.88,-189 428.88,-195 428.88,-201 428.88,-201 428.88,-213 428.88,-213 428.88,-219 422.88,-225 416.88,-225"/>
<text xml:space="preserve" text-anchor="middle" x="369.65" y="-202.55" font-family="Helvetica,sans-Serif" font-size="11.00" fill="#134e4a">Information Retrieval</text>
</g>
<!-- ai:natural&#45;language&#45;and&#45;speech&#45;&gt;ai:information&#45;retrieval -->
<g id="edge5" class="edge">
<title>ai:natural&#45;language&#45;and&#45;speech&#45;&gt;ai:information&#45;retrieval</title>
<path fill="none" stroke="#94a3b8" d="M206.71,-225.97C238.58,-222.24 272.86,-218.22 301.65,-214.85"/>
<polygon fill="#94a3b8" stroke="#94a3b8" points="301.83,-217.29 308.5,-214.05 301.26,-212.43 301.83,-217.29"/>
</g>
<!-- ai:machine&#45;translation -->
<g id="node7" class="node">
<title>ai:machine&#45;translation</title>
<path fill="#f0fdfa" stroke="#5eead4" stroke-width="1.1" d="M415.38,-162C415.38,-162 323.91,-162 323.91,-162 317.91,-162 311.91,-156 311.91,-150 311.91,-150 311.91,-138 311.91,-138 311.91,-132 317.91,-126 323.91,-126 323.91,-126 415.38,-126 415.38,-126 421.38,-126 427.38,-132 427.38,-138 427.38,-138 427.38,-150 427.38,-150 427.38,-156 421.38,-162 415.38,-162"/>
<text xml:space="preserve" text-anchor="middle" x="369.65" y="-139.55" font-family="Helvetica,sans-Serif" font-size="11.00" fill="#134e4a">Machine Translation</text>
</g>
<!-- ai:natural&#45;language&#45;and&#45;speech&#45;&gt;ai:machine&#45;translation -->
<g id="edge6" class="edge">
<title>ai:natural&#45;language&#45;and&#45;speech&#45;&gt;ai:machine&#45;translation</title>
<path fill="none" stroke="#94a3b8" d="M156.94,-219.2C200.85,-203.6 263.28,-181.43 308.97,-165.2"/>
<polygon fill="#94a3b8" stroke="#94a3b8" points="309.53,-167.6 315.3,-162.95 307.89,-162.98 309.53,-167.6"/>
</g>
<!-- ai:natural&#45;language&#45;generation -->
<g id="node8" class="node">
<title>ai:natural&#45;language&#45;generation</title>
<path fill="#f0fdfa" stroke="#5eead4" stroke-width="1.1" d="M438.26,-99C438.26,-99 301.04,-99 301.04,-99 295.04,-99 289.04,-93 289.04,-87 289.04,-87 289.04,-75 289.04,-75 289.04,-69 295.04,-63 301.04,-63 301.04,-63 438.26,-63 438.26,-63 444.26,-63 450.26,-69 450.26,-75 450.26,-75 450.26,-87 450.26,-87 450.26,-93 444.26,-99 438.26,-99"/>
<text xml:space="preserve" text-anchor="middle" x="369.65" y="-76.55" font-family="Helvetica,sans-Serif" font-size="11.00" fill="#134e4a">Natural Language Generation</text>
</g>
<!-- ai:natural&#45;language&#45;and&#45;speech&#45;&gt;ai:natural&#45;language&#45;generation -->
<g id="edge7" class="edge">
<title>ai:natural&#45;language&#45;and&#45;speech&#45;&gt;ai:natural&#45;language&#45;generation</title>
<path fill="none" stroke="#94a3b8" d="M128.11,-219.27C162.45,-193.15 228.1,-145.36 289.04,-113 295.95,-109.33 303.37,-105.82 310.8,-102.56"/>
<polygon fill="#94a3b8" stroke="#94a3b8" points="311.36,-104.99 316.83,-99.98 309.44,-100.48 311.36,-104.99"/>
</g>
<!-- ai:language&#45;understanding -->
<g id="node9" class="node">
<title>ai:language&#45;understanding</title>
<path fill="#f0fdfa" stroke="#5eead4" stroke-width="1.1" d="M427.76,-36C427.76,-36 311.54,-36 311.54,-36 305.54,-36 299.54,-30 299.54,-24 299.54,-24 299.54,-12 299.54,-12 299.54,-6 305.54,0 311.54,0 311.54,0 427.76,0 427.76,0 433.76,0 439.76,-6 439.76,-12 439.76,-12 439.76,-24 439.76,-24 439.76,-30 433.76,-36 427.76,-36"/>
<text xml:space="preserve" text-anchor="middle" x="369.65" y="-13.55" font-family="Helvetica,sans-Serif" font-size="11.00" fill="#134e4a">Language Understanding</text>
</g>
<!-- ai:natural&#45;language&#45;and&#45;speech&#45;&gt;ai:language&#45;understanding -->
<g id="edge8" class="edge">
<title>ai:natural&#45;language&#45;and&#45;speech&#45;&gt;ai:language&#45;understanding</title>
<path fill="none" stroke="#94a3b8" d="M118.09,-219.21C146.63,-182.25 214.92,-99.39 289.04,-50 294.44,-46.4 300.32,-43.1 306.34,-40.1"/>
<polygon fill="#94a3b8" stroke="#94a3b8" points="307.38,-42.31 312.66,-37.1 305.28,-37.88 307.38,-42.31"/>
</g>
</g>
</svg>
