<?xml version="1.0" encoding="UTF-8" standalone="no"?>
<!DOCTYPE svg PUBLIC "-//W3C//DTD SVG 1.1//EN"
 "http://www.w3.org/Graphics/SVG/1.1/DTD/svg11.dtd">
<!-- Generated by graphviz version 15.0.0 (20260523.1842)
 -->
<!-- Title: AIAtlasSection_robotics_and_embodied_ai Pages: 1 -->
<svg width="440pt" height="576pt"
 viewBox="0.00 0.00 440.00 576.00" xmlns="http://www.w3.org/2000/svg" xmlns:xlink="http://www.w3.org/1999/xlink">
<g id="graph0" class="graph" transform="scale(1 1) rotate(0) translate(18 558)">
<title>AIAtlasSection_robotics_and_embodied_ai</title>
<polygon fill="#ffffff" stroke="none" points="-18,18 -18,-558 421.76,-558 421.76,18 -18,18"/>
<!-- ai:robotics&#45;and&#45;embodied&#45;ai -->
<g id="node1" class="node">
<title>ai:robotics&#45;and&#45;embodied&#45;ai</title>
<path fill="#ccfbf1" stroke="#0f766e" stroke-width="1.8" d="M168.54,-288C168.54,-288 12,-288 12,-288 6,-288 0,-282 0,-276 0,-276 0,-264 0,-264 0,-258 6,-252 12,-252 12,-252 168.54,-252 168.54,-252 174.54,-252 180.54,-258 180.54,-264 180.54,-264 180.54,-276 180.54,-276 180.54,-282 174.54,-288 168.54,-288"/>
<text xml:space="preserve" text-anchor="middle" x="90.27" y="-264.4" font-family="Helvetica,sans-Serif" font-size="13.00" fill="#134e4a">Robotics and Embodied AI</text>
</g>
<!-- ai:control&#45;systems -->
<g id="node2" class="node">
<title>ai:control&#45;systems</title>
<path fill="#f0fdfa" stroke="#5eead4" stroke-width="1.1" d="M370.76,-540C370.76,-540 296.54,-540 296.54,-540 290.54,-540 284.54,-534 284.54,-528 284.54,-528 284.54,-516 284.54,-516 284.54,-510 290.54,-504 296.54,-504 296.54,-504 370.76,-504 370.76,-504 376.76,-504 382.76,-510 382.76,-516 382.76,-516 382.76,-528 382.76,-528 382.76,-534 376.76,-540 370.76,-540"/>
<text xml:space="preserve" text-anchor="middle" x="333.65" y="-517.55" font-family="Helvetica,sans-Serif" font-size="11.00" fill="#134e4a">Control Systems</text>
</g>
<!-- ai:robotics&#45;and&#45;embodied&#45;ai&#45;&gt;ai:control&#45;systems -->
<g id="edge1" class="edge">
<title>ai:robotics&#45;and&#45;embodied&#45;ai&#45;&gt;ai:control&#45;systems</title>
<path fill="none" stroke="#94a3b8" d="M101.58,-288.79C125.21,-330.35 187.18,-431.1 263.54,-491 267.61,-494.2 272.07,-497.14 276.69,-499.84"/>
<polygon fill="#94a3b8" stroke="#94a3b8" points="275.42,-501.94 282.74,-503.15 277.77,-497.64 275.42,-501.94"/>
</g>
<!-- ai:robot&#45;perception -->
<g id="node3" class="node">
<title>ai:robot&#45;perception</title>
<path fill="#f0fdfa" stroke="#5eead4" stroke-width="1.1" d="M373.01,-477C373.01,-477 294.29,-477 294.29,-477 288.29,-477 282.29,-471 282.29,-465 282.29,-465 282.29,-453 282.29,-453 282.29,-447 288.29,-441 294.29,-441 294.29,-441 373.01,-441 373.01,-441 379.01,-441 385.01,-447 385.01,-453 385.01,-453 385.01,-465 385.01,-465 385.01,-471 379.01,-477 373.01,-477"/>
<text xml:space="preserve" text-anchor="middle" x="333.65" y="-454.55" font-family="Helvetica,sans-Serif" font-size="11.00" fill="#134e4a">Robot Perception</text>
</g>
<!-- ai:robotics&#45;and&#45;embodied&#45;ai&#45;&gt;ai:robot&#45;perception -->
<g id="edge2" class="edge">
<title>ai:robotics&#45;and&#45;embodied&#45;ai&#45;&gt;ai:robot&#45;perception</title>
<path fill="none" stroke="#94a3b8" d="M107.79,-288.65C136.77,-320.51 199.8,-386.07 263.54,-428 268.19,-431.06 273.19,-433.95 278.3,-436.66"/>
<polygon fill="#94a3b8" stroke="#94a3b8" points="277.14,-438.81 284.49,-439.79 279.35,-434.44 277.14,-438.81"/>
</g>
<!-- ai:localization&#45;and&#45;mapping -->
<g id="node4" class="node">
<title>ai:localization&#45;and&#45;mapping</title>
<path fill="#f0fdfa" stroke="#5eead4" stroke-width="1.1" d="M391.76,-414C391.76,-414 275.54,-414 275.54,-414 269.54,-414 263.54,-408 263.54,-402 263.54,-402 263.54,-390 263.54,-390 263.54,-384 269.54,-378 275.54,-378 275.54,-378 391.76,-378 391.76,-378 397.76,-378 403.76,-384 403.76,-390 403.76,-390 403.76,-402 403.76,-402 403.76,-408 397.76,-414 391.76,-414"/>
<text xml:space="preserve" text-anchor="middle" x="333.65" y="-391.55" font-family="Helvetica,sans-Serif" font-size="11.00" fill="#134e4a">Localization and Mapping</text>
</g>
<!-- ai:robotics&#45;and&#45;embodied&#45;ai&#45;&gt;ai:localization&#45;and&#45;mapping -->
<g id="edge3" class="edge">
<title>ai:robotics&#45;and&#45;embodied&#45;ai&#45;&gt;ai:localization&#45;and&#45;mapping</title>
<path fill="none" stroke="#94a3b8" d="M123.55,-288.84C157.85,-308.62 213.88,-340.22 263.54,-365 269.63,-368.04 276.08,-371.11 282.5,-374.09"/>
<polygon fill="#94a3b8" stroke="#94a3b8" points="281.24,-376.21 288.62,-376.9 283.28,-371.75 281.24,-376.21"/>
</g>
<!-- ai:motion&#45;planning -->
<g id="node5" class="node">
<title>ai:motion&#45;planning</title>
<path fill="#f0fdfa" stroke="#5eead4" stroke-width="1.1" d="M369.63,-351C369.63,-351 297.66,-351 297.66,-351 291.66,-351 285.66,-345 285.66,-339 285.66,-339 285.66,-327 285.66,-327 285.66,-321 291.66,-315 297.66,-315 297.66,-315 369.63,-315 369.63,-315 375.63,-315 381.63,-321 381.63,-327 381.63,-327 381.63,-339 381.63,-339 381.63,-345 375.63,-351 369.63,-351"/>
<text xml:space="preserve" text-anchor="middle" x="333.65" y="-328.55" font-family="Helvetica,sans-Serif" font-size="11.00" fill="#134e4a">Motion Planning</text>
</g>
<!-- ai:robotics&#45;and&#45;embodied&#45;ai&#45;&gt;ai:motion&#45;planning -->
<g id="edge4" class="edge">
<title>ai:robotics&#45;and&#45;embodied&#45;ai&#45;&gt;ai:motion&#45;planning</title>
<path fill="none" stroke="#94a3b8" d="M163.37,-288.82C199.89,-298.35 243.54,-309.74 277.37,-318.57"/>
<polygon fill="#94a3b8" stroke="#94a3b8" points="276.45,-320.86 283.85,-320.26 277.69,-316.12 276.45,-320.86"/>
</g>
<!-- ai:manipulation -->
<g id="node6" class="node">
<title>ai:manipulation</title>
<path fill="#f0fdfa" stroke="#5eead4" stroke-width="1.1" d="M361.38,-288C361.38,-288 305.91,-288 305.91,-288 299.91,-288 293.91,-282 293.91,-276 293.91,-276 293.91,-264 293.91,-264 293.91,-258 299.91,-252 305.91,-252 305.91,-252 361.38,-252 361.38,-252 367.38,-252 373.38,-258 373.38,-264 373.38,-264 373.38,-276 373.38,-276 373.38,-282 367.38,-288 361.38,-288"/>
<text xml:space="preserve" text-anchor="middle" x="333.65" y="-265.55" font-family="Helvetica,sans-Serif" font-size="11.00" fill="#134e4a">Manipulation</text>
</g>
<!-- ai:robotics&#45;and&#45;embodied&#45;ai&#45;&gt;ai:manipulation -->
<g id="edge5" class="edge">
<title>ai:robotics&#45;and&#45;embodied&#45;ai&#45;&gt;ai:manipulation</title>
<path fill="none" stroke="#94a3b8" d="M181.15,-270C216.41,-270 255.42,-270 285.03,-270"/>
<polygon fill="#94a3b8" stroke="#94a3b8" points="285,-272.45 292,-270 285,-267.55 285,-272.45"/>
</g>
<!-- ai:autonomous&#45;vehicles -->
<g id="node7" class="node">
<title>ai:autonomous&#45;vehicles</title>
<path fill="#f0fdfa" stroke="#5eead4" stroke-width="1.1" d="M382.76,-225C382.76,-225 284.54,-225 284.54,-225 278.54,-225 272.54,-219 272.54,-213 272.54,-213 272.54,-201 272.54,-201 272.54,-195 278.54,-189 284.54,-189 284.54,-189 382.76,-189 382.76,-189 388.76,-189 394.76,-195 394.76,-201 394.76,-201 394.76,-213 394.76,-213 394.76,-219 388.76,-225 382.76,-225"/>
<text xml:space="preserve" text-anchor="middle" x="333.65" y="-202.55" font-family="Helvetica,sans-Serif" font-size="11.00" fill="#134e4a">Autonomous Vehicles</text>
</g>
<!-- ai:robotics&#45;and&#45;embodied&#45;ai&#45;&gt;ai:autonomous&#45;vehicles -->
<g id="edge6" class="edge">
<title>ai:robotics&#45;and&#45;embodied&#45;ai&#45;&gt;ai:autonomous&#45;vehicles</title>
<path fill="none" stroke="#94a3b8" d="M163.37,-251.18C195.38,-242.83 232.88,-233.04 264.43,-224.81"/>
<polygon fill="#94a3b8" stroke="#94a3b8" points="264.7,-227.27 270.85,-223.13 263.46,-222.53 264.7,-227.27"/>
</g>
<!-- ai:human&#45;robot&#45;interaction -->
<g id="node8" class="node">
<title>ai:human&#45;robot&#45;interaction</title>
<path fill="#f0fdfa" stroke="#5eead4" stroke-width="1.1" d="M391.76,-162C391.76,-162 275.54,-162 275.54,-162 269.54,-162 263.54,-156 263.54,-150 263.54,-150 263.54,-138 263.54,-138 263.54,-132 269.54,-126 275.54,-126 275.54,-126 391.76,-126 391.76,-126 397.76,-126 403.76,-132 403.76,-138 403.76,-138 403.76,-150 403.76,-150 403.76,-156 397.76,-162 391.76,-162"/>
<text xml:space="preserve" text-anchor="middle" x="333.65" y="-139.55" font-family="Helvetica,sans-Serif" font-size="11.00" fill="#134e4a">Human&#45;Robot Interaction</text>
</g>
<!-- ai:robotics&#45;and&#45;embodied&#45;ai&#45;&gt;ai:human&#45;robot&#45;interaction -->
<g id="edge7" class="edge">
<title>ai:robotics&#45;and&#45;embodied&#45;ai&#45;&gt;ai:human&#45;robot&#45;interaction</title>
<path fill="none" stroke="#94a3b8" d="M124.27,-251.15C158.7,-231.68 214.4,-200.75 263.54,-176 270.13,-172.68 277.13,-169.29 284.05,-166.01"/>
<polygon fill="#94a3b8" stroke="#94a3b8" points="284.84,-168.35 290.14,-163.15 282.76,-163.91 284.84,-168.35"/>
</g>
<!-- ai:robot&#45;learning -->
<g id="node9" class="node">
<title>ai:robot&#45;learning</title>
<path fill="#f0fdfa" stroke="#5eead4" stroke-width="1.1" d="M368.13,-99C368.13,-99 299.16,-99 299.16,-99 293.16,-99 287.16,-93 287.16,-87 287.16,-87 287.16,-75 287.16,-75 287.16,-69 293.16,-63 299.16,-63 299.16,-63 368.13,-63 368.13,-63 374.13,-63 380.13,-69 380.13,-75 380.13,-75 380.13,-87 380.13,-87 380.13,-93 374.13,-99 368.13,-99"/>
<text xml:space="preserve" text-anchor="middle" x="333.65" y="-76.55" font-family="Helvetica,sans-Serif" font-size="11.00" fill="#134e4a">Robot Learning</text>
</g>
<!-- ai:robotics&#45;and&#45;embodied&#45;ai&#45;&gt;ai:robot&#45;learning -->
<g id="edge8" class="edge">
<title>ai:robotics&#45;and&#45;embodied&#45;ai&#45;&gt;ai:robot&#45;learning</title>
<path fill="none" stroke="#94a3b8" d="M108.1,-251.31C137.31,-219.69 200.34,-154.98 263.54,-113 268.81,-109.5 274.52,-106.19 280.32,-103.13"/>
<polygon fill="#94a3b8" stroke="#94a3b8" points="281.22,-105.42 286.35,-100.06 279,-101.05 281.22,-105.42"/>
</g>
<!-- ai:embodied&#45;agents -->
<g id="node10" class="node">
<title>ai:embodied&#45;agents</title>
<path fill="#f0fdfa" stroke="#5eead4" stroke-width="1.1" d="M373.38,-36C373.38,-36 293.91,-36 293.91,-36 287.91,-36 281.91,-30 281.91,-24 281.91,-24 281.91,-12 281.91,-12 281.91,-6 287.91,0 293.91,0 293.91,0 373.38,0 373.38,0 379.38,0 385.38,-6 385.38,-12 385.38,-12 385.38,-24 385.38,-24 385.38,-30 379.38,-36 373.38,-36"/>
<text xml:space="preserve" text-anchor="middle" x="333.65" y="-13.55" font-family="Helvetica,sans-Serif" font-size="11.00" fill="#134e4a">Embodied Agents</text>
</g>
<!-- ai:robotics&#45;and&#45;embodied&#45;ai&#45;&gt;ai:embodied&#45;agents -->
<g id="edge9" class="edge">
<title>ai:robotics&#45;and&#45;embodied&#45;ai&#45;&gt;ai:embodied&#45;agents</title>
<path fill="none" stroke="#94a3b8" d="M101.66,-251.36C125.44,-210.14 187.69,-110.1 263.54,-50 267.86,-46.58 272.6,-43.42 277.51,-40.54"/>
<polygon fill="#94a3b8" stroke="#94a3b8" points="278.54,-42.77 283.48,-37.24 276.17,-38.48 278.54,-42.77"/>
</g>
</g>
</svg>
