<?xml version="1.0" encoding="UTF-8" standalone="no"?>
<!DOCTYPE svg PUBLIC "-//W3C//DTD SVG 1.1//EN"
 "http://www.w3.org/Graphics/SVG/1.1/DTD/svg11.dtd">
<!-- Generated by graphviz version 15.0.0 (20260523.1842)
 -->
<!-- Title: AIAtlasSection_search_planning_and_optimization Pages: 1 -->
<svg width="414pt" height="513pt"
 viewBox="0.00 0.00 414.00 513.00" xmlns="http://www.w3.org/2000/svg" xmlns:xlink="http://www.w3.org/1999/xlink">
<g id="graph0" class="graph" transform="scale(1 1) rotate(0) translate(18 495)">
<title>AIAtlasSection_search_planning_and_optimization</title>
<polygon fill="#ffffff" stroke="none" points="-18,18 -18,-495 395.51,-495 395.51,18 -18,18"/>
<!-- ai:search&#45;planning&#45;and&#45;optimization -->
<g id="node1" class="node">
<title>ai:search&#45;planning&#45;and&#45;optimization</title>
<path fill="#ccfbf1" stroke="#0f766e" stroke-width="1.8" d="M140.04,-259.42C140.04,-259.42 12,-259.42 12,-259.42 6,-259.42 0,-253.42 0,-247.42 0,-247.42 0,-228.58 0,-228.58 0,-222.58 6,-216.58 12,-216.58 12,-216.58 140.04,-216.58 140.04,-216.58 146.04,-216.58 152.04,-222.58 152.04,-228.58 152.04,-228.58 152.04,-247.42 152.04,-247.42 152.04,-253.42 146.04,-259.42 140.04,-259.42"/>
<text xml:space="preserve" text-anchor="middle" x="76.02" y="-239.15" font-family="Helvetica,sans-Serif" font-size="13.00" fill="#134e4a">Search, Planning and</text>
<text xml:space="preserve" text-anchor="middle" x="76.02" y="-225.65" font-family="Helvetica,sans-Serif" font-size="13.00" fill="#134e4a">Optimization</text>
</g>
<!-- ai:state&#45;space&#45;search -->
<g id="node2" class="node">
<title>ai:state&#45;space&#45;search</title>
<path fill="#f0fdfa" stroke="#5eead4" stroke-width="1.1" d="M352.38,-477C352.38,-477 260.16,-477 260.16,-477 254.16,-477 248.16,-471 248.16,-465 248.16,-465 248.16,-453 248.16,-453 248.16,-447 254.16,-441 260.16,-441 260.16,-441 352.38,-441 352.38,-441 358.38,-441 364.38,-447 364.38,-453 364.38,-453 364.38,-465 364.38,-465 364.38,-471 358.38,-477 352.38,-477"/>
<text xml:space="preserve" text-anchor="middle" x="306.27" y="-454.55" font-family="Helvetica,sans-Serif" font-size="11.00" fill="#134e4a">State&#45;Space Search</text>
</g>
<!-- ai:search&#45;planning&#45;and&#45;optimization&#45;&gt;ai:state&#45;space&#45;search -->
<g id="edge1" class="edge">
<title>ai:search&#45;planning&#45;and&#45;optimization&#45;&gt;ai:state&#45;space&#45;search</title>
<path fill="none" stroke="#94a3b8" d="M90.52,-260.2C115.03,-298.88 170.31,-379.16 235.04,-428 239.16,-431.11 243.64,-433.99 248.28,-436.63"/>
<polygon fill="#94a3b8" stroke="#94a3b8" points="247,-438.73 254.33,-439.88 249.32,-434.41 247,-438.73"/>
</g>
<!-- ai:heuristic&#45;search -->
<g id="node3" class="node">
<title>ai:heuristic&#45;search</title>
<path fill="#f0fdfa" stroke="#5eead4" stroke-width="1.1" d="M343.38,-414C343.38,-414 269.16,-414 269.16,-414 263.16,-414 257.16,-408 257.16,-402 257.16,-402 257.16,-390 257.16,-390 257.16,-384 263.16,-378 269.16,-378 269.16,-378 343.38,-378 343.38,-378 349.38,-378 355.38,-384 355.38,-390 355.38,-390 355.38,-402 355.38,-402 355.38,-408 349.38,-414 343.38,-414"/>
<text xml:space="preserve" text-anchor="middle" x="306.27" y="-391.55" font-family="Helvetica,sans-Serif" font-size="11.00" fill="#134e4a">Heuristic Search</text>
</g>
<!-- ai:search&#45;planning&#45;and&#45;optimization&#45;&gt;ai:heuristic&#45;search -->
<g id="edge2" class="edge">
<title>ai:search&#45;planning&#45;and&#45;optimization&#45;&gt;ai:heuristic&#45;search</title>
<path fill="none" stroke="#94a3b8" d="M100.45,-260.13C130.07,-287.3 183.46,-333.64 235.04,-365 240.13,-368.09 245.58,-371.05 251.12,-373.83"/>
<polygon fill="#94a3b8" stroke="#94a3b8" points="249.96,-375.99 257.32,-376.84 252.09,-371.58 249.96,-375.99"/>
</g>
<!-- ai:adversarial&#45;search -->
<g id="node4" class="node">
<title>ai:adversarial&#45;search</title>
<path fill="#f0fdfa" stroke="#5eead4" stroke-width="1.1" d="M349.38,-351C349.38,-351 263.16,-351 263.16,-351 257.16,-351 251.16,-345 251.16,-339 251.16,-339 251.16,-327 251.16,-327 251.16,-321 257.16,-315 263.16,-315 263.16,-315 349.38,-315 349.38,-315 355.38,-315 361.38,-321 361.38,-327 361.38,-327 361.38,-339 361.38,-339 361.38,-345 355.38,-351 349.38,-351"/>
<text xml:space="preserve" text-anchor="middle" x="306.27" y="-328.55" font-family="Helvetica,sans-Serif" font-size="11.00" fill="#134e4a">Adversarial Search</text>
</g>
<!-- ai:search&#45;planning&#45;and&#45;optimization&#45;&gt;ai:adversarial&#45;search -->
<g id="edge3" class="edge">
<title>ai:search&#45;planning&#45;and&#45;optimization&#45;&gt;ai:adversarial&#45;search</title>
<path fill="none" stroke="#94a3b8" d="M130.54,-260.27C167.56,-275.68 216.58,-296.09 253.28,-311.36"/>
<polygon fill="#94a3b8" stroke="#94a3b8" points="252.11,-313.53 259.52,-313.95 253.99,-309 252.11,-313.53"/>
</g>
<!-- ai:automated&#45;planning -->
<g id="node5" class="node">
<title>ai:automated&#45;planning</title>
<path fill="#f0fdfa" stroke="#5eead4" stroke-width="1.1" d="M352.38,-288C352.38,-288 260.16,-288 260.16,-288 254.16,-288 248.16,-282 248.16,-276 248.16,-276 248.16,-264 248.16,-264 248.16,-258 254.16,-252 260.16,-252 260.16,-252 352.38,-252 352.38,-252 358.38,-252 364.38,-258 364.38,-264 364.38,-264 364.38,-276 364.38,-276 364.38,-282 358.38,-288 352.38,-288"/>
<text xml:space="preserve" text-anchor="middle" x="306.27" y="-265.55" font-family="Helvetica,sans-Serif" font-size="11.00" fill="#134e4a">Automated Planning</text>
</g>
<!-- ai:search&#45;planning&#45;and&#45;optimization&#45;&gt;ai:automated&#45;planning -->
<g id="edge4" class="edge">
<title>ai:search&#45;planning&#45;and&#45;optimization&#45;&gt;ai:automated&#45;planning</title>
<path fill="none" stroke="#94a3b8" d="M152.71,-248.61C180.82,-252.55 212.45,-256.99 239.59,-260.79"/>
<polygon fill="#94a3b8" stroke="#94a3b8" points="239.09,-263.19 246.36,-261.74 239.77,-258.34 239.09,-263.19"/>
</g>
<!-- ai:scheduling -->
<g id="node6" class="node">
<title>ai:scheduling</title>
<path fill="#f0fdfa" stroke="#5eead4" stroke-width="1.1" d="M330.26,-225C330.26,-225 282.29,-225 282.29,-225 276.29,-225 270.29,-219 270.29,-213 270.29,-213 270.29,-201 270.29,-201 270.29,-195 276.29,-189 282.29,-189 282.29,-189 330.26,-189 330.26,-189 336.26,-189 342.26,-195 342.26,-201 342.26,-201 342.26,-213 342.26,-213 342.26,-219 336.26,-225 330.26,-225"/>
<text xml:space="preserve" text-anchor="middle" x="306.27" y="-202.55" font-family="Helvetica,sans-Serif" font-size="11.00" fill="#134e4a">Scheduling</text>
</g>
<!-- ai:search&#45;planning&#45;and&#45;optimization&#45;&gt;ai:scheduling -->
<g id="edge5" class="edge">
<title>ai:search&#45;planning&#45;and&#45;optimization&#45;&gt;ai:scheduling</title>
<path fill="none" stroke="#94a3b8" d="M152.71,-227.72C188.89,-222.81 230.9,-217.1 261.67,-212.92"/>
<polygon fill="#94a3b8" stroke="#94a3b8" points="261.93,-215.36 268.54,-211.99 261.27,-210.5 261.93,-215.36"/>
</g>
<!-- ai:optimization -->
<g id="node7" class="node">
<title>ai:optimization</title>
<path fill="#f0fdfa" stroke="#5eead4" stroke-width="1.1" d="M333.26,-162C333.26,-162 279.29,-162 279.29,-162 273.29,-162 267.29,-156 267.29,-150 267.29,-150 267.29,-138 267.29,-138 267.29,-132 273.29,-126 279.29,-126 279.29,-126 333.26,-126 333.26,-126 339.26,-126 345.26,-132 345.26,-138 345.26,-138 345.26,-150 345.26,-150 345.26,-156 339.26,-162 333.26,-162"/>
<text xml:space="preserve" text-anchor="middle" x="306.27" y="-139.55" font-family="Helvetica,sans-Serif" font-size="11.00" fill="#134e4a">Optimization</text>
</g>
<!-- ai:search&#45;planning&#45;and&#45;optimization&#45;&gt;ai:optimization -->
<g id="edge6" class="edge">
<title>ai:search&#45;planning&#45;and&#45;optimization&#45;&gt;ai:optimization</title>
<path fill="none" stroke="#94a3b8" d="M131.11,-215.72C170.13,-199.66 222.23,-178.2 259.25,-162.95"/>
<polygon fill="#94a3b8" stroke="#94a3b8" points="259.98,-165.3 265.52,-160.37 258.11,-160.77 259.98,-165.3"/>
</g>
<!-- ai:evolutionary&#45;computation -->
<g id="node8" class="node">
<title>ai:evolutionary&#45;computation</title>
<path fill="#f0fdfa" stroke="#5eead4" stroke-width="1.1" d="M365.51,-99C365.51,-99 247.04,-99 247.04,-99 241.04,-99 235.04,-93 235.04,-87 235.04,-87 235.04,-75 235.04,-75 235.04,-69 241.04,-63 247.04,-63 247.04,-63 365.51,-63 365.51,-63 371.51,-63 377.51,-69 377.51,-75 377.51,-75 377.51,-87 377.51,-87 377.51,-93 371.51,-99 365.51,-99"/>
<text xml:space="preserve" text-anchor="middle" x="306.27" y="-76.55" font-family="Helvetica,sans-Serif" font-size="11.00" fill="#134e4a">Evolutionary Computation</text>
</g>
<!-- ai:search&#45;planning&#45;and&#45;optimization&#45;&gt;ai:evolutionary&#45;computation -->
<g id="edge7" class="edge">
<title>ai:search&#45;planning&#45;and&#45;optimization&#45;&gt;ai:evolutionary&#45;computation</title>
<path fill="none" stroke="#94a3b8" d="M101.09,-215.89C130.95,-189.21 184.14,-144.09 235.04,-113 240.79,-109.49 247,-106.12 253.25,-102.97"/>
<polygon fill="#94a3b8" stroke="#94a3b8" points="254.02,-105.32 259.24,-100.05 251.87,-100.92 254.02,-105.32"/>
</g>
<!-- ai:monte&#45;carlo&#45;tree&#45;search -->
<g id="node9" class="node">
<title>ai:monte&#45;carlo&#45;tree&#45;search</title>
<path fill="#f0fdfa" stroke="#5eead4" stroke-width="1.1" d="M364.76,-36C364.76,-36 247.79,-36 247.79,-36 241.79,-36 235.79,-30 235.79,-24 235.79,-24 235.79,-12 235.79,-12 235.79,-6 241.79,0 247.79,0 247.79,0 364.76,0 364.76,0 370.76,0 376.76,-6 376.76,-12 376.76,-12 376.76,-24 376.76,-24 376.76,-30 370.76,-36 364.76,-36"/>
<text xml:space="preserve" text-anchor="middle" x="306.27" y="-13.55" font-family="Helvetica,sans-Serif" font-size="11.00" fill="#134e4a">Monte Carlo Tree Search</text>
</g>
<!-- ai:search&#45;planning&#45;and&#45;optimization&#45;&gt;ai:monte&#45;carlo&#45;tree&#45;search -->
<g id="edge8" class="edge">
<title>ai:search&#45;planning&#45;and&#45;optimization&#45;&gt;ai:monte&#45;carlo&#45;tree&#45;search</title>
<path fill="none" stroke="#94a3b8" d="M90.84,-215.82C115.62,-177.57 171.04,-98.62 235.04,-50 239.66,-46.49 244.73,-43.25 249.96,-40.29"/>
<polygon fill="#94a3b8" stroke="#94a3b8" points="250.82,-42.61 255.83,-37.15 248.51,-38.29 250.82,-42.61"/>
</g>
</g>
</svg>
