<?xml version="1.0" encoding="UTF-8" standalone="no"?>
<!DOCTYPE svg PUBLIC "-//W3C//DTD SVG 1.1//EN"
 "http://www.w3.org/Graphics/SVG/1.1/DTD/svg11.dtd">
<!-- Generated by graphviz version 15.0.0 (20260523.1842)
 -->
<!-- Title: AIAtlasSection_symbolic_ai Pages: 1 -->
<svg width="338pt" height="513pt"
 viewBox="0.00 0.00 338.00 513.00" xmlns="http://www.w3.org/2000/svg" xmlns:xlink="http://www.w3.org/1999/xlink">
<g id="graph0" class="graph" transform="scale(1 1) rotate(0) translate(18 495)">
<title>AIAtlasSection_symbolic_ai</title>
<polygon fill="#ffffff" stroke="none" points="-18,18 -18,-495 319.76,-495 319.76,18 -18,18"/>
<!-- ai:symbolic&#45;ai -->
<g id="node1" class="node">
<title>ai:symbolic&#45;ai</title>
<path fill="#ccfbf1" stroke="#0f766e" stroke-width="1.8" d="M80.04,-256C80.04,-256 12,-256 12,-256 6,-256 0,-250 0,-244 0,-244 0,-232 0,-232 0,-226 6,-220 12,-220 12,-220 80.04,-220 80.04,-220 86.04,-220 92.04,-226 92.04,-232 92.04,-232 92.04,-244 92.04,-244 92.04,-250 86.04,-256 80.04,-256"/>
<text xml:space="preserve" text-anchor="middle" x="46.02" y="-232.4" font-family="Helvetica,sans-Serif" font-size="13.00" fill="#134e4a">Symbolic AI</text>
</g>
<!-- ai:rule&#45;based&#45;systems -->
<g id="node2" class="node">
<title>ai:rule&#45;based&#45;systems</title>
<path fill="#f0fdfa" stroke="#5eead4" stroke-width="1.1" d="M286.38,-477C286.38,-477 190.41,-477 190.41,-477 184.41,-477 178.41,-471 178.41,-465 178.41,-465 178.41,-453 178.41,-453 178.41,-447 184.41,-441 190.41,-441 190.41,-441 286.38,-441 286.38,-441 292.38,-441 298.38,-447 298.38,-453 298.38,-453 298.38,-465 298.38,-465 298.38,-471 292.38,-477 286.38,-477"/>
<text xml:space="preserve" text-anchor="middle" x="238.4" y="-454.55" font-family="Helvetica,sans-Serif" font-size="11.00" fill="#134e4a">Rule&#45;Based Systems</text>
</g>
<!-- ai:symbolic&#45;ai&#45;&gt;ai:rule&#45;based&#45;systems -->
<g id="edge1" class="edge">
<title>ai:symbolic&#45;ai&#45;&gt;ai:rule&#45;based&#45;systems</title>
<path fill="none" stroke="#94a3b8" d="M55.56,-256.8C73.19,-293.83 116.86,-377.01 175.04,-428 178.39,-430.94 182.07,-433.67 185.92,-436.2"/>
<polygon fill="#94a3b8" stroke="#94a3b8" points="184.44,-438.17 191.69,-439.74 187,-433.99 184.44,-438.17"/>
</g>
<!-- ai:expert&#45;systems -->
<g id="node3" class="node">
<title>ai:expert&#45;systems</title>
<path fill="#f0fdfa" stroke="#5eead4" stroke-width="1.1" d="M273.63,-414C273.63,-414 203.16,-414 203.16,-414 197.16,-414 191.16,-408 191.16,-402 191.16,-402 191.16,-390 191.16,-390 191.16,-384 197.16,-378 203.16,-378 203.16,-378 273.63,-378 273.63,-378 279.63,-378 285.63,-384 285.63,-390 285.63,-390 285.63,-402 285.63,-402 285.63,-408 279.63,-414 273.63,-414"/>
<text xml:space="preserve" text-anchor="middle" x="238.4" y="-391.55" font-family="Helvetica,sans-Serif" font-size="11.00" fill="#134e4a">Expert Systems</text>
</g>
<!-- ai:symbolic&#45;ai&#45;&gt;ai:expert&#45;systems -->
<g id="edge2" class="edge">
<title>ai:symbolic&#45;ai&#45;&gt;ai:expert&#45;systems</title>
<path fill="none" stroke="#94a3b8" d="M62.43,-256.7C85.04,-283.28 129.48,-332.38 175.04,-365 179.23,-368 183.76,-370.86 188.39,-373.55"/>
<polygon fill="#94a3b8" stroke="#94a3b8" points="187.1,-375.63 194.41,-376.89 189.47,-371.35 187.1,-375.63"/>
</g>
<!-- ai:logic&#45;programming -->
<g id="node4" class="node">
<title>ai:logic&#45;programming</title>
<path fill="#f0fdfa" stroke="#5eead4" stroke-width="1.1" d="M282.63,-351C282.63,-351 194.16,-351 194.16,-351 188.16,-351 182.16,-345 182.16,-339 182.16,-339 182.16,-327 182.16,-327 182.16,-321 188.16,-315 194.16,-315 194.16,-315 282.63,-315 282.63,-315 288.63,-315 294.63,-321 294.63,-327 294.63,-327 294.63,-339 294.63,-339 294.63,-345 288.63,-351 282.63,-351"/>
<text xml:space="preserve" text-anchor="middle" x="238.4" y="-328.55" font-family="Helvetica,sans-Serif" font-size="11.00" fill="#134e4a">Logic Programming</text>
</g>
<!-- ai:symbolic&#45;ai&#45;&gt;ai:logic&#45;programming -->
<g id="edge3" class="edge">
<title>ai:symbolic&#45;ai&#45;&gt;ai:logic&#45;programming</title>
<path fill="none" stroke="#94a3b8" d="M84.54,-256.79C110.05,-269.55 144.57,-286.81 175.04,-302 180.75,-304.84 186.75,-307.83 192.68,-310.78"/>
<polygon fill="#94a3b8" stroke="#94a3b8" points="191.42,-312.89 198.78,-313.82 193.6,-308.51 191.42,-312.89"/>
</g>
<!-- ai:symbolic&#45;knowledge&#45;representation -->
<g id="node5" class="node">
<title>ai:symbolic&#45;knowledge&#45;representation</title>
<path fill="#f0fdfa" stroke="#5eead4" stroke-width="1.1" d="M286.01,-288.48C286.01,-288.48 190.79,-288.48 190.79,-288.48 184.79,-288.48 178.79,-282.48 178.79,-276.48 178.79,-276.48 178.79,-263.52 178.79,-263.52 178.79,-257.52 184.79,-251.52 190.79,-251.52 190.79,-251.52 286.01,-251.52 286.01,-251.52 292.01,-251.52 298.01,-257.52 298.01,-263.52 298.01,-263.52 298.01,-276.48 298.01,-276.48 298.01,-282.48 292.01,-288.48 286.01,-288.48"/>
<text xml:space="preserve" text-anchor="middle" x="238.4" y="-271.55" font-family="Helvetica,sans-Serif" font-size="11.00" fill="#134e4a">Symbolic Knowledge</text>
<text xml:space="preserve" text-anchor="middle" x="238.4" y="-259.55" font-family="Helvetica,sans-Serif" font-size="11.00" fill="#134e4a">Representation</text>
</g>
<!-- ai:symbolic&#45;ai&#45;&gt;ai:symbolic&#45;knowledge&#45;representation -->
<g id="edge4" class="edge">
<title>ai:symbolic&#45;ai&#45;&gt;ai:symbolic&#45;knowledge&#45;representation</title>
<path fill="none" stroke="#94a3b8" d="M92.62,-245.66C115.85,-249.57 144.54,-254.39 170.24,-258.71"/>
<polygon fill="#94a3b8" stroke="#94a3b8" points="169.67,-261.1 176.98,-259.84 170.48,-256.27 169.67,-261.1"/>
</g>
<!-- ai:automated&#45;reasoning -->
<g id="node6" class="node">
<title>ai:automated&#45;reasoning</title>
<path fill="#f0fdfa" stroke="#5eead4" stroke-width="1.1" d="M289.38,-225C289.38,-225 187.41,-225 187.41,-225 181.41,-225 175.41,-219 175.41,-213 175.41,-213 175.41,-201 175.41,-201 175.41,-195 181.41,-189 187.41,-189 187.41,-189 289.38,-189 289.38,-189 295.38,-189 301.38,-195 301.38,-201 301.38,-201 301.38,-213 301.38,-213 301.38,-219 295.38,-225 289.38,-225"/>
<text xml:space="preserve" text-anchor="middle" x="238.4" y="-202.55" font-family="Helvetica,sans-Serif" font-size="11.00" fill="#134e4a">Automated Reasoning</text>
</g>
<!-- ai:symbolic&#45;ai&#45;&gt;ai:automated&#45;reasoning -->
<g id="edge5" class="edge">
<title>ai:symbolic&#45;ai&#45;&gt;ai:automated&#45;reasoning</title>
<path fill="none" stroke="#94a3b8" d="M92.62,-230.57C114.76,-226.97 141.86,-222.56 166.61,-218.53"/>
<polygon fill="#94a3b8" stroke="#94a3b8" points="166.89,-220.96 173.4,-217.42 166.1,-216.13 166.89,-220.96"/>
</g>
<!-- ai:constraint&#45;satisfaction -->
<g id="node7" class="node">
<title>ai:constraint&#45;satisfaction</title>
<path fill="#f0fdfa" stroke="#5eead4" stroke-width="1.1" d="M289.76,-162C289.76,-162 187.04,-162 187.04,-162 181.04,-162 175.04,-156 175.04,-150 175.04,-150 175.04,-138 175.04,-138 175.04,-132 181.04,-126 187.04,-126 187.04,-126 289.76,-126 289.76,-126 295.76,-126 301.76,-132 301.76,-138 301.76,-138 301.76,-150 301.76,-150 301.76,-156 295.76,-162 289.76,-162"/>
<text xml:space="preserve" text-anchor="middle" x="238.4" y="-139.55" font-family="Helvetica,sans-Serif" font-size="11.00" fill="#134e4a">Constraint Satisfaction</text>
</g>
<!-- ai:symbolic&#45;ai&#45;&gt;ai:constraint&#45;satisfaction -->
<g id="edge6" class="edge">
<title>ai:symbolic&#45;ai&#45;&gt;ai:constraint&#45;satisfaction</title>
<path fill="none" stroke="#94a3b8" d="M85.09,-219.2C116.03,-203.93 159.75,-182.34 192.41,-166.21"/>
<polygon fill="#94a3b8" stroke="#94a3b8" points="193.5,-168.41 198.69,-163.11 191.33,-164.02 193.5,-168.41"/>
</g>
<!-- ai:knowledge&#45;graphs -->
<g id="node8" class="node">
<title>ai:knowledge&#45;graphs</title>
<path fill="#f0fdfa" stroke="#5eead4" stroke-width="1.1" d="M281.88,-99C281.88,-99 194.91,-99 194.91,-99 188.91,-99 182.91,-93 182.91,-87 182.91,-87 182.91,-75 182.91,-75 182.91,-69 188.91,-63 194.91,-63 194.91,-63 281.88,-63 281.88,-63 287.88,-63 293.88,-69 293.88,-75 293.88,-75 293.88,-87 293.88,-87 293.88,-93 287.88,-99 281.88,-99"/>
<text xml:space="preserve" text-anchor="middle" x="238.4" y="-76.55" font-family="Helvetica,sans-Serif" font-size="11.00" fill="#134e4a">Knowledge Graphs</text>
</g>
<!-- ai:symbolic&#45;ai&#45;&gt;ai:knowledge&#45;graphs -->
<g id="edge7" class="edge">
<title>ai:symbolic&#45;ai&#45;&gt;ai:knowledge&#45;graphs</title>
<path fill="none" stroke="#94a3b8" d="M62.93,-219.25C85.8,-193.11 130.16,-145.3 175.04,-113 179.73,-109.63 184.82,-106.41 190,-103.4"/>
<polygon fill="#94a3b8" stroke="#94a3b8" points="190.86,-105.72 195.78,-100.17 188.47,-101.44 190.86,-105.72"/>
</g>
<!-- ai:neuro&#45;symbolic&#45;ai -->
<g id="node9" class="node">
<title>ai:neuro&#45;symbolic&#45;ai</title>
<path fill="#f0fdfa" stroke="#5eead4" stroke-width="1.1" d="M280.76,-36C280.76,-36 196.04,-36 196.04,-36 190.04,-36 184.04,-30 184.04,-24 184.04,-24 184.04,-12 184.04,-12 184.04,-6 190.04,0 196.04,0 196.04,0 280.76,0 280.76,0 286.76,0 292.76,-6 292.76,-12 292.76,-12 292.76,-24 292.76,-24 292.76,-30 286.76,-36 280.76,-36"/>
<text xml:space="preserve" text-anchor="middle" x="238.4" y="-13.55" font-family="Helvetica,sans-Serif" font-size="11.00" fill="#134e4a">Neuro&#45;Symbolic AI</text>
</g>
<!-- ai:symbolic&#45;ai&#45;&gt;ai:neuro&#45;symbolic&#45;ai -->
<g id="edge8" class="edge">
<title>ai:symbolic&#45;ai&#45;&gt;ai:neuro&#45;symbolic&#45;ai</title>
<path fill="none" stroke="#94a3b8" d="M55.81,-219.18C73.71,-182.53 117.63,-100.72 175.04,-50 178.81,-46.67 182.99,-43.58 187.35,-40.74"/>
<polygon fill="#94a3b8" stroke="#94a3b8" points="188.32,-43.02 193.02,-37.28 185.77,-38.84 188.32,-43.02"/>
</g>
</g>
</svg>
