<?xml version="1.0" encoding="UTF-8" standalone="no"?>
<!DOCTYPE svg PUBLIC "-//W3C//DTD SVG 1.1//EN"
 "http://www.w3.org/Graphics/SVG/1.1/DTD/svg11.dtd">
<!-- Generated by graphviz version 15.0.0 (20260523.1842)
 -->
<!-- Title: AIAtlasOverview Pages: 1 -->
<svg width="1049pt" height="957pt"
 viewBox="0.00 0.00 1049.00 957.00" xmlns="http://www.w3.org/2000/svg" xmlns:xlink="http://www.w3.org/1999/xlink">
<g id="graph0" class="graph" transform="scale(1 1) rotate(0) translate(25.2 931.32)">
<title>AIAtlasOverview</title>
<polygon fill="#ffffff" stroke="none" points="-25.2,25.2 -25.2,-931.32 1024.12,-931.32 1024.12,25.2 -25.2,25.2"/>
<!-- ai:artificial&#45;intelligence -->
<g id="node1" class="node">
<title>ai:artificial&#45;intelligence</title>
<path fill="#0f766e" stroke="#115e59" stroke-width="2.6" d="M602.27,-476.79C602.27,-476.79 418.34,-476.79 418.34,-476.79 412.34,-476.79 406.34,-470.79 406.34,-464.79 406.34,-464.79 406.34,-444.75 406.34,-444.75 406.34,-438.75 412.34,-432.75 418.34,-432.75 418.34,-432.75 602.27,-432.75 602.27,-432.75 608.27,-432.75 614.27,-438.75 614.27,-444.75 614.27,-444.75 614.27,-464.79 614.27,-464.79 614.27,-470.79 608.27,-476.79 602.27,-476.79"/>
<text xml:space="preserve" text-anchor="middle" x="510.3" y="-446.27" font-family="Helvetica,sans-Serif" font-size="20.00" fill="#ffffff">Artificial Intelligence</text>
</g>
<!-- ai:symbolic&#45;ai -->
<g id="node2" class="node">
<title>ai:symbolic&#45;ai</title>
<path fill="#ccfbf1" stroke="#0f766e" stroke-width="1.8" d="M968.17,-577.24C968.17,-577.24 900.13,-577.24 900.13,-577.24 894.13,-577.24 888.13,-571.24 888.13,-565.24 888.13,-565.24 888.13,-553.24 888.13,-553.24 888.13,-547.24 894.13,-541.24 900.13,-541.24 900.13,-541.24 968.17,-541.24 968.17,-541.24 974.17,-541.24 980.17,-547.24 980.17,-553.24 980.17,-553.24 980.17,-565.24 980.17,-565.24 980.17,-571.24 974.17,-577.24 968.17,-577.24"/>
<text xml:space="preserve" text-anchor="middle" x="934.15" y="-553.64" font-family="Helvetica,sans-Serif" font-size="13.00" fill="#134e4a">Symbolic AI</text>
</g>
<!-- ai:artificial&#45;intelligence&#45;&gt;ai:symbolic&#45;ai -->
<g id="edge1" class="edge">
<title>ai:artificial&#45;intelligence&#45;&gt;ai:symbolic&#45;ai</title>
<path fill="none" stroke="#94a3b8" stroke-width="1.2" d="M604.9,-478.08C689.01,-498.82 809.13,-528.42 878.63,-545.56"/>
<polygon fill="#94a3b8" stroke="#94a3b8" stroke-width="1.2" points="877.59,-548 885.5,-547.25 878.85,-542.9 877.59,-548"/>
</g>
<!-- ai:machine&#45;learning -->
<g id="node3" class="node">
<title>ai:machine&#45;learning</title>
<path fill="#ccfbf1" stroke="#0f766e" stroke-width="1.8" d="M889.82,-762.24C889.82,-762.24 784.28,-762.24 784.28,-762.24 778.28,-762.24 772.28,-756.24 772.28,-750.24 772.28,-750.24 772.28,-738.24 772.28,-738.24 772.28,-732.24 778.28,-726.24 784.28,-726.24 784.28,-726.24 889.82,-726.24 889.82,-726.24 895.82,-726.24 901.82,-732.24 901.82,-738.24 901.82,-738.24 901.82,-750.24 901.82,-750.24 901.82,-756.24 895.82,-762.24 889.82,-762.24"/>
<text xml:space="preserve" text-anchor="middle" x="837.05" y="-738.64" font-family="Helvetica,sans-Serif" font-size="13.00" fill="#134e4a">Machine Learning</text>
</g>
<!-- ai:artificial&#45;intelligence&#45;&gt;ai:machine&#45;learning -->
<g id="edge2" class="edge">
<title>ai:artificial&#45;intelligence&#45;&gt;ai:machine&#45;learning</title>
<path fill="none" stroke="#94a3b8" stroke-width="1.2" d="M536.49,-477.97C597.15,-531.71 746.86,-664.34 809.16,-719.53"/>
<polygon fill="#94a3b8" stroke="#94a3b8" stroke-width="1.2" points="807.25,-721.35 814.6,-724.35 810.73,-717.42 807.25,-721.35"/>
</g>
<!-- ai:search&#45;planning&#45;and&#45;optimization -->
<g id="node4" class="node">
<title>ai:search&#45;planning&#45;and&#45;optimization</title>
<path fill="#ccfbf1" stroke="#0f766e" stroke-width="1.8" d="M729.12,-884.36C729.12,-884.36 601.08,-884.36 601.08,-884.36 595.08,-884.36 589.08,-878.36 589.08,-872.36 589.08,-872.36 589.08,-853.52 589.08,-853.52 589.08,-847.52 595.08,-841.52 601.08,-841.52 601.08,-841.52 729.12,-841.52 729.12,-841.52 735.12,-841.52 741.12,-847.52 741.12,-853.52 741.12,-853.52 741.12,-872.36 741.12,-872.36 741.12,-878.36 735.12,-884.36 729.12,-884.36"/>
<text xml:space="preserve" text-anchor="middle" x="665.1" y="-864.09" font-family="Helvetica,sans-Serif" font-size="13.00" fill="#134e4a">Search, Planning and</text>
<text xml:space="preserve" text-anchor="middle" x="665.1" y="-850.59" font-family="Helvetica,sans-Serif" font-size="13.00" fill="#134e4a">Optimization</text>
</g>
<!-- ai:artificial&#45;intelligence&#45;&gt;ai:search&#45;planning&#45;and&#45;optimization -->
<g id="edge3" class="edge">
<title>ai:artificial&#45;intelligence&#45;&gt;ai:search&#45;planning&#45;and&#45;optimization</title>
<path fill="none" stroke="#94a3b8" stroke-width="1.2" d="M519.07,-477.88C545.4,-547.3 623.78,-753.99 653.5,-832.35"/>
<polygon fill="#94a3b8" stroke="#94a3b8" stroke-width="1.2" points="650.96,-833.04 656.07,-839.13 655.86,-831.18 650.96,-833.04"/>
</g>
<!-- ai:knowledge&#45;and&#45;reasoning -->
<g id="node5" class="node">
<title>ai:knowledge&#45;and&#45;reasoning</title>
<path fill="#ccfbf1" stroke="#0f766e" stroke-width="1.8" d="M537.83,-906.12C537.83,-906.12 377.54,-906.12 377.54,-906.12 371.54,-906.12 365.54,-900.12 365.54,-894.12 365.54,-894.12 365.54,-882.12 365.54,-882.12 365.54,-876.12 371.54,-870.12 377.54,-870.12 377.54,-870.12 537.83,-870.12 537.83,-870.12 543.83,-870.12 549.83,-876.12 549.83,-882.12 549.83,-882.12 549.83,-894.12 549.83,-894.12 549.83,-900.12 543.83,-906.12 537.83,-906.12"/>
<text xml:space="preserve" text-anchor="middle" x="457.68" y="-882.52" font-family="Helvetica,sans-Serif" font-size="13.00" fill="#134e4a">Knowledge and Reasoning</text>
</g>
<!-- ai:artificial&#45;intelligence&#45;&gt;ai:knowledge&#45;and&#45;reasoning -->
<g id="edge4" class="edge">
<title>ai:artificial&#45;intelligence&#45;&gt;ai:knowledge&#45;and&#45;reasoning</title>
<path fill="none" stroke="#94a3b8" stroke-width="1.2" d="M507.47,-478.07C498.51,-551.89 470.76,-780.46 461.07,-860.27"/>
<polygon fill="#94a3b8" stroke="#94a3b8" stroke-width="1.2" points="458.49,-859.68 460.2,-867.44 463.71,-860.32 458.49,-859.68"/>
</g>
<!-- ai:robotics&#45;and&#45;embodied&#45;ai -->
<g id="node6" class="node">
<title>ai:robotics&#45;and&#45;embodied&#45;ai</title>
<path fill="#ccfbf1" stroke="#0f766e" stroke-width="1.8" d="M340.59,-832.03C340.59,-832.03 184.05,-832.03 184.05,-832.03 178.05,-832.03 172.05,-826.03 172.05,-820.03 172.05,-820.03 172.05,-808.03 172.05,-808.03 172.05,-802.03 178.05,-796.03 184.05,-796.03 184.05,-796.03 340.59,-796.03 340.59,-796.03 346.59,-796.03 352.59,-802.03 352.59,-808.03 352.59,-808.03 352.59,-820.03 352.59,-820.03 352.59,-826.03 346.59,-832.03 340.59,-832.03"/>
<text xml:space="preserve" text-anchor="middle" x="262.32" y="-808.43" font-family="Helvetica,sans-Serif" font-size="13.00" fill="#134e4a">Robotics and Embodied AI</text>
</g>
<!-- ai:artificial&#45;intelligence&#45;&gt;ai:robotics&#45;and&#45;embodied&#45;ai -->
<g id="edge5" class="edge">
<title>ai:artificial&#45;intelligence&#45;&gt;ai:robotics&#45;and&#45;embodied&#45;ai</title>
<path fill="none" stroke="#94a3b8" stroke-width="1.2" d="M494.22,-478.07C449.99,-542.14 326.72,-720.74 280.31,-787.98"/>
<polygon fill="#94a3b8" stroke="#94a3b8" stroke-width="1.2" points="278.42,-786.08 276.32,-793.75 282.74,-789.07 278.42,-786.08"/>
</g>
<!-- ai:natural&#45;language&#45;and&#45;speech -->
<g id="node7" class="node">
<title>ai:natural&#45;language&#45;and&#45;speech</title>
<path fill="#ccfbf1" stroke="#0f766e" stroke-width="1.8" d="M190.04,-679.06C190.04,-679.06 57.5,-679.06 57.5,-679.06 51.5,-679.06 45.5,-673.06 45.5,-667.06 45.5,-667.06 45.5,-648.22 45.5,-648.22 45.5,-642.22 51.5,-636.22 57.5,-636.22 57.5,-636.22 190.04,-636.22 190.04,-636.22 196.04,-636.22 202.04,-642.22 202.04,-648.22 202.04,-648.22 202.04,-667.06 202.04,-667.06 202.04,-673.06 196.04,-679.06 190.04,-679.06"/>
<text xml:space="preserve" text-anchor="middle" x="123.77" y="-658.79" font-family="Helvetica,sans-Serif" font-size="13.00" fill="#134e4a">Natural Language and</text>
<text xml:space="preserve" text-anchor="middle" x="123.77" y="-645.29" font-family="Helvetica,sans-Serif" font-size="13.00" fill="#134e4a">Speech</text>
</g>
<!-- ai:artificial&#45;intelligence&#45;&gt;ai:natural&#45;language&#45;and&#45;speech -->
<g id="edge6" class="edge">
<title>ai:artificial&#45;intelligence&#45;&gt;ai:natural&#45;language&#45;and&#45;speech</title>
<path fill="none" stroke="#94a3b8" stroke-width="1.2" d="M465.96,-478.04C393.55,-516.05 250.34,-591.21 174.18,-631.18"/>
<polygon fill="#94a3b8" stroke="#94a3b8" stroke-width="1.2" points="173.15,-628.75 167.73,-634.56 175.59,-633.4 173.15,-628.75"/>
</g>
<!-- ai:computer&#45;vision&#45;and&#45;perception -->
<g id="node8" class="node">
<title>ai:computer&#45;vision&#45;and&#45;perception</title>
<path fill="#ccfbf1" stroke="#0f766e" stroke-width="1.8" d="M135.54,-476.19C135.54,-476.19 12,-476.19 12,-476.19 6,-476.19 0,-470.19 0,-464.19 0,-464.19 0,-445.35 0,-445.35 0,-439.35 6,-433.35 12,-433.35 12,-433.35 135.54,-433.35 135.54,-433.35 141.54,-433.35 147.54,-439.35 147.54,-445.35 147.54,-445.35 147.54,-464.19 147.54,-464.19 147.54,-470.19 141.54,-476.19 135.54,-476.19"/>
<text xml:space="preserve" text-anchor="middle" x="73.77" y="-455.92" font-family="Helvetica,sans-Serif" font-size="13.00" fill="#134e4a">Computer Vision and</text>
<text xml:space="preserve" text-anchor="middle" x="73.77" y="-442.42" font-family="Helvetica,sans-Serif" font-size="13.00" fill="#134e4a">Perception</text>
</g>
<!-- ai:artificial&#45;intelligence&#45;&gt;ai:computer&#45;vision&#45;and&#45;perception -->
<g id="edge7" class="edge">
<title>ai:artificial&#45;intelligence&#45;&gt;ai:computer&#45;vision&#45;and&#45;perception</title>
<path fill="none" stroke="#94a3b8" stroke-width="1.2" d="M405.19,-454.77C329.25,-454.77 228.06,-454.77 157.56,-454.77"/>
<polygon fill="#94a3b8" stroke="#94a3b8" stroke-width="1.2" points="157.56,-452.15 150.06,-454.77 157.56,-457.4 157.56,-452.15"/>
</g>
<!-- ai:generative&#45;ai -->
<g id="node9" class="node">
<title>ai:generative&#45;ai</title>
<path fill="#ccfbf1" stroke="#0f766e" stroke-width="1.8" d="M163.42,-269.9C163.42,-269.9 84.13,-269.9 84.13,-269.9 78.13,-269.9 72.13,-263.9 72.13,-257.9 72.13,-257.9 72.13,-245.9 72.13,-245.9 72.13,-239.9 78.13,-233.9 84.13,-233.9 84.13,-233.9 163.42,-233.9 163.42,-233.9 169.42,-233.9 175.42,-239.9 175.42,-245.9 175.42,-245.9 175.42,-257.9 175.42,-257.9 175.42,-263.9 169.42,-269.9 163.42,-269.9"/>
<text xml:space="preserve" text-anchor="middle" x="123.77" y="-246.3" font-family="Helvetica,sans-Serif" font-size="13.00" fill="#134e4a">Generative AI</text>
</g>
<!-- ai:artificial&#45;intelligence&#45;&gt;ai:generative&#45;ai -->
<g id="edge8" class="edge">
<title>ai:artificial&#45;intelligence&#45;&gt;ai:generative&#45;ai</title>
<path fill="none" stroke="#94a3b8" stroke-width="1.2" d="M465.96,-431.5C391.5,-392.42 242.18,-314.05 167.88,-275.05"/>
<polygon fill="#94a3b8" stroke="#94a3b8" stroke-width="1.2" points="169.1,-272.73 161.23,-271.57 166.66,-277.37 169.1,-272.73"/>
</g>
<!-- ai:foundation&#45;models&#45;and&#45;general&#45;purpose&#45;ai -->
<g id="node10" class="node">
<title>ai:foundation&#45;models&#45;and&#45;general&#45;purpose&#45;ai</title>
<path fill="#ccfbf1" stroke="#0f766e" stroke-width="1.8" d="M331.97,-116.93C331.97,-116.93 192.68,-116.93 192.68,-116.93 186.68,-116.93 180.68,-110.93 180.68,-104.93 180.68,-104.93 180.68,-86.09 180.68,-86.09 180.68,-80.09 186.68,-74.09 192.68,-74.09 192.68,-74.09 331.97,-74.09 331.97,-74.09 337.97,-74.09 343.97,-80.09 343.97,-86.09 343.97,-86.09 343.97,-104.93 343.97,-104.93 343.97,-110.93 337.97,-116.93 331.97,-116.93"/>
<text xml:space="preserve" text-anchor="middle" x="262.32" y="-96.66" font-family="Helvetica,sans-Serif" font-size="13.00" fill="#134e4a">Foundation Models and</text>
<text xml:space="preserve" text-anchor="middle" x="262.32" y="-83.16" font-family="Helvetica,sans-Serif" font-size="13.00" fill="#134e4a">General&#45;Purpose AI</text>
</g>
<!-- ai:artificial&#45;intelligence&#45;&gt;ai:foundation&#45;models&#45;and&#45;general&#45;purpose&#45;ai -->
<g id="edge9" class="edge">
<title>ai:artificial&#45;intelligence&#45;&gt;ai:foundation&#45;models&#45;and&#45;general&#45;purpose&#45;ai</title>
<path fill="none" stroke="#94a3b8" stroke-width="1.2" d="M494.22,-431.47C450.82,-368.59 331.3,-195.44 282.99,-125.45"/>
<polygon fill="#94a3b8" stroke="#94a3b8" stroke-width="1.2" points="285.18,-124.01 278.76,-119.32 280.86,-126.99 285.18,-124.01"/>
</g>
<!-- ai:agentic&#45;and&#45;multi&#45;agent&#45;systems -->
<g id="node11" class="node">
<title>ai:agentic&#45;and&#45;multi&#45;agent&#45;systems</title>
<path fill="#ccfbf1" stroke="#0f766e" stroke-width="1.8" d="M528.45,-42.84C528.45,-42.84 386.91,-42.84 386.91,-42.84 380.91,-42.84 374.91,-36.84 374.91,-30.84 374.91,-30.84 374.91,-12 374.91,-12 374.91,-6 380.91,0 386.91,0 386.91,0 528.45,0 528.45,0 534.45,0 540.45,-6 540.45,-12 540.45,-12 540.45,-30.84 540.45,-30.84 540.45,-36.84 534.45,-42.84 528.45,-42.84"/>
<text xml:space="preserve" text-anchor="middle" x="457.68" y="-22.57" font-family="Helvetica,sans-Serif" font-size="13.00" fill="#134e4a">Agentic and Multi&#45;Agent</text>
<text xml:space="preserve" text-anchor="middle" x="457.68" y="-9.07" font-family="Helvetica,sans-Serif" font-size="13.00" fill="#134e4a">Systems</text>
</g>
<!-- ai:artificial&#45;intelligence&#45;&gt;ai:agentic&#45;and&#45;multi&#45;agent&#45;systems -->
<g id="edge10" class="edge">
<title>ai:artificial&#45;intelligence&#45;&gt;ai:agentic&#45;and&#45;multi&#45;agent&#45;systems</title>
<path fill="none" stroke="#94a3b8" stroke-width="1.2" d="M507.47,-431.47C498.63,-358.67 471.52,-135.4 461.48,-52.68"/>
<polygon fill="#94a3b8" stroke="#94a3b8" stroke-width="1.2" points="464.1,-52.46 460.59,-45.33 458.89,-53.09 464.1,-52.46"/>
</g>
<!-- ai:human&#45;ai&#45;interaction -->
<g id="node12" class="node">
<title>ai:human&#45;ai&#45;interaction</title>
<path fill="#ccfbf1" stroke="#0f766e" stroke-width="1.8" d="M727.99,-64.6C727.99,-64.6 602.2,-64.6 602.2,-64.6 596.2,-64.6 590.2,-58.6 590.2,-52.6 590.2,-52.6 590.2,-40.6 590.2,-40.6 590.2,-34.6 596.2,-28.6 602.2,-28.6 602.2,-28.6 727.99,-28.6 727.99,-28.6 733.99,-28.6 739.99,-34.6 739.99,-40.6 739.99,-40.6 739.99,-52.6 739.99,-52.6 739.99,-58.6 733.99,-64.6 727.99,-64.6"/>
<text xml:space="preserve" text-anchor="middle" x="665.1" y="-41" font-family="Helvetica,sans-Serif" font-size="13.00" fill="#134e4a">Human&#45;AI Interaction</text>
</g>
<!-- ai:artificial&#45;intelligence&#45;&gt;ai:human&#45;ai&#45;interaction -->
<g id="edge11" class="edge">
<title>ai:artificial&#45;intelligence&#45;&gt;ai:human&#45;ai&#45;interaction</title>
<path fill="none" stroke="#94a3b8" stroke-width="1.2" d="M519.07,-431.66C545.8,-361.16 626.22,-149.12 654.85,-73.64"/>
<polygon fill="#94a3b8" stroke="#94a3b8" stroke-width="1.2" points="657.22,-74.78 657.43,-66.83 652.31,-72.91 657.22,-74.78"/>
</g>
<!-- ai:ai&#45;safety&#45;alignment&#45;and&#45;governance -->
<g id="node13" class="node">
<title>ai:ai&#45;safety&#45;alignment&#45;and&#45;governance</title>
<path fill="#ccfbf1" stroke="#0f766e" stroke-width="1.8" d="M908.95,-186.72C908.95,-186.72 765.16,-186.72 765.16,-186.72 759.16,-186.72 753.16,-180.72 753.16,-174.72 753.16,-174.72 753.16,-155.88 753.16,-155.88 753.16,-149.88 759.16,-143.88 765.16,-143.88 765.16,-143.88 908.95,-143.88 908.95,-143.88 914.95,-143.88 920.95,-149.88 920.95,-155.88 920.95,-155.88 920.95,-174.72 920.95,-174.72 920.95,-180.72 914.95,-186.72 908.95,-186.72"/>
<text xml:space="preserve" text-anchor="middle" x="837.05" y="-166.45" font-family="Helvetica,sans-Serif" font-size="13.00" fill="#134e4a">AI Safety, Alignment and</text>
<text xml:space="preserve" text-anchor="middle" x="837.05" y="-152.95" font-family="Helvetica,sans-Serif" font-size="13.00" fill="#134e4a">Governance</text>
</g>
<!-- ai:artificial&#45;intelligence&#45;&gt;ai:ai&#45;safety&#45;alignment&#45;and&#45;governance -->
<g id="edge12" class="edge">
<title>ai:artificial&#45;intelligence&#45;&gt;ai:ai&#45;safety&#45;alignment&#45;and&#45;governance</title>
<path fill="none" stroke="#94a3b8" stroke-width="1.2" d="M536.49,-431.57C595.96,-378.89 741.01,-250.38 805.38,-193.35"/>
<polygon fill="#94a3b8" stroke="#94a3b8" stroke-width="1.2" points="806.86,-195.55 810.73,-188.61 803.38,-191.62 806.86,-195.55"/>
</g>
<!-- ai:agi&#45;and&#45;future&#45;ai -->
<g id="node14" class="node">
<title>ai:agi&#45;and&#45;future&#45;ai</title>
<path fill="#ccfbf1" stroke="#0f766e" stroke-width="1.8" d="M986.92,-368.3C986.92,-368.3 881.38,-368.3 881.38,-368.3 875.38,-368.3 869.38,-362.3 869.38,-356.3 869.38,-356.3 869.38,-344.3 869.38,-344.3 869.38,-338.3 875.38,-332.3 881.38,-332.3 881.38,-332.3 986.92,-332.3 986.92,-332.3 992.92,-332.3 998.92,-338.3 998.92,-344.3 998.92,-344.3 998.92,-356.3 998.92,-356.3 998.92,-362.3 992.92,-368.3 986.92,-368.3"/>
<text xml:space="preserve" text-anchor="middle" x="934.15" y="-344.7" font-family="Helvetica,sans-Serif" font-size="13.00" fill="#134e4a">AGI and Future AI</text>
</g>
<!-- ai:artificial&#45;intelligence&#45;&gt;ai:agi&#45;and&#45;future&#45;ai -->
<g id="edge13" class="edge">
<title>ai:artificial&#45;intelligence&#45;&gt;ai:agi&#45;and&#45;future&#45;ai</title>
<path fill="none" stroke="#94a3b8" stroke-width="1.2" d="M604.9,-431.46C681.87,-412.48 789.01,-386.08 859.9,-368.6"/>
<polygon fill="#94a3b8" stroke="#94a3b8" stroke-width="1.2" points="860.38,-371.19 867.03,-366.84 859.12,-366.09 860.38,-371.19"/>
</g>
</g>
</svg>
